<mxfile>
    <diagram id="tbUVkYZkHbc8JufgVfbp" name="Workflow diagram">
        <mxGraphModel dx="2902" dy="2144" grid="1" gridSize="10" guides="1" tooltips="1" connect="1" arrows="1" fold="1" page="1" pageScale="1" pageWidth="1169" pageHeight="827" background="#184380" math="0" shadow="0">
            <root>
                <mxCell id="DR9EEMrPSlY4ckPwdUAX-0"/>
                <mxCell id="DR9EEMrPSlY4ckPwdUAX-1" parent="DR9EEMrPSlY4ckPwdUAX-0"/>
                <mxCell id="HXRdfkEdL7Hh1PPMHjU6-104" value="\" style="rounded=1;whiteSpace=wrap;html=1;strokeWidth=4;fillColor=#D4E1F5;strokeColor=#6CB0F5;movable=1;resizable=1;rotatable=1;deletable=1;editable=1;connectable=1;" parent="DR9EEMrPSlY4ckPwdUAX-1" vertex="1">
                    <mxGeometry x="1205" y="-310" width="750" height="436" as="geometry"/>
                </mxCell>
                <mxCell id="rqf0iKj-WmwOmlQ5HG-t-26" value="" style="rounded=1;whiteSpace=wrap;html=1;strokeWidth=4;fillColor=#D4E1F5;strokeColor=#6CB0F5;movable=1;resizable=1;rotatable=1;deletable=1;editable=1;connectable=1;" parent="DR9EEMrPSlY4ckPwdUAX-1" vertex="1">
                    <mxGeometry x="-340" y="40" width="370" height="572.5" as="geometry"/>
                </mxCell>
                <mxCell id="HXRdfkEdL7Hh1PPMHjU6-111" value="" style="rounded=1;whiteSpace=wrap;html=1;strokeWidth=4;fillColor=#CCFFFF;strokeColor=#85F3FF;" parent="DR9EEMrPSlY4ckPwdUAX-1" vertex="1">
                    <mxGeometry x="1220" y="-170" width="720" height="260" as="geometry"/>
                </mxCell>
                <mxCell id="rqf0iKj-WmwOmlQ5HG-t-1" value="" style="rounded=1;whiteSpace=wrap;html=1;strokeWidth=4;fillColor=#dae8fc;strokeColor=#6c8ebf;" parent="DR9EEMrPSlY4ckPwdUAX-1" vertex="1">
                    <mxGeometry x="1235" y="-150" width="305" height="220" as="geometry"/>
                </mxCell>
                <mxCell id="HXRdfkEdL7Hh1PPMHjU6-47" value="" style="rounded=1;whiteSpace=wrap;html=1;strokeWidth=4;fillColor=#D4E1F5;strokeColor=#6CB0F5;movable=1;resizable=1;rotatable=1;deletable=1;editable=1;connectable=1;" parent="DR9EEMrPSlY4ckPwdUAX-1" vertex="1">
                    <mxGeometry x="360" y="-227.5" width="790" height="840" as="geometry"/>
                </mxCell>
                <mxCell id="HXRdfkEdL7Hh1PPMHjU6-56" value="" style="rounded=1;whiteSpace=wrap;html=1;strokeWidth=4;fillColor=#CCFFFF;strokeColor=#85F3FF;" parent="DR9EEMrPSlY4ckPwdUAX-1" vertex="1">
                    <mxGeometry x="932.5" y="102.5" width="190" height="440" as="geometry"/>
                </mxCell>
                <mxCell id="HXRdfkEdL7Hh1PPMHjU6-55" value="" style="rounded=1;whiteSpace=wrap;html=1;strokeWidth=4;fillColor=#CCFFFF;strokeColor=#85F3FF;" parent="DR9EEMrPSlY4ckPwdUAX-1" vertex="1">
                    <mxGeometry x="380" y="60" width="540" height="525" as="geometry"/>
                </mxCell>
                <mxCell id="HXRdfkEdL7Hh1PPMHjU6-0" value="" style="rounded=1;whiteSpace=wrap;html=1;strokeWidth=4;strokeColor=#82b366;fillColor=#d5e8d4;" parent="DR9EEMrPSlY4ckPwdUAX-1" vertex="1">
                    <mxGeometry x="968.42" y="120" width="125" height="190" as="geometry"/>
                </mxCell>
                <mxCell id="DR9EEMrPSlY4ckPwdUAX-2" value="" style="shape=image;verticalLabelPosition=bottom;labelBackgroundColor=#ffffff;verticalAlign=top;aspect=fixed;imageAspect=0;image=data:image/svg+xml,PHN2ZyB4bWxuczpjYz0iaHR0cDovL2NyZWF0aXZlY29tbW9ucy5vcmcvbnMjIiB4bWxuczpkYz0iaHR0cDovL3B1cmwub3JnL2RjL2VsZW1lbnRzLzEuMS8iIHhtbG5zOmlua3NjYXBlPSJodHRwOi8vd3d3Lmlua3NjYXBlLm9yZy9uYW1lc3BhY2VzL2lua3NjYXBlIiB4bWxuczpyZGY9Imh0dHA6Ly93d3cudzMub3JnLzE5OTkvMDIvMjItcmRmLXN5bnRheC1ucyMiIHhtbG5zOnNvZGlwb2RpPSJodHRwOi8vc29kaXBvZGkuc291cmNlZm9yZ2UubmV0L0RURC9zb2RpcG9kaS0wLmR0ZCIgeG1sbnM6c3ZnPSJodHRwOi8vd3d3LnczLm9yZy8yMDAwL3N2ZyIgeG1sbnM9Imh0dHA6Ly93d3cudzMub3JnLzIwMDAvc3ZnIiB4bWxuczp4bGluaz0iaHR0cDovL3d3dy53My5vcmcvMTk5OS94bGluayIgdmVyc2lvbj0iMS4xIiBpZD0ic3ZnMTAzNDc0IiBpbmtzY2FwZTp2ZXJzaW9uPSIwLjkyLjMgKDI0MDU1NDYsIDIwMTgtMDMtMTEpIiBzb2RpcG9kaTpkb2NuYW1lPSJyZWRpcy5zdmciIHg9IjBweCIgeT0iMHB4IiB2aWV3Qm94PSIwIDAgMzcuNTEgMzEuNiIgc3R5bGU9ImVuYWJsZS1iYWNrZ3JvdW5kOm5ldyAwIDAgMzcuNTEgMzEuNjsiIHhtbDpzcGFjZT0icHJlc2VydmUiPiYjeGE7PHNvZGlwb2RpOm5hbWVkdmlldyBib3JkZXJjb2xvcj0iIzY2NjY2NiIgYm9yZGVyb3BhY2l0eT0iMSIgZml0LW1hcmdpbi1ib3R0b209IjAiIGZpdC1tYXJnaW4tbGVmdD0iMCIgZml0LW1hcmdpbi1yaWdodD0iMCIgZml0LW1hcmdpbi10b3A9IjAiIGdyaWR0b2xlcmFuY2U9IjEwIiBndWlkZXRvbGVyYW5jZT0iMTAiIGlkPSJuYW1lZHZpZXcxMDM0NzYiIGlua3NjYXBlOmN1cnJlbnQtbGF5ZXI9InN2ZzEwMzQ3NCIgaW5rc2NhcGU6Y3g9IjI1LjAwNTA2MyIgaW5rc2NhcGU6Y3k9IjIxLjA2NDU5MiIgaW5rc2NhcGU6cGFnZW9wYWNpdHk9IjAiIGlua3NjYXBlOnBhZ2VzaGFkb3c9IjIiIGlua3NjYXBlOndpbmRvdy1oZWlnaHQ9IjEwMTciIGlua3NjYXBlOndpbmRvdy1tYXhpbWl6ZWQ9IjEiIGlua3NjYXBlOndpbmRvdy13aWR0aD0iMTkyMCIgaW5rc2NhcGU6d2luZG93LXg9Ii04IiBpbmtzY2FwZTp3aW5kb3cteT0iLTgiIGlua3NjYXBlOnpvb209IjE5LjY0MjUwNCIgb2JqZWN0dG9sZXJhbmNlPSIxMCIgcGFnZWNvbG9yPSIjZmZmZmZmIiBzaG93Z3JpZD0iZmFsc2UiPiYjeGE7CTwvc29kaXBvZGk6bmFtZWR2aWV3PiYjeGE7PGcgaWQ9ImcxMDM0NzIiIHRyYW5zZm9ybT0idHJhbnNsYXRlKC0wLjc0NjgyNzEsLTAuNzUxNjI1KSI+JiN4YTsJPHRpdGxlIGlkPSJ0aXRsZTEwMzM4OCI+UGFnZS0xPC90aXRsZT4mI3hhOwk8ZyBpZD0iZ3JvdXAzNzc2LTEiIHRyYW5zZm9ybT0idHJhbnNsYXRlKDAuNDA3MjksLTAuNjA5Mzc1KSI+JiN4YTsJCTx0aXRsZSBpZD0idGl0bGUxMDMzOTAiPlJlZGlzLjYzNjwvdGl0bGU+JiN4YTsJCTxnIGlkPSJncm91cDM3NzctMiI+JiN4YTsJCQk8dGl0bGUgaWQ9InRpdGxlMTAzMzkyIj5TaGVldC4zNzc3PC90aXRsZT4mI3hhOwkJCTxnIGlkPSJzaGFwZTM3NzgtMyIgdHJhbnNmb3JtPSJ0cmFuc2xhdGUoMC4yMzcpIj4mI3hhOwkJCQk8dGl0bGUgaWQ9InRpdGxlMTAzMzk0Ij5TaGVldC4zNzc4PC90aXRsZT4mI3hhOwkJCQk8cGF0aCBpZD0icGF0aDEwMzM5NiIgaW5rc2NhcGU6Y29ubmVjdG9yLWN1cnZhdHVyZT0iMCIgc3R5bGU9ImZpbGw6I0JBMTQxQTsiIGQ9Ik0wLjExLDI1LjE5Yy0wLjA2LDAuNCwwLjI4LDAuOCwxLjAyLDEuMTEgICAgICBsMTUuMjQsNi4yNGMxLjM3LDAuNTYsMy42LDAuNTYsNC45NywwbDE1LjI0LTYuMjRjMC43NC0wLjMxLDEuMDgtMC43MSwxLjAyLTEuMTF2LTMuNThjMC4wNSwwLjM5LTAuMjksMC43OS0xLjAyLDEuMDkgICAgICBsLTE1LjI0LDYuMjRjLTEuMzcsMC41Ni0zLjYsMC41Ni00Ljk3LDBMMS4xMywyMi43Yy0wLjgtMC4zMy0xLjEzLTAuNzgtMS0xLjJMMC4xMSwyNS4xOXoiLz4mI3hhOwkJCTwvZz4mI3hhOwkJCTxnIGlkPSJzaGFwZTM3NzktNSIgdHJhbnNmb3JtPSJ0cmFuc2xhdGUoMCwtMy42KSI+JiN4YTsJCQkJPHRpdGxlIGlkPSJ0aXRsZTEwMzM5OSI+U2hlZXQuMzc3OTwvdGl0bGU+JiN4YTsJCQkJPHBhdGggaWQ9InBhdGgxMDM0MDEiIGlua3NjYXBlOmNvbm5lY3Rvci1jdXJ2YXR1cmU9IjAiIHN0eWxlPSJmaWxsOiNCQTE0MUE7IiBkPSJNMzYuODEsMjQuMjZjMS4zOCwwLjU3LDEuMzgsMS40OCwwLDIuMDQgICAgICBsLTE1LjIzLDYuMjRjLTEuMzcsMC41Ni0zLjYsMC41Ni00Ljk3LDBMMS4zNywyNi4zQzAsMjUuNzQsMCwyNC44MywxLjM3LDI0LjI2bDE1LjI0LTYuMjRjMS4zNy0wLjU2LDMuNi0wLjU2LDQuOTcsMCAgICAgIEwzNi44MSwyNC4yNnoiLz4mI3hhOwkJCTwvZz4mI3hhOwkJPC9nPiYjeGE7CQk8ZyBpZD0iZ3JvdXAzNzgwLTciIHRyYW5zZm9ybT0idHJhbnNsYXRlKDAsLTYuMzE5NSkiPiYjeGE7CQkJPHRpdGxlIGlkPSJ0aXRsZTEwMzQwNSI+U2hlZXQuMzc4MDwvdGl0bGU+JiN4YTsJCQk8ZyBpZD0ic2hhcGUzNzgxLTgiIHRyYW5zZm9ybT0idHJhbnNsYXRlKDAuMjM3KSI+JiN4YTsJCQkJPHRpdGxlIGlkPSJ0aXRsZTEwMzQwNyI+U2hlZXQuMzc4MTwvdGl0bGU+JiN4YTsJCQkJPHBhdGggaWQ9InBhdGgxMDM0MDkiIGlua3NjYXBlOmNvbm5lY3Rvci1jdXJ2YXR1cmU9IjAiIHN0eWxlPSJmaWxsOiNCQTE0MUE7IiBkPSJNMC4xMSwyNS4xOWMtMC4wNiwwLjQsMC4yOCwwLjgsMS4wMiwxLjExICAgICAgbDE1LjI0LDYuMjRjMS4zNywwLjU2LDMuNiwwLjU2LDQuOTcsMGwxNS4yNC02LjI0YzAuNzQtMC4zMSwxLjA4LTAuNzEsMS4wMi0xLjExdi0zLjU4YzAuMDUsMC4zOS0wLjI5LDAuNzktMS4wMiwxLjA5ICAgICAgbC0xNS4yNCw2LjI0Yy0xLjM3LDAuNTYtMy42LDAuNTYtNC45NywwTDEuMTMsMjIuN2MtMC44LTAuMzMtMS4xMy0wLjc4LTEtMS4yTDAuMTEsMjUuMTl6Ii8+JiN4YTsJCQk8L2c+JiN4YTsJCQk8ZyBpZD0ic2hhcGUzNzgyLTEwIiB0cmFuc2Zvcm09InRyYW5zbGF0ZSgwLC0zLjYpIj4mI3hhOwkJCQk8dGl0bGUgaWQ9InRpdGxlMTAzNDEyIj5TaGVldC4zNzgyPC90aXRsZT4mI3hhOwkJCQk8cGF0aCBpZD0icGF0aDEwMzQxNCIgaW5rc2NhcGU6Y29ubmVjdG9yLWN1cnZhdHVyZT0iMCIgc3R5bGU9ImZpbGw6I0JBMTQxQTsiIGQ9Ik0zNi44MSwyNC4yNmMxLjM4LDAuNTcsMS4zOCwxLjQ4LDAsMi4wNCAgICAgIGwtMTUuMjMsNi4yNGMtMS4zNywwLjU2LTMuNiwwLjU2LTQuOTcsMEwxLjM3LDI2LjNDMCwyNS43NCwwLDI0LjgzLDEuMzcsMjQuMjZsMTUuMjQtNi4yNGMxLjM3LTAuNTYsMy42LTAuNTYsNC45NywwICAgICAgTDM2LjgxLDI0LjI2eiIvPiYjeGE7CQkJPC9nPiYjeGE7CQk8L2c+JiN4YTsJCTxnIGlkPSJncm91cDM3ODMtMTIiPiYjeGE7CQkJPHRpdGxlIGlkPSJ0aXRsZTEwMzQxOCI+U2hlZXQuMzc4MzwvdGl0bGU+JiN4YTsJCQk8ZyBpZD0ic2hhcGUzNzg0LTEzIiB0cmFuc2Zvcm09InRyYW5zbGF0ZSgwLjIzNywtMTIuNjM5KSI+JiN4YTsJCQkJPHRpdGxlIGlkPSJ0aXRsZTEwMzQyMCI+U2hlZXQuMzc4NDwvdGl0bGU+JiN4YTsJCQkJPHBhdGggaWQ9InBhdGgxMDM0MjIiIGlua3NjYXBlOmNvbm5lY3Rvci1jdXJ2YXR1cmU9IjAiIHN0eWxlPSJmaWxsOiNCQTE0MUE7IiBkPSJNMC4xMSwyNS4xOWMtMC4wNiwwLjQsMC4yOCwwLjgsMS4wMiwxLjExICAgICAgbDE1LjI0LDYuMjRjMS4zNywwLjU2LDMuNiwwLjU2LDQuOTcsMGwxNS4yNC02LjI0YzAuNzQtMC4zMSwxLjA4LTAuNzEsMS4wMi0xLjExdi0zLjU4YzAuMDUsMC4zOS0wLjI5LDAuNzktMS4wMiwxLjA5ICAgICAgbC0xNS4yNCw2LjI0Yy0xLjM3LDAuNTYtMy42LDAuNTYtNC45NywwTDEuMTMsMjIuN2MtMC44LTAuMzMtMS4xMy0wLjc4LTEtMS4yTDAuMTEsMjUuMTl6Ii8+JiN4YTsJCQk8L2c+JiN4YTsJCQk8ZyBpZD0ic2hhcGUzNzg1LTE1IiB0cmFuc2Zvcm09InRyYW5zbGF0ZSgwLjIzNykiPiYjeGE7CQkJCTx0aXRsZSBpZD0idGl0bGUxMDM0MjUiPlNoZWV0LjM3ODU8L3RpdGxlPiYjeGE7CQkJCTxwYXRoIGlkPSJwYXRoMTAzNDI3IiBpbmtzY2FwZTpjb25uZWN0b3ItY3VydmF0dXJlPSIwIiBzdHlsZT0iZmlsbDojMUUxRTFFO2ZpbGwtb3BhY2l0eTowLjI1OyIgZD0iTTAuMTEsMjUuMTkgICAgICBjLTAuMDYsMC40LDAuMjgsMC44LDEuMDIsMS4xMWwxNS4yNCw2LjI0YzEuMzcsMC41NiwzLjYsMC41Niw0Ljk3LDBsMTUuMjQtNi4yNGMwLjc0LTAuMzEsMS4wOC0wLjcxLDEuMDItMS4xMXYtMy41OCAgICAgIGMwLjA1LDAuMzktMC4yOSwwLjc5LTEuMDIsMS4wOWwtMTUuMjQsNi4yNGMtMS4zNywwLjU2LTMuNiwwLjU2LTQuOTcsMEwxLjEzLDIyLjdjLTAuOC0wLjMzLTEuMTMtMC43OC0xLTEuMkwwLjExLDI1LjE5eiIvPiYjeGE7CQkJPC9nPiYjeGE7CQkJPGcgaWQ9InNoYXBlMzc4Ni0xNyIgdHJhbnNmb3JtPSJ0cmFuc2xhdGUoMC4yMzcsLTYuMzE5NSkiPiYjeGE7CQkJCTx0aXRsZSBpZD0idGl0bGUxMDM0MzAiPlNoZWV0LjM3ODY8L3RpdGxlPiYjeGE7CQkJCTxwYXRoIGlkPSJwYXRoMTAzNDMyIiBpbmtzY2FwZTpjb25uZWN0b3ItY3VydmF0dXJlPSIwIiBzdHlsZT0iZmlsbDojMUUxRTFFO2ZpbGwtb3BhY2l0eTowLjI1OyIgZD0iTTAuMTEsMjUuMTkgICAgICBjLTAuMDYsMC40LDAuMjgsMC44LDEuMDIsMS4xMWwxNS4yNCw2LjI0YzEuMzcsMC41NiwzLjYsMC41Niw0Ljk3LDBsMTUuMjQtNi4yNGMwLjc0LTAuMzEsMS4wOC0wLjcxLDEuMDItMS4xMXYtMy41OCAgICAgIGMwLjA1LDAuMzktMC4yOSwwLjc5LTEuMDIsMS4wOWwtMTUuMjQsNi4yNGMtMS4zNywwLjU2LTMuNiwwLjU2LTQuOTcsMEwxLjEzLDIyLjdjLTAuOC0wLjMzLTEuMTMtMC43OC0xLTEuMkwwLjExLDI1LjE5eiIvPiYjeGE7CQkJPC9nPiYjeGE7CQkJPGcgaWQ9InNoYXBlMzc4Ny0xOSIgdHJhbnNmb3JtPSJ0cmFuc2xhdGUoMC4yMzcsLTEyLjYzOSkiPiYjeGE7CQkJCTx0aXRsZSBpZD0idGl0bGUxMDM0MzUiPlNoZWV0LjM3ODc8L3RpdGxlPiYjeGE7CQkJCTxwYXRoIGlkPSJwYXRoMTAzNDM3IiBpbmtzY2FwZTpjb25uZWN0b3ItY3VydmF0dXJlPSIwIiBzdHlsZT0iZmlsbDojMUUxRTFFO2ZpbGwtb3BhY2l0eTowLjI1OyIgZD0iTTAuMTEsMjUuMTkgICAgICBjLTAuMDYsMC40LDAuMjgsMC44LDEuMDIsMS4xMWwxNS4yNCw2LjI0YzEuMzcsMC41NiwzLjYsMC41Niw0Ljk3LDBsMTUuMjQtNi4yNGMwLjc0LTAuMzEsMS4wOC0wLjcxLDEuMDItMS4xMXYtMy41OCAgICAgIGMwLjA1LDAuMzktMC4yOSwwLjc5LTEuMDIsMS4wOWwtMTUuMjQsNi4yNGMtMS4zNywwLjU2LTMuNiwwLjU2LTQuOTcsMEwxLjEzLDIyLjdjLTAuOC0wLjMzLTEuMTMtMC43OC0xLTEuMkwwLjExLDI1LjE5eiIvPiYjeGE7CQkJPC9nPiYjeGE7CQkJPGcgaWQ9InNoYXBlMzc4OC0yMSIgdHJhbnNmb3JtPSJ0cmFuc2xhdGUoMCwtMTYuMjM5KSI+JiN4YTsJCQkJPHRpdGxlIGlkPSJ0aXRsZTEwMzQ0MCI+U2hlZXQuMzc4ODwvdGl0bGU+JiN4YTsJCQkJPHBhdGggaWQ9InBhdGgxMDM0NDIiIGlua3NjYXBlOmNvbm5lY3Rvci1jdXJ2YXR1cmU9IjAiIHN0eWxlPSJmaWxsOiNCQTE0MUE7IiBkPSJNMzYuODEsMjQuMjZjMS4zOCwwLjU3LDEuMzgsMS40OCwwLDIuMDQgICAgICBsLTE1LjIzLDYuMjRjLTEuMzcsMC41Ni0zLjYsMC41Ni00Ljk3LDBMMS4zNywyNi4zQzAsMjUuNzQsMCwyNC44MywxLjM3LDI0LjI2bDE1LjI0LTYuMjRjMS4zNy0wLjU2LDMuNi0wLjU2LDQuOTcsMCAgICAgIEwzNi44MSwyNC4yNnoiLz4mI3hhOwkJCTwvZz4mI3hhOwkJPC9nPiYjeGE7CQk8ZyBpZD0ic2hhcGUzNzg5LTIzIiB0cmFuc2Zvcm09InRyYW5zbGF0ZSg2LjM2MTUsLTIyLjExMjMpIj4mI3hhOwkJCTx0aXRsZSBpZD0idGl0bGUxMDM0NDYiPlNoZWV0LjM3ODk8L3RpdGxlPiYjeGE7CQkJPHBhdGggaWQ9InBhdGgxMDM0NDgiIGlua3NjYXBlOmNvbm5lY3Rvci1jdXJ2YXR1cmU9IjAiIHN0eWxlPSJmaWxsOiNGRkZGRkY7IiBkPSJNOC4wNCwzMi4zM2MtMS43NCwwLjc3LTQuNTYsMC43Ny02LjMsMCAgICAgQzAsMzEuNTYsMCwzMC4zLDEuNzQsMjkuNTNjMS43NC0wLjc3LDQuNTYtMC43Nyw2LjMsMEM5Ljc3LDMwLjMsOS43OCwzMS41Niw4LjA0LDMyLjMzeiIvPiYjeGE7CQk8L2c+JiN4YTsJCTxnIGlkPSJzaGFwZTM3OTAtMjUiIHRyYW5zZm9ybT0idHJhbnNsYXRlKDEzLjIxOCwtMTcuOTg4KSI+JiN4YTsJCQk8dGl0bGUgaWQ9InRpdGxlMTAzNDUxIj5TaGVldC4zNzkwPC90aXRsZT4mI3hhOwkJCTxwYXRoIGlkPSJwYXRoMTAzNDUzIiBpbmtzY2FwZTpjb25uZWN0b3ItY3VydmF0dXJlPSIwIiBzdHlsZT0iZmlsbDojRkZGRkZGOyIgZD0iTTAsMzAuMmw4LjkyLTEuMDZMNi41MywzMy4xTDAsMzAuMnoiLz4mI3hhOwkJPC9nPiYjeGE7CQk8ZyBpZD0ic2hhcGUzNzkxLTI3IiB0cmFuc2Zvcm09InRyYW5zbGF0ZSgyMS44NjQsLTIxLjg5MSkiPiYjeGE7CQkJPHRpdGxlIGlkPSJ0aXRsZTEwMzQ1NiI+U2hlZXQuMzc5MTwvdGl0bGU+JiN4YTsJCQk8cGF0aCBpZD0icGF0aDEwMzQ1OCIgaW5rc2NhcGU6Y29ubmVjdG9yLWN1cnZhdHVyZT0iMCIgc3R5bGU9ImZpbGw6IzFFMUUxRTtmaWxsLW9wYWNpdHk6MC4yNTsiIGQ9Ik01LjM0LDMzLjFMMCwzMC43MyAgICAgbDUuMzQtMi4zN2w1LjMzLDIuMzdMNS4zNCwzMy4xeiIvPiYjeGE7CQk8L2c+JiN4YTsJCTxnIGlkPSJzaGFwZTM3OTItMjkiIHRyYW5zZm9ybT0idHJhbnNsYXRlKDIxLjg2NCwtMjEuODkxKSI+JiN4YTsJCQk8dGl0bGUgaWQ9InRpdGxlMTAzNDYxIj5TaGVldC4zNzkyPC90aXRsZT4mI3hhOwkJCTxwYXRoIGlkPSJwYXRoMTAzNDYzIiBpbmtzY2FwZTpjb25uZWN0b3ItY3VydmF0dXJlPSIwIiBzdHlsZT0iZmlsbDojMUUxRTFFO2ZpbGwtb3BhY2l0eTowLjI1OyIgZD0iTTUuMzQsMzMuMUwwLDMwLjczICAgICBsNS4zNC0yLjM3VjMzLjF6Ii8+JiN4YTsJCTwvZz4mI3hhOwkJPGcgaWQ9InNoYXBlMzc5My0zMSIgdHJhbnNmb3JtPSJ0cmFuc2xhdGUoMTMuODk2NywtMjUuNjE1NSkiPiYjeGE7CQkJPHRpdGxlIGlkPSJ0aXRsZTEwMzQ2NiI+U2hlZXQuMzc5MzwvdGl0bGU+JiN4YTsJCQk8cGF0aCBpZD0icGF0aDEwMzQ2OCIgaW5rc2NhcGU6Y29ubmVjdG9yLWN1cnZhdHVyZT0iMCIgc3R5bGU9ImZpbGw6I0ZGRkZGRjsiIGQ9Ik0zLjQ4LDMxLjU1TDAsMzEuMjRsMy4wOS0wLjc4bC0wLjQtMS41NyAgICAgbDIuNjIsMS4wN2wzLjI0LTAuNjZsLTEuNDgsMS40NGwyLjQxLDEuMTdsLTMuNTQtMC4xOEw0LjE5LDMzLjFMMy40OCwzMS41NXoiLz4mI3hhOwkJPC9nPiYjeGE7CTwvZz4mI3hhOzwvZz4mI3hhOzwvc3ZnPg==;strokeColor=#000000;" parent="DR9EEMrPSlY4ckPwdUAX-1" vertex="1">
                    <mxGeometry x="994.84" y="165" width="65.32" height="55" as="geometry"/>
                </mxCell>
                <mxCell id="DR9EEMrPSlY4ckPwdUAX-3" value="" style="shape=image;verticalLabelPosition=bottom;labelBackgroundColor=#ffffff;verticalAlign=top;aspect=fixed;imageAspect=0;image=data:image/svg+xml,PHN2ZyB4bWxuczpjYz0iaHR0cDovL2NyZWF0aXZlY29tbW9ucy5vcmcvbnMjIiB4bWxuczpkYz0iaHR0cDovL3B1cmwub3JnL2RjL2VsZW1lbnRzLzEuMS8iIHhtbG5zOmlua3NjYXBlPSJodHRwOi8vd3d3Lmlua3NjYXBlLm9yZy9uYW1lc3BhY2VzL2lua3NjYXBlIiB4bWxuczpyZGY9Imh0dHA6Ly93d3cudzMub3JnLzE5OTkvMDIvMjItcmRmLXN5bnRheC1ucyMiIHhtbG5zOnNvZGlwb2RpPSJodHRwOi8vc29kaXBvZGkuc291cmNlZm9yZ2UubmV0L0RURC9zb2RpcG9kaS0wLmR0ZCIgeG1sbnM6c3ZnPSJodHRwOi8vd3d3LnczLm9yZy8yMDAwL3N2ZyIgeG1sbnM9Imh0dHA6Ly93d3cudzMub3JnLzIwMDAvc3ZnIiB4bWxuczp4bGluaz0iaHR0cDovL3d3dy53My5vcmcvMTk5OS94bGluayIgdmVyc2lvbj0iMS4xIiBpZD0ic3ZnMTAzMTA4IiBpbmtzY2FwZTp2ZXJzaW9uPSIwLjkyLjMgKDI0MDU1NDYsIDIwMTgtMDMtMTEpIiBzb2RpcG9kaTpkb2NuYW1lPSJwb3N0Z3Jlc3FsXzEuc3ZnIiB4PSIwcHgiIHk9IjBweCIgdmlld0JveD0iMCAwIDUyLjg4IDYwLjA3IiBzdHlsZT0iZW5hYmxlLWJhY2tncm91bmQ6bmV3IDAgMCA1Mi44OCA2MC4wNzsiIHhtbDpzcGFjZT0icHJlc2VydmUiPiYjeGE7PHNvZGlwb2RpOm5hbWVkdmlldyBib3JkZXJjb2xvcj0iIzY2NjY2NiIgYm9yZGVyb3BhY2l0eT0iMSIgZml0LW1hcmdpbi1ib3R0b209IjAiIGZpdC1tYXJnaW4tbGVmdD0iMCIgZml0LW1hcmdpbi1yaWdodD0iMCIgZml0LW1hcmdpbi10b3A9IjAiIGdyaWR0b2xlcmFuY2U9IjEwIiBndWlkZXRvbGVyYW5jZT0iMTAiIGlkPSJuYW1lZHZpZXcxMDMxMTAiIGlua3NjYXBlOmN1cnJlbnQtbGF5ZXI9InN2ZzEwMzEwOCIgaW5rc2NhcGU6Y3g9IjM1LjI1IiBpbmtzY2FwZTpjeT0iNDAuMDQ1MTk5IiBpbmtzY2FwZTpwYWdlb3BhY2l0eT0iMCIgaW5rc2NhcGU6cGFnZXNoYWRvdz0iMiIgaW5rc2NhcGU6d2luZG93LWhlaWdodD0iMTAxNyIgaW5rc2NhcGU6d2luZG93LW1heGltaXplZD0iMSIgaW5rc2NhcGU6d2luZG93LXdpZHRoPSIxOTIwIiBpbmtzY2FwZTp3aW5kb3cteD0iLTgiIGlua3NjYXBlOndpbmRvdy15PSItOCIgaW5rc2NhcGU6em9vbT0iMTAuODI0NDc2IiBvYmplY3R0b2xlcmFuY2U9IjEwIiBwYWdlY29sb3I9IiNmZmZmZmYiIHNob3dncmlkPSJmYWxzZSI+JiN4YTsJPC9zb2RpcG9kaTpuYW1lZHZpZXc+JiN4YTs8ZyBpZD0iZzEwMzEwNiI+JiN4YTsJPHRpdGxlIGlkPSJ0aXRsZTEwMjk2OSI+UGFnZS0xPC90aXRsZT4mI3hhOwk8ZyBpZD0iZ3JvdXAzNzIyLTEiPiYjeGE7CQk8dGl0bGUgaWQ9InRpdGxlMTAyOTcxIj5Qb3N0Z3JlU1FMICMxPC90aXRsZT4mI3hhOwkJPGcgaWQ9InNoYXBlMzcyMy0yIj4mI3hhOwkJCTx0aXRsZSBpZD0idGl0bGUxMDI5NzMiPkRhdGFiYXNlICMyPC90aXRsZT4mI3hhOwkJCTxwYXRoIGlkPSJwYXRoMTAyOTc1IiBpbmtzY2FwZTpjb25uZWN0b3ItY3VydmF0dXJlPSIwIiBzdHlsZT0iZmlsbDojM0Y1NzY1OyIgZD0iTTI2LjcxLDBjMTQuNjQsMCwyNi4xNywzLjkzLDI2LjE3LDguMzEgICAgIGMwLDQzLjU0LDAsNDMuNTQsMCw0My41NGMwLDQuODMtMTEuNTMsOC4yMi0yNi4xNyw4LjIyQzEyLjE1LDYwLjA3LDAsNTYuNjgsMCw1MS44NUMwLDguMzEsMCw4LjMxLDAsOC4zMSAgICAgQzAsMy45MywxMi4xNSwwLDI2LjcxLDB6IE0yNi43MSwxNC4yMWMxMi41OSwwLDIyLjY4LTIuOTUsMjIuNjgtNS45YzAtMi44Ni0xMC4wOS01LjM2LTIyLjY4LTUuMzZjLTEyLjYsMC0yMi42LDIuNS0yMi42LDUuMzYgICAgIEM0LjExLDExLjI2LDE0LjExLDE0LjIxLDI2LjcxLDE0LjIxeiIvPiYjeGE7CQk8L2c+JiN4YTsJCTxnIGlkPSJncm91cDM3MjQtNCIgdHJhbnNmb3JtPSJ0cmFuc2xhdGUoOS44NDcyNCwtNS40NTA1MykiPiYjeGE7CQkJPHRpdGxlIGlkPSJ0aXRsZTEwMjk3OCI+U2hlZXQuMzcyNDwvdGl0bGU+JiN4YTsJCQk8ZyBpZD0ic2hhcGUzNzI1LTUiIHRyYW5zZm9ybT0idHJhbnNsYXRlKDE1LjQ5NikiPiYjeGE7CQkJCTx0aXRsZSBpZD0idGl0bGUxMDI5ODAiPnBhdGgyNDY2LTU8L3RpdGxlPiYjeGE7CQkJCTxwYXRoIGlkPSJwYXRoMTAyOTgyIiBpbmtzY2FwZTpjb25uZWN0b3ItY3VydmF0dXJlPSIwIiBzdHlsZT0iZmlsbDpub25lOyIgZD0iTTAuMTEsNDkuMzFDMCw1My4zOCwwLjMsNTYuNjEsMC42OSw1Ny42ICAgICAgYzAuNCwxLDEuNzIsMi40Nyw0LjY1LDEuODRjMi40NS0wLjUyLDMuNTctMS41NCwzLjk2LTMuNzhjMC4yOC0xLjY1LDAuNjgtNS4wNiwwLjc1LTZMMC4xMSw0OS4zMXoiLz4mI3hhOwkJCQkmI3hhOwkJCQkJPHBhdGggaWQ9InBhdGgxMDI5ODQiIGlua3NjYXBlOmNvbm5lY3Rvci1jdXJ2YXR1cmU9IjAiIHN0eWxlPSJmaWxsOm5vbmU7c3Ryb2tlOiMzRjU3NjU7c3Ryb2tlLWxpbmVjYXA6cm91bmQ7c3Ryb2tlLWxpbmVqb2luOnJvdW5kO3N0cm9rZS1taXRlcmxpbWl0OjM7IiBkPSIgICAgICBNMC4xMSw0OS4zMUMwLDUzLjM4LDAuMyw1Ni42MSwwLjY5LDU3LjZjMC40LDEsMS43MiwyLjQ3LDQuNjUsMS44NGMyLjQ1LTAuNTIsMy41Ny0xLjU0LDMuOTYtMy43OGMwLjI4LTEuNjUsMC42OC01LjA2LDAuNzUtNiIvPiYjeGE7CQkJPC9nPiYjeGE7CQkJPGcgaWQ9InNoYXBlMzcyNi04IiB0cmFuc2Zvcm09InRyYW5zbGF0ZSgwLC00Ljg1MzQ2KSI+JiN4YTsJCQkJPHRpdGxlIGlkPSJ0aXRsZTEwMjk4NyI+cGF0aDI0NjgtMDwvdGl0bGU+JiN4YTsJCQkJPHBhdGggaWQ9InBhdGgxMDI5ODkiIGlua3NjYXBlOmNvbm5lY3Rvci1jdXJ2YXR1cmU9IjAiIHN0eWxlPSJmaWxsOm5vbmU7IiBkPSJNMTMuNSwzMy4zYzAsMC0xMy41LTUuNDItMTIuODgsNi45MSAgICAgIGMwLjEzLDIuNjMsMy45OSwxOS44Niw4LjMyLDE0LjY2YzIuNjItMi40NCwzLjAxLTMuNCwzLjAxLTMuNEwxMy41LDMzLjN6Ii8+JiN4YTsJCQkJJiN4YTsJCQkJCTxwYXRoIGlkPSJwYXRoMTAyOTkxIiBpbmtzY2FwZTpjb25uZWN0b3ItY3VydmF0dXJlPSIwIiBzdHlsZT0iZmlsbDpub25lO3N0cm9rZTojM0Y1NzY1O3N0cm9rZS1saW5lY2FwOnJvdW5kO3N0cm9rZS1saW5lam9pbjpyb3VuZDtzdHJva2UtbWl0ZXJsaW1pdDozOyIgZD0iICAgICAgTTEzLjUsMzMuM2MwLDAtMTMuNS01LjQyLTEyLjg4LDYuOTFjMC4xMywyLjYzLDMuOTksMTkuODYsOC4zMiwxNC42NmMyLjYyLTIuNDQsMy4wMS0zLjQsMy4wMS0zLjQiLz4mI3hhOwkJCTwvZz4mI3hhOwkJCTxnIGlkPSJzaGFwZTM3MjctMTEiIHRyYW5zZm9ybT0idHJhbnNsYXRlKDE5LjI2NjgsLTEzLjA3NjgpIj4mI3hhOwkJCQk8dGl0bGUgaWQ9InRpdGxlMTAyOTk0Ij5wYXRoMjQ3MC03PC90aXRsZT4mI3hhOwkJCQk8cGF0aCBpZD0icGF0aDEwMjk5NiIgaW5rc2NhcGU6Y29ubmVjdG9yLWN1cnZhdHVyZT0iMCIgc3R5bGU9ImZpbGw6IzNGNTc2NTsiIGQ9Ik0wLjQ2LDQwLjU0QzAsNDAuNjgsNy44NCwzNy42NywxMi4zLDQzLjM2ICAgICAgYzEuNTcsMi4wMi0wLjI1LDEwLjI0LTQuNjIsMTYuNzFMMC40Niw0MC41NHoiLz4mI3hhOwkJCQkmI3hhOwkJCQkJPHBhdGggaWQ9InBhdGgxMDI5OTgiIGlua3NjYXBlOmNvbm5lY3Rvci1jdXJ2YXR1cmU9IjAiIHN0eWxlPSJmaWxsOm5vbmU7c3Ryb2tlOiMzRjU3NjU7c3Ryb2tlLWxpbmVjYXA6cm91bmQ7c3Ryb2tlLWxpbmVqb2luOnJvdW5kO3N0cm9rZS1taXRlcmxpbWl0OjM7IiBkPSIgICAgICBNMC40Niw0MC41NEMwLDQwLjY4LDcuODQsMzcuNjcsMTIuMyw0My4zNmMxLjU3LDIuMDItMC4yNSwxMC4yNC00LjYyLDE2LjcxIi8+JiN4YTsJCQk8L2c+JiN4YTsJCQk8ZyBpZD0ic2hhcGUzNzI4LTE0IiB0cmFuc2Zvcm09InRyYW5zbGF0ZSg4LjkxMTY5LC05Ljc0ODU4KSI+JiN4YTsJCQkJPHRpdGxlIGlkPSJ0aXRsZTEwMzAwMSI+cGF0aDI0NzItMjwvdGl0bGU+JiN4YTsJCQkJPHBhdGggaWQ9InBhdGgxMDMwMDMiIGlua3NjYXBlOmNvbm5lY3Rvci1jdXJ2YXR1cmU9IjAiIHN0eWxlPSJmaWxsOm5vbmU7IiBkPSJNMTguMDQsNTUuNDFjMCwwLDAuMjgsMS40LDQuNDIsMC41NSAgICAgIGMxLjgxLTAuMzcsMC43MiwyLjM4LTEuMTIsMy4yM2MtMS41MSwwLjctNC44OCwwLjg4LTQuOTQtMC4wOEMxNi4yNiw1Ni42MSwxOC4xOCw1Ni4wNCwxOC4wNCw1NS40MSAgICAgIGMtMC4xMy0wLjU2LTAuOTgsMC4yMi0xLjU1LTEuMTZjLTAuNS0xLjItNi44MS0xMC40MiwxLjc1LTkuMDVjMC4zMS0wLjA3LTIuMjMtOC4xNC0xMC4yNC04LjI3Yy04LTAuMTMtNy43NCw5Ljg0LTcuNzQsOS44NCAgICAgIEwxOC4wNCw1NS40MXoiLz4mI3hhOwkJCQkmI3hhOwkJCQkJPHBhdGggaWQ9InBhdGgxMDMwMDUiIGlua3NjYXBlOmNvbm5lY3Rvci1jdXJ2YXR1cmU9IjAiIHN0eWxlPSJmaWxsOm5vbmU7c3Ryb2tlOiMzRjU3NjU7c3Ryb2tlLWxpbmVjYXA6cm91bmQ7c3Ryb2tlLWxpbmVqb2luOnJvdW5kO3N0cm9rZS1taXRlcmxpbWl0OjM7IiBkPSIgICAgICBNMTguMDQsNTUuNDFjMCwwLDAuMjgsMS40LDQuNDIsMC41NWMxLjgxLTAuMzcsMC43MiwyLjM4LTEuMTIsMy4yM2MtMS41MSwwLjctNC44OCwwLjg4LTQuOTQtMC4wOCAgICAgIEMxNi4yNiw1Ni42MSwxOC4xOCw1Ni4wNCwxOC4wNCw1NS40MWMtMC4xMy0wLjU2LTAuOTgsMC4yMi0xLjU1LTEuMTZjLTAuNS0xLjItNi44MS0xMC40MiwxLjc1LTkuMDUgICAgICBjMC4zMS0wLjA3LTIuMjMtOC4xNC0xMC4yNC04LjI3Yy04LTAuMTMtNy43NCw5Ljg0LTcuNzQsOS44NCIvPiYjeGE7CQkJPC9nPiYjeGE7CQkJPGcgaWQ9InNoYXBlMzcyOS0xNyIgdHJhbnNmb3JtPSJ0cmFuc2xhdGUoOC41NTcwNCwtOC4yMzMxNykiPiYjeGE7CQkJCTx0aXRsZSBpZD0idGl0bGUxMDMwMDgiPnBhdGgyNDc0LTc8L3RpdGxlPiYjeGE7CQkJCSYjeGE7CQkJCQk8cGF0aCBpZD0icGF0aDEwMzAxMCIgaW5rc2NhcGU6Y29ubmVjdG9yLWN1cnZhdHVyZT0iMCIgc3R5bGU9ImZpbGw6bm9uZTtzdHJva2U6IzNGNTc2NTtzdHJva2UtbGluZWNhcDpyb3VuZDtzdHJva2UtbGluZWpvaW46cm91bmQ7c3Ryb2tlLW1pdGVybGltaXQ6MzsiIGQ9IiAgICAgIE01LjI3LDU2LjA4Yy0xLjExLDEuMjUtMC43OCwxLjQ3LTMuMDEsMS45M0MwLDU4LjQ3LDEuMzMsNTguOTMsMi4xOSw1OS4xOGMxLjg2LDAuMzQsMy4zMiwwLjg5LDUuMTItMS4wMiAgICAgIGMwLjUtMC43LTAuMDEtMi4xMi0wLjY5LTIuNDFDNi4yOSw1NS42Miw1Ljg0LDU1LjQ0LDUuMjcsNTYuMDh6Ii8+JiN4YTsJCQk8L2c+JiN4YTsJCQk8ZyBpZD0ic2hhcGUzNzMwLTE5IiB0cmFuc2Zvcm09InRyYW5zbGF0ZSg4LjY2MjMyLC0xMi4yNDU1KSI+JiN4YTsJCQkJPHRpdGxlIGlkPSJ0aXRsZTEwMzAxMyI+cGF0aDI0NzYtMTwvdGl0bGU+JiN4YTsJCQkJPHBhdGggaWQ9InBhdGgxMDMwMTUiIGlua3NjYXBlOmNvbm5lY3Rvci1jdXJ2YXR1cmU9IjAiIHN0eWxlPSJmaWxsOm5vbmU7IiBkPSJNNS4xLDYwLjA3Yy0wLjEyLTAuNzMsMC4yNC0xLjYsMC42MS0yLjYyICAgICAgYzAuNTctMS41MywxLjg5LTMuMDYsMC44NC03LjkyYy0wLjc5LTMuNjItNi4wMy0wLjc1LTYuMDQtMC4yNmMwLDAuNDksMC4yNCwyLjQ5LTAuMDksNC44MWMtMC40MiwzLjAzLDEuOTMsNS42LDQuNjUsNS4zNCAgICAgIEw1LjEsNjAuMDd6Ii8+JiN4YTsJCQkJJiN4YTsJCQkJCTxwYXRoIGlkPSJwYXRoMTAzMDE3IiBpbmtzY2FwZTpjb25uZWN0b3ItY3VydmF0dXJlPSIwIiBzdHlsZT0iZmlsbDpub25lO3N0cm9rZTojMDAwMDAwO3N0cm9rZS1saW5lY2FwOnJvdW5kO3N0cm9rZS1saW5lam9pbjpyb3VuZDtzdHJva2UtbWl0ZXJsaW1pdDozOyIgZD0iICAgICAgTTUuMSw2MC4wN2MtMC4xMi0wLjczLDAuMjQtMS42LDAuNjEtMi42MmMwLjU3LTEuNTMsMS44OS0zLjA2LDAuODQtNy45MmMtMC43OS0zLjYyLTYuMDMtMC43NS02LjA0LTAuMjYgICAgICBjMCwwLjQ5LDAuMjQsMi40OS0wLjA5LDQuODFjLTAuNDIsMy4wMywxLjkzLDUuNiw0LjY1LDUuMzQiLz4mI3hhOwkJCTwvZz4mI3hhOwkJCTxnIGlkPSJzaGFwZTM3MzEtMjIiIHRyYW5zZm9ybT0idHJhbnNsYXRlKDEyLjQ4NTQsLTIyLjM4OCkiPiYjeGE7CQkJCTx0aXRsZSBpZD0idGl0bGUxMDMwMjAiPnBhdGgyNDc4LTQ8L3RpdGxlPiYjeGE7CQkJCTxwYXRoIGlkPSJwYXRoMTAzMDIyIiBpbmtzY2FwZTpjb25uZWN0b3ItY3VydmF0dXJlPSIwIiBzdHlsZT0iZmlsbDpub25lO3N0cm9rZTojMDAwMDAwO3N0cm9rZS1taXRlcmxpbWl0OjM7IiBkPSJNMC4wMiw1OS4zNCAgICAgIEMwLDU5LjUxLDAuMzMsNTkuOTUsMC43Niw2MC4wMWMwLjQzLDAuMDYsMC44LTAuMjksMC44Mi0wLjQ1YzAuMDMtMC4xNy0wLjMtMC4zNi0wLjczLTAuNDJDMC40MSw1OS4wOCwwLjA1LDU5LjE3LDAuMDIsNTkuMzR6Ii8+JiN4YTsJCQk8L2c+JiN4YTsJCQk8ZyBpZD0ic2hhcGUzNzMyLTI0IiB0cmFuc2Zvcm09InRyYW5zbGF0ZSgyNC4wMjY0LC0yMi43Mjk1KSI+JiN4YTsJCQkJPHRpdGxlIGlkPSJ0aXRsZTEwMzAyNSI+cGF0aDI0ODAtODwvdGl0bGU+JiN4YTsJCQkJPHBhdGggaWQ9InBhdGgxMDMwMjciIGlua3NjYXBlOmNvbm5lY3Rvci1jdXJ2YXR1cmU9IjAiIHN0eWxlPSJmaWxsOm5vbmU7c3Ryb2tlOiMwMDAwMDA7c3Ryb2tlLW1pdGVybGltaXQ6MzsiIGQ9Ik0xLjU4LDU5LjM0ICAgICAgYzAuMDMsMC4xNy0wLjMsMC42MS0wLjc0LDAuNjdjLTAuNDMsMC4wNi0wLjc5LTAuMjktMC44Mi0wLjQ1QzAsNTkuMzksMC4zMyw1OS4yLDAuNzYsNTkuMTRTMS41Niw1OS4xNywxLjU4LDU5LjM0eiIvPiYjeGE7CQkJPC9nPiYjeGE7CQkJPGcgaWQ9InNoYXBlMzczMy0yNiIgdHJhbnNmb3JtPSJ0cmFuc2xhdGUoMjYuMjI5OCwtMTQuMzIzNSkiPiYjeGE7CQkJCTx0aXRsZSBpZD0idGl0bGUxMDMwMzAiPnBhdGgyNDgyLTQ8L3RpdGxlPiYjeGE7CQkJCTxwYXRoIGlkPSJwYXRoMTAzMDMyIiBpbmtzY2FwZTpjb25uZWN0b3ItY3VydmF0dXJlPSIwIiBzdHlsZT0iZmlsbDpub25lOyIgZD0iTTAuOTIsNDkuNzdjMC4wNywxLjMyLTAuMjgsMi4yMS0wLjMzLDMuNjEgICAgICBDMC41Miw1NS40MSwxLjU2LDU3Ljc0LDAsNjAuMDdMMC45Miw0OS43N3oiLz4mI3hhOwkJCQkmI3hhOwkJCQkJPHBhdGggaWQ9InBhdGgxMDMwMzQiIGlua3NjYXBlOmNvbm5lY3Rvci1jdXJ2YXR1cmU9IjAiIHN0eWxlPSJmaWxsOm5vbmU7c3Ryb2tlOiMwMDAwMDA7c3Ryb2tlLWxpbmVjYXA6cm91bmQ7c3Ryb2tlLWxpbmVqb2luOnJvdW5kO3N0cm9rZS1taXRlcmxpbWl0OjM7IiBkPSIgICAgICBNMC45Miw0OS43N2MwLjA3LDEuMzItMC4yOCwyLjIxLTAuMzMsMy42MUMwLjUyLDU1LjQxLDEuNTYsNTcuNzQsMCw2MC4wNyIvPiYjeGE7CQkJPC9nPiYjeGE7CQkJPGcgaWQ9InNoYXBlMzczNC0yOSIgdHJhbnNmb3JtPSJ0cmFuc2xhdGUoMTAuNjE3NiwtMTEuMzI0MSkiPiYjeGE7CQkJCTx0aXRsZSBpZD0idGl0bGUxMDMwMzciPnBhdGgxMTY3ODwvdGl0bGU+JiN4YTsJCQkJJiN4YTsJCQkJCTxwYXRoIGlkPSJwYXRoMTAzMDM5IiBpbmtzY2FwZTpjb25uZWN0b3ItY3VydmF0dXJlPSIwIiBzdHlsZT0iZmlsbDojM0Y1NzY1O3N0cm9rZTojM0Y1NzY1O3N0cm9rZS1saW5lY2FwOnNxdWFyZTtzdHJva2UtbWl0ZXJsaW1pdDozOyIgZD0iICAgICAgTTAuNTEsNTguNDhsMi41Ni0wLjA2bC0xLjEyLDEuNjVMMCw1OS45TDAuNTEsNTguNDh6Ii8+JiN4YTsJCQk8L2c+JiN4YTsJCQk8ZyBpZD0ic2hhcGUzNzM1LTMxIiB0cmFuc2Zvcm09InRyYW5zbGF0ZSgwLjk5ODM3OSwtMC44ODYwNTQpIj4mI3hhOwkJCQk8dGl0bGUgaWQ9InRpdGxlMTAzMDQyIj5wYXRoMjQ2NDwvdGl0bGU+JiN4YTsJCQkJJiN4YTsJCQkJCTxwYXRoIGlkPSJwYXRoMTAzMDQ0IiBpbmtzY2FwZTpjb25uZWN0b3ItY3VydmF0dXJlPSIwIiBzdHlsZT0iZmlsbDojM0Y1NzY1O3N0cm9rZTojRkZGRkZGO3N0cm9rZS1saW5lY2FwOnJvdW5kO3N0cm9rZS1saW5lam9pbjpyb3VuZDtzdHJva2UtbWl0ZXJsaW1pdDozOyIgZD0iICAgICAgTTI5LjU3LDQ3LjgyYy0zLjgxLDAuNzktNC4wNy0wLjUtNC4wNy0wLjVjNC4wMi01Ljk3LDUuNy0xMy41NCw0LjI1LTE1LjRjLTMuOTYtNS4wNi0xMC44MS0yLjY2LTEwLjkyLTIuNmgtMC4wNCAgICAgIGMtMC43NS0wLjE1LTEuNi0wLjI0LTIuNTQtMC4yNmMtMS43My0wLjAzLTMuMDMsMC40NS00LjAzLDEuMmMwLDAtMTIuMjItNS4wMy0xMS42NSw2LjM0YzAuMTIsMi40MiwzLjQ3LDE4LjMsNy40NiwxMy41ICAgICAgYzEuNDUtMS43NSwyLjg2LTMuMjQsMi44Ni0zLjI0YzAuNywwLjQ3LDEuNTQsMC43MSwyLjQyLDAuNjJsMC4wNy0wLjA2Yy0wLjAyLDAuMjItMC4wMSwwLjQzLDAuMDMsMC42OSAgICAgIGMtMS4wMywxLjE0LTAuNzMsMS4zNS0yLjc5LDEuNzdjLTIuMDgsMC40My0wLjg1LDEuMTktMC4wNiwxLjM5YzAuOTcsMC4yNCwzLjIxLDAuNTgsNC43Mi0xLjUzbC0wLjA2LDAuMjQgICAgICBjMC40LDAuMzIsMC42OCwyLjEsMC42NCwzLjcxYy0wLjA1LDEuNjEtMC4wOCwyLjcxLDAuMjQsMy41OGMwLjMxLDAuODYsMC42MywyLjgsMy4zMywyLjIyYzIuMjYtMC40OCwzLjQzLTEuNzMsMy41OS0zLjgzICAgICAgYzAuMTItMS40OCwwLjM4LTEuMjYsMC4zOS0yLjU5bDAuMjEtMC42M2MwLjI1LTIuMDIsMC4wNC0yLjY3LDEuNDMtMi4zNmwwLjM0LDAuMDNjMS4wMiwwLjA0LDIuMzYtMC4xNywzLjE1LTAuNTMgICAgICBDMzAuMjMsNDguNzksMzEuMjQsNDcuNDgsMjkuNTcsNDcuODJ6Ii8+JiN4YTsJCQk8L2c+JiN4YTsJCQk8ZyBpZD0ic2hhcGUzNzM2LTMzIiB0cmFuc2Zvcm09InRyYW5zbGF0ZSgxNi4zMzY1LC0wLjgzMzg5OSkiPiYjeGE7CQkJCTx0aXRsZSBpZD0idGl0bGUxMDMwNDciPnBhdGgyNDY2PC90aXRsZT4mI3hhOwkJCQk8cGF0aCBpZD0icGF0aDEwMzA0OSIgaW5rc2NhcGU6Y29ubmVjdG9yLWN1cnZhdHVyZT0iMCIgc3R5bGU9ImZpbGw6IzNGNTc2NTsiIGQ9Ik0wLjEsNDguOTNjLTAuMSwzLjc1LDAuMDMsNy41MiwwLjQsOC40NCAgICAgIHMxLjE1LDIuNywzLjg1LDIuMTJjMi4yNi0wLjQ4LDMuMDgtMS40MiwzLjQ0LTMuNDhjMC4yNi0xLjUyLDAuNzctNS43NSwwLjgzLTYuNjFMMC4xLDQ4LjkzeiIvPiYjeGE7CQkJCSYjeGE7CQkJCQk8cGF0aCBpZD0icGF0aDEwMzA1MSIgaW5rc2NhcGU6Y29ubmVjdG9yLWN1cnZhdHVyZT0iMCIgc3R5bGU9ImZpbGw6bm9uZTtzdHJva2U6I0ZGRkZGRjtzdHJva2UtbGluZWNhcDpyb3VuZDtzdHJva2UtbGluZWpvaW46cm91bmQ7c3Ryb2tlLW1pdGVybGltaXQ6MzsiIGQ9IiAgICAgIE0wLjEsNDguOTNjLTAuMSwzLjc1LDAuMDMsNy41MiwwLjQsOC40NHMxLjE1LDIuNywzLjg1LDIuMTJjMi4yNi0wLjQ4LDMuMDgtMS40MiwzLjQ0LTMuNDhjMC4yNi0xLjUyLDAuNzctNS43NSwwLjgzLTYuNjEiLz4mI3hhOwkJCTwvZz4mI3hhOwkJCTxnIGlkPSJzaGFwZTM3MzctMzYiIHRyYW5zZm9ybT0idHJhbnNsYXRlKDAuOTcxMjA0LC02LjEwNzUzKSI+JiN4YTsJCQkJPHRpdGxlIGlkPSJ0aXRsZTEwMzA1NCI+cGF0aDI0Njg8L3RpdGxlPiYjeGE7CQkJCTxwYXRoIGlkPSJwYXRoMTAzMDU2IiBpbmtzY2FwZTpjb25uZWN0b3ItY3VydmF0dXJlPSIwIiBzdHlsZT0iZmlsbDojM0Y1NzY1OyIgZD0iTTEyLjIzLDM1LjRjMCwwLTEyLjIzLTUtMTEuNjYsNi4zNyAgICAgIGMwLjEyLDIuNDIsMy40NywxOC4zLDcuNDYsMTMuNWMxLjQ1LTEuNzUsMi43Ny0zLjEzLDIuNzctMy4xM0wxMi4yMywzNS40eiIvPiYjeGE7CQkJCSYjeGE7CQkJCQk8cGF0aCBpZD0icGF0aDEwMzA1OCIgaW5rc2NhcGU6Y29ubmVjdG9yLWN1cnZhdHVyZT0iMCIgc3R5bGU9ImZpbGw6bm9uZTtzdHJva2U6I0ZGRkZGRjtzdHJva2UtbGluZWNhcDpyb3VuZDtzdHJva2UtbGluZWpvaW46cm91bmQ7c3Ryb2tlLW1pdGVybGltaXQ6MzsiIGQ9IiAgICAgIE0xMi4yMywzNS40YzAsMC0xMi4yMy01LTExLjY2LDYuMzdjMC4xMiwyLjQyLDMuNDcsMTguMyw3LjQ2LDEzLjVjMS40NS0xLjc1LDIuNzctMy4xMywyLjc3LTMuMTMiLz4mI3hhOwkJCTwvZz4mI3hhOwkJCTxnIGlkPSJzaGFwZTM3MzgtMzkiIHRyYW5zZm9ybT0idHJhbnNsYXRlKDE5LjM4NjcsLTEzLjY4NjIpIj4mI3hhOwkJCQk8dGl0bGUgaWQ9InRpdGxlMTAzMDYxIj5wYXRoMjQ3MDwvdGl0bGU+JiN4YTsJCQkJPHBhdGggaWQ9InBhdGgxMDMwNjMiIGlua3NjYXBlOmNvbm5lY3Rvci1jdXJ2YXR1cmU9IjAiIHN0eWxlPSJmaWxsOiMzRjU3NjU7IiBkPSJNMC40Miw0Mi4wN0MwLDQyLjIsNy4yMywzOS40MywxMS4zNCw0NC42NyAgICAgIGMxLjQ1LDEuODYtMC4yNCw5LjQzLTQuMjYsMTUuNEwwLjQyLDQyLjA3eiIvPiYjeGE7CQkJCSYjeGE7CQkJCQk8cGF0aCBpZD0icGF0aDEwMzA2NSIgaW5rc2NhcGU6Y29ubmVjdG9yLWN1cnZhdHVyZT0iMCIgc3R5bGU9ImZpbGw6bm9uZTtzdHJva2U6I0ZGRkZGRjtzdHJva2UtbGluZWNhcDpyb3VuZDtzdHJva2UtbGluZWpvaW46cm91bmQ7c3Ryb2tlLW1pdGVybGltaXQ6MzsiIGQ9IiAgICAgIE0wLjQyLDQyLjA3QzAsNDIuMiw3LjIzLDM5LjQzLDExLjM0LDQ0LjY3YzEuNDUsMS44Ni0wLjI0LDkuNDMtNC4yNiwxNS40Ii8+JiN4YTsJCQk8L2c+JiN4YTsJCQk8ZyBpZD0ic2hhcGUzNzM5LTQyIiB0cmFuc2Zvcm09InRyYW5zbGF0ZSg5Ljg0MzI3LC0xMC42MTg5KSI+JiN4YTsJCQkJPHRpdGxlIGlkPSJ0aXRsZTEwMzA2OCI+cGF0aDI0NzI8L3RpdGxlPiYjeGE7CQkJCTxwYXRoIGlkPSJwYXRoMTAzMDcwIiBpbmtzY2FwZTpjb25uZWN0b3ItY3VydmF0dXJlPSIwIiBzdHlsZT0iZmlsbDojM0Y1NzY1OyIgZD0iTTE2LjYzLDU3YzAsMCwwLjI2LDEuMjksNC4wNywwLjUxICAgICAgYzEuNjctMC4zNSwwLjY2LDAuOTctMS4wMywxLjc1Yy0xLjM5LDAuNjUtNC41LDAuODEtNC41Ni0wLjA4QzE0Ljk4LDU2Ljg4LDE2Ljc1LDU3LjU4LDE2LjYzLDU3ICAgICAgYy0wLjEyLTAuNTEtMC45MS0xLjAyLTEuNDMtMi4yOWMtMC40Ni0xLjExLTYuMjctOS42MSwxLjYxLTguMzVjMC4yOS0wLjA2LTIuMDYtNy40OS05LjQ0LTcuNjFDMCwzOC42MiwwLjI0LDQ3LjgxLDAuMjQsNDcuODEgICAgICBMMTYuNjMsNTd6Ii8+JiN4YTsJCQkJJiN4YTsJCQkJCTxwYXRoIGlkPSJwYXRoMTAzMDcyIiBpbmtzY2FwZTpjb25uZWN0b3ItY3VydmF0dXJlPSIwIiBzdHlsZT0iZmlsbDpub25lO3N0cm9rZTojRkZGRkZGO3N0cm9rZS1saW5lY2FwOnJvdW5kO3N0cm9rZS1saW5lam9pbjpyb3VuZDtzdHJva2UtbWl0ZXJsaW1pdDozOyIgZD0iICAgICAgTTE2LjYzLDU3YzAsMCwwLjI2LDEuMjksNC4wNywwLjUxYzEuNjctMC4zNSwwLjY2LDAuOTctMS4wMywxLjc1Yy0xLjM5LDAuNjUtNC41LDAuODEtNC41Ni0wLjA4ICAgICAgQzE0Ljk4LDU2Ljg4LDE2Ljc1LDU3LjU4LDE2LjYzLDU3Yy0wLjEyLTAuNTEtMC45MS0xLjAyLTEuNDMtMi4yOWMtMC40Ni0xLjExLTYuMjctOS42MSwxLjYxLTguMzUgICAgICBjMC4yOS0wLjA2LTIuMDYtNy40OS05LjQ0LTcuNjFDMCwzOC42MiwwLjI0LDQ3LjgxLDAuMjQsNDcuODEiLz4mI3hhOwkJCTwvZz4mI3hhOwkJCTxnIGlkPSJzaGFwZTM3NDAtNDUiIHRyYW5zZm9ybT0idHJhbnNsYXRlKDkuNTE2NDIsLTkuMTUxNSkiPiYjeGE7CQkJCTx0aXRsZSBpZD0idGl0bGUxMDMwNzUiPnBhdGgyNDc0PC90aXRsZT4mI3hhOwkJCQkmI3hhOwkJCQkJPHBhdGggaWQ9InBhdGgxMDMwNzciIGlua3NjYXBlOmNvbm5lY3Rvci1jdXJ2YXR1cmU9IjAiIHN0eWxlPSJmaWxsOiMzRjU3NjU7c3Ryb2tlOiNGRkZGRkY7c3Ryb2tlLWxpbmVjYXA6cm91bmQ7c3Ryb2tlLWxpbmVqb2luOnJvdW5kO3N0cm9rZS1taXRlcmxpbWl0OjM7IiBkPSIgICAgICBNNC44Niw1Ni4zMmMtMS4wMywxLjE1LTAuNzMsMS4zNS0yLjc4LDEuNzhDMCw1OC41MywxLjIyLDU5LjI5LDIuMDIsNTkuNDljMC45NywwLjI0LDMuMiwwLjU4LDQuNzEtMS41MyAgICAgIGMwLjQ2LTAuNjUsMC0xLjY4LTAuNjMtMS45NEM1Ljc5LDU1Ljg5LDUuMzksNTUuNzQsNC44Niw1Ni4zMnoiLz4mI3hhOwkJCTwvZz4mI3hhOwkJCTxnIGlkPSJzaGFwZTM3NDEtNDciIHRyYW5zZm9ybT0idHJhbnNsYXRlKDkuNjEzNCwtMTIuOTIwMSkiPiYjeGE7CQkJCTx0aXRsZSBpZD0idGl0bGUxMDMwODAiPnBhdGgyNDc2PC90aXRsZT4mI3hhOwkJCQk8cGF0aCBpZD0icGF0aDEwMzA4MiIgaW5rc2NhcGU6Y29ubmVjdG9yLWN1cnZhdHVyZT0iMCIgc3R5bGU9ImZpbGw6IzNGNTc2NTsiIGQ9Ik00LjcsNjAuMDdjLTAuMTEtMC42NywwLjIyLTEuNDgsMC41Ny0yLjQyICAgICAgYzAuNTItMS40MSwxLjczLTIuODIsMC43Ni03LjI5Yy0wLjcyLTMuMzQtNS41Ni0wLjctNS41Ni0wLjI0YzAsMC40NSwwLjIyLDIuMjktMC4wOCw0LjQzQzAsNTcuMzQsMi4xNyw1OS43MSw0LjY3LDU5LjQ3ICAgICAgTDQuNyw2MC4wN3oiLz4mI3hhOwkJCQkmI3hhOwkJCQkJPHBhdGggaWQ9InBhdGgxMDMwODQiIGlua3NjYXBlOmNvbm5lY3Rvci1jdXJ2YXR1cmU9IjAiIHN0eWxlPSJmaWxsOm5vbmU7c3Ryb2tlOiNGRkZGRkY7c3Ryb2tlLWxpbmVjYXA6cm91bmQ7c3Ryb2tlLWxpbmVqb2luOnJvdW5kO3N0cm9rZS1taXRlcmxpbWl0OjM7IiBkPSIgICAgICBNNC43LDYwLjA3Yy0wLjExLTAuNjcsMC4yMi0xLjQ4LDAuNTctMi40MmMwLjUyLTEuNDEsMS43My0yLjgyLDAuNzYtNy4yOWMtMC43Mi0zLjM0LTUuNTYtMC43LTUuNTYtMC4yNCAgICAgIGMwLDAuNDUsMC4yMiwyLjI5LTAuMDgsNC40M0MwLDU3LjM0LDIuMTcsNTkuNzEsNC42Nyw1OS40NyIvPiYjeGE7CQkJPC9nPiYjeGE7CQkJPGcgaWQ9InNoYXBlMzc0Mi01MCIgdHJhbnNmb3JtPSJ0cmFuc2xhdGUoMTMuMTM2OCwtMjIuMjY3NikiPiYjeGE7CQkJCTx0aXRsZSBpZD0idGl0bGUxMDMwODciPnBhdGgyNDc4PC90aXRsZT4mI3hhOwkJCQk8cGF0aCBpZD0icGF0aDEwMzA4OSIgaW5rc2NhcGU6Y29ubmVjdG9yLWN1cnZhdHVyZT0iMCIgc3R5bGU9ImZpbGw6I0ZGRkZGRjtzdHJva2U6I0ZGRkZGRjtzdHJva2UtbWl0ZXJsaW1pdDozOyIgZD0iICAgICAgTTAuMDIsNTkuNEMwLDU5LjU1LDAuMyw1OS45NiwwLjcsNjAuMDJjMC40LDAuMDUsMC43NC0wLjI3LDAuNzYtMC40MmMwLjAyLTAuMTYtMC4yOC0wLjMzLTAuNjgtMC4zOCAgICAgIEMwLjM4LDU5LjE2LDAuMDQsNTkuMjQsMC4wMiw1OS40eiIvPiYjeGE7CQkJPC9nPiYjeGE7CQkJPGcgaWQ9InNoYXBlMzc0My01MiIgdHJhbnNmb3JtPSJ0cmFuc2xhdGUoMjMuNzczMywtMjIuNTgyNCkiPiYjeGE7CQkJCTx0aXRsZSBpZD0idGl0bGUxMDMwOTIiPnBhdGgyNDgwPC90aXRsZT4mI3hhOwkJCQk8cGF0aCBpZD0icGF0aDEwMzA5NCIgaW5rc2NhcGU6Y29ubmVjdG9yLWN1cnZhdHVyZT0iMCIgc3R5bGU9ImZpbGw6I0ZGRkZGRjtzdHJva2U6I0ZGRkZGRjtzdHJva2UtbWl0ZXJsaW1pdDozOyIgZD0iICAgICAgTTEuNDYsNTkuNGMwLjAyLDAuMTUtMC4yOCwwLjU2LTAuNjgsMC42MmMtMC40LDAuMDUtMC43NC0wLjI3LTAuNzYtMC40MkMwLDU5LjQ0LDAuMyw1OS4yNywwLjcsNTkuMjIgICAgICBDMS4xLDU5LjE2LDEuNDQsNTkuMjQsMS40Niw1OS40eiIvPiYjeGE7CQkJPC9nPiYjeGE7CQkJPGcgaWQ9InNoYXBlMzc0NC01NCIgdHJhbnNmb3JtPSJ0cmFuc2xhdGUoMjUuODAzOSwtMTQuODM1MikiPiYjeGE7CQkJCTx0aXRsZSBpZD0idGl0bGUxMDMwOTciPnBhdGgyNDgyPC90aXRsZT4mI3hhOwkJCQk8cGF0aCBpZD0icGF0aDEwMzA5OSIgaW5rc2NhcGU6Y29ubmVjdG9yLWN1cnZhdHVyZT0iMCIgc3R5bGU9ImZpbGw6IzMxNjE5MjsiIGQ9Ik0wLjg1LDUwLjU4YzAuMDYsMS4yMS0wLjI2LDIuMDQtMC4zMSwzLjMzICAgICAgYy0wLjA2LDEuODcsMC45LDQuMDEtMC41NCw2LjE2TDAuODUsNTAuNTh6Ii8+JiN4YTsJCQkJJiN4YTsJCQkJCTxwYXRoIGlkPSJwYXRoMTAzMTAxIiBpbmtzY2FwZTpjb25uZWN0b3ItY3VydmF0dXJlPSIwIiBzdHlsZT0iZmlsbDpub25lO3N0cm9rZTojRkZGRkZGO3N0cm9rZS1saW5lY2FwOnJvdW5kO3N0cm9rZS1saW5lam9pbjpyb3VuZDtzdHJva2UtbWl0ZXJsaW1pdDozOyIgZD0iICAgICAgTTAuODUsNTAuNThjMC4wNiwxLjIxLTAuMjYsMi4wNC0wLjMxLDMuMzNjLTAuMDYsMS44NywwLjksNC4wMS0wLjU0LDYuMTYiLz4mI3hhOwkJCTwvZz4mI3hhOwkJPC9nPiYjeGE7CTwvZz4mI3hhOzwvZz4mI3hhOzwvc3ZnPg==;" parent="DR9EEMrPSlY4ckPwdUAX-1" vertex="1">
                    <mxGeometry x="996.58" y="230" width="61.84" height="70" as="geometry"/>
                </mxCell>
                <mxCell id="HXRdfkEdL7Hh1PPMHjU6-4" value="Databases" style="text;html=1;align=center;verticalAlign=middle;resizable=0;points=[];autosize=1;fontSize=17;fontStyle=1" parent="DR9EEMrPSlY4ckPwdUAX-1" vertex="1">
                    <mxGeometry x="977.5" y="120" width="100" height="30" as="geometry"/>
                </mxCell>
                <mxCell id="HXRdfkEdL7Hh1PPMHjU6-10" value="" style="edgeStyle=orthogonalEdgeStyle;rounded=1;orthogonalLoop=1;jettySize=auto;html=1;strokeColor=#FFFFFF;strokeWidth=3;fontSize=21;fontColor=#FFFFFF;exitX=1;exitY=0.5;exitDx=0;exitDy=0;" parent="DR9EEMrPSlY4ckPwdUAX-1" source="HXRdfkEdL7Hh1PPMHjU6-6" edge="1">
                    <mxGeometry relative="1" as="geometry">
                        <mxPoint x="910" y="313" as="sourcePoint"/>
                        <mxPoint x="997" y="260" as="targetPoint"/>
                        <Array as="points">
                            <mxPoint x="950" y="300"/>
                            <mxPoint x="950" y="260"/>
                        </Array>
                    </mxGeometry>
                </mxCell>
                <mxCell id="HXRdfkEdL7Hh1PPMHjU6-36" style="edgeStyle=orthogonalEdgeStyle;rounded=1;orthogonalLoop=1;jettySize=auto;html=1;strokeWidth=3;fontSize=21;fontColor=#FFFFFF;strokeColor=#FFFFFF;exitX=1;exitY=0.5;exitDx=0;exitDy=0;" parent="DR9EEMrPSlY4ckPwdUAX-1" source="HXRdfkEdL7Hh1PPMHjU6-6" edge="1">
                    <mxGeometry relative="1" as="geometry">
                        <mxPoint x="995" y="180" as="targetPoint"/>
                        <Array as="points">
                            <mxPoint x="950" y="300"/>
                            <mxPoint x="950" y="180"/>
                        </Array>
                    </mxGeometry>
                </mxCell>
                <mxCell id="HXRdfkEdL7Hh1PPMHjU6-6" value="" style="rounded=1;whiteSpace=wrap;html=1;strokeWidth=4;strokeColor=#82b366;fillColor=#FFE599;" parent="DR9EEMrPSlY4ckPwdUAX-1" vertex="1">
                    <mxGeometry x="760" y="245" width="150" height="110" as="geometry"/>
                </mxCell>
                <mxCell id="HXRdfkEdL7Hh1PPMHjU6-7" value="" style="shape=image;verticalLabelPosition=bottom;labelBackgroundColor=#ffffff;verticalAlign=top;aspect=fixed;imageAspect=0;image=data:image/svg+xml,PHN2ZyB4bWxuczpjYz0iaHR0cDovL2NyZWF0aXZlY29tbW9ucy5vcmcvbnMjIiB4bWxuczpkYz0iaHR0cDovL3B1cmwub3JnL2RjL2VsZW1lbnRzLzEuMS8iIHhtbG5zOmlua3NjYXBlPSJodHRwOi8vd3d3Lmlua3NjYXBlLm9yZy9uYW1lc3BhY2VzL2lua3NjYXBlIiB4bWxuczpyZGY9Imh0dHA6Ly93d3cudzMub3JnLzE5OTkvMDIvMjItcmRmLXN5bnRheC1ucyMiIHhtbG5zOnNvZGlwb2RpPSJodHRwOi8vc29kaXBvZGkuc291cmNlZm9yZ2UubmV0L0RURC9zb2RpcG9kaS0wLmR0ZCIgeG1sbnM6c3ZnPSJodHRwOi8vd3d3LnczLm9yZy8yMDAwL3N2ZyIgeG1sbnM9Imh0dHA6Ly93d3cudzMub3JnLzIwMDAvc3ZnIiB4bWxuczp4bGluaz0iaHR0cDovL3d3dy53My5vcmcvMTk5OS94bGluayIgdmVyc2lvbj0iMS4xIiBpZD0ic3ZnMTg1NTk3IiBpbmtzY2FwZTp2ZXJzaW9uPSIwLjkyLjMgKDI0MDU1NDYsIDIwMTgtMDMtMTEpIiBzb2RpcG9kaTpkb2NuYW1lPSJub2RlanNfc2RrLnN2ZyIgeD0iMHB4IiB5PSIwcHgiIHZpZXdCb3g9IjAgMCA5MC40MyA1NS4zOCIgc3R5bGU9ImVuYWJsZS1iYWNrZ3JvdW5kOm5ldyAwIDAgOTAuNDMgNTUuMzg7IiB4bWw6c3BhY2U9InByZXNlcnZlIj4mI3hhOzxzb2RpcG9kaTpuYW1lZHZpZXcgYm9yZGVyY29sb3I9IiM2NjY2NjYiIGJvcmRlcm9wYWNpdHk9IjEiIGZpdC1tYXJnaW4tYm90dG9tPSIwIiBmaXQtbWFyZ2luLWxlZnQ9IjAiIGZpdC1tYXJnaW4tcmlnaHQ9IjAiIGZpdC1tYXJnaW4tdG9wPSIwIiBncmlkdG9sZXJhbmNlPSIxMCIgZ3VpZGV0b2xlcmFuY2U9IjEwIiBpZD0ibmFtZWR2aWV3MTg1NTk5IiBpbmtzY2FwZTpjdXJyZW50LWxheWVyPSJzdmcxODU1OTciIGlua3NjYXBlOmN4PSI2MC4yODMzNTkiIGlua3NjYXBlOmN5PSIzNi45MTk2ODQiIGlua3NjYXBlOnBhZ2VvcGFjaXR5PSIwIiBpbmtzY2FwZTpwYWdlc2hhZG93PSIyIiBpbmtzY2FwZTp3aW5kb3ctaGVpZ2h0PSIxMDE3IiBpbmtzY2FwZTp3aW5kb3ctbWF4aW1pemVkPSIxIiBpbmtzY2FwZTp3aW5kb3ctd2lkdGg9IjE5MjAiIGlua3NjYXBlOndpbmRvdy14PSItOCIgaW5rc2NhcGU6d2luZG93LXk9Ii04IiBpbmtzY2FwZTp6b29tPSI5LjE5OTg0NjIiIG9iamVjdHRvbGVyYW5jZT0iMTAiIHBhZ2Vjb2xvcj0iI2ZmZmZmZiIgc2hvd2dyaWQ9ImZhbHNlIj4mI3hhOwk8L3NvZGlwb2RpOm5hbWVkdmlldz4mI3hhOzxnIGlkPSJnMTg1NTk1IiB0cmFuc2Zvcm09InRyYW5zbGF0ZSgtNy42NTAyMzc3LC03LjY0NzUwMDYpIj4mI3hhOwk8dGl0bGUgaWQ9InRpdGxlMTg1NTIwIj5QYWdlLTE8L3RpdGxlPiYjeGE7CTxnIGlkPSJncm91cDEyOTQtMSIgdHJhbnNmb3JtPSJ0cmFuc2xhdGUoNy42NSwtNy42NSkiPiYjeGE7CQk8dGl0bGUgaWQ9InRpdGxlMTg1NTIyIj5Ob2RlLmpzIFNESzwvdGl0bGU+JiN4YTsJCTxnIGlkPSJncm91cDEyOTUtMiIgdHJhbnNmb3JtPSJ0cmFuc2xhdGUoMzQuODEyNikiPiYjeGE7CQkJPHRpdGxlIGlkPSJ0aXRsZTE4NTUyNCI+U2hlZXQuMTI5NTwvdGl0bGU+JiN4YTsJCQk8ZyBpZD0ic2hhcGUxMjk2LTMiPiYjeGE7CQkJCTx0aXRsZSBpZD0idGl0bGUxODU1MjYiPlNoZWV0LjEyOTY8L3RpdGxlPiYjeGE7CQkJCTxwYXRoIGlkPSJwYXRoMTg1NTI4IiBpbmtzY2FwZTpjb25uZWN0b3ItY3VydmF0dXJlPSIwIiBzdHlsZT0iZmlsbDojNjk5RjYzOyIgZD0iTTkuODgsNzAuNjhjLTAuMywwLTAuNTktMC4wOC0wLjg2LTAuMjMgICAgICBMNi4zLDY4Ljg0Yy0wLjQxLTAuMjMtMC4yMS0wLjMxLTAuMDgtMC4zNmMwLjU1LTAuMTksMC42Ni0wLjIzLDEuMjQtMC41NmMwLjA2LTAuMDMsMC4xNC0wLjAyLDAuMiwwLjAybDIuMDksMS4yNCAgICAgIGMwLjA4LDAuMDQsMC4xOSwwLjA0LDAuMjYsMGw4LjE2LTQuNzFjMC4wOC0wLjA0LDAuMTMtMC4xMywwLjEzLTAuMjJ2LTkuNDNjMC0wLjA5LTAuMDUtMC4xOC0wLjEzLTAuMjJsLTguMTYtNC43MSAgICAgIGMtMC4wOC0wLjA1LTAuMTgtMC4wNS0wLjI1LDBMMS42LDU0LjZjLTAuMDgsMC4wNC0wLjEzLDAuMTMtMC4xMywwLjIydjkuNDNjMCwwLjA5LDAuMDUsMC4xNywwLjEyLDAuMjJsMi4yNCwxLjI5ICAgICAgYzEuMjIsMC42LDEuOTYtMC4xMSwxLjk2LTAuODN2LTkuM2MwLTAuMTMsMC4xLTAuMjQsMC4yNC0wLjI0aDEuMDNjMC4xMywwLDAuMjQsMC4xMSwwLjI0LDAuMjR2OS4zYzAsMS42Mi0wLjg4LDIuNTUtMi40MiwyLjU1ICAgICAgYy0wLjQ3LDAtMC44NCwwLTEuODgtMC41MWwtMi4xNC0xLjIzQzAuMzMsNjUuNDMsMCw2NC44NiwwLDY0LjI1di05LjQzYzAtMC42MSwwLjMzLTEuMTgsMC44Ni0xLjQ5bDguMTYtNC43MiAgICAgIGMwLjUyLTAuMjksMS4yMS0wLjI5LDEuNzIsMGw4LjE2LDQuNzJjMC41MywwLjMxLDAuODYsMC44OCwwLjg2LDEuNDl2OS40M2MwLDAuNjEtMC4zMywxLjE4LTAuODYsMS40OWwtOC4xNiw0LjcxICAgICAgQzEwLjQ4LDcwLjYsMTAuMTgsNzAuNjgsOS44OCw3MC42OHoiLz4mI3hhOwkJCTwvZz4mI3hhOwkJCTxnIGlkPSJzaGFwZTEyOTctNSIgdHJhbnNmb3JtPSJ0cmFuc2xhdGUoOC4wODE3NSwtNi40OTI1MykiPiYjeGE7CQkJCTx0aXRsZSBpZD0idGl0bGUxODU1MzEiPlNoZWV0LjEyOTc8L3RpdGxlPiYjeGE7CQkJCTxwYXRoIGlkPSJwYXRoMTg1NTMzIiBpbmtzY2FwZTpjb25uZWN0b3ItY3VydmF0dXJlPSIwIiBzdHlsZT0iZmlsbDojNjk5RjYzOyIgZD0iTTQuMzIsNzAuNjhDMC43NSw3MC42OCwwLDY5LjA0LDAsNjcuNjYgICAgICBjMC0wLjEzLDAuMTEtMC4yMywwLjI0LTAuMjNoMS4wNWMwLjEyLDAsMC4yMiwwLjA4LDAuMjQsMC4yYzAuMTYsMS4wNywwLjYzLDEuNjIsMi43OSwxLjYyYzEuNzIsMCwyLjQ2LTAuMzksMi40Ni0xLjMgICAgICBjMC0wLjUzLTAuMjEtMC45Mi0yLjg5LTEuMThjLTIuMjMtMC4yMy0zLjYxLTAuNzItMy42MS0yLjUxYzAtMS42NCwxLjM5LTIuNjMsMy43Mi0yLjYzYzIuNjEsMCwzLjkxLDAuOTEsNC4wNywyLjg2ICAgICAgYzAuMDEsMC4wNy0wLjAyLDAuMTMtMC4wNiwwLjE4Yy0wLjA1LDAuMDUtMC4xMSwwLjA4LTAuMTcsMC4wOEg2Ljc4Yy0wLjExLDAtMC4yMS0wLjA4LTAuMjMtMC4xOSAgICAgIEM2LjI5LDYzLjQzLDUuNjcsNjMuMDcsNCw2My4wN2MtMS44OCwwLTIuMSwwLjY2LTIuMSwxLjE1YzAsMC41OSwwLjI2LDAuNzYsMi43OSwxLjFjMi41MSwwLjMzLDMuNywwLjgsMy43LDIuNTYgICAgICBDOC4zOSw2OS42Niw2LjkxLDcwLjY4LDQuMzIsNzAuNjh6Ii8+JiN4YTsJCQk8L2c+JiN4YTsJCTwvZz4mI3hhOwkJPGcgaWQ9InNoYXBlMTI5OC03IiB0cmFuc2Zvcm09InRyYW5zbGF0ZSg1NS44NDQzLC0xNC44MDI2KSI+JiN4YTsJCQk8dGl0bGUgaWQ9InRpdGxlMTg1NTM3Ij5TaGVldC4xMjk4PC90aXRsZT4mI3hhOwkJCTxwYXRoIGlkPSJwYXRoMTg1NTM5IiBpbmtzY2FwZTpjb25uZWN0b3ItY3VydmF0dXJlPSIwIiBzdHlsZT0iZmlsbDojNjk5RjYzOyIgZD0iTTMuMTUsNjkuMTFjMCwwLjg2LTAuNzEsMS41Ny0xLjU4LDEuNTcgICAgIGMtMC44NSwwLTEuNTctMC43LTEuNTctMS41N2MwLTAuODksMC43My0xLjU4LDEuNTctMS41OEMyLjQyLDY3LjUzLDMuMTUsNjguMjIsMy4xNSw2OS4xMXogTTAuMjUsNjkuMSAgICAgYzAsMC43NCwwLjU5LDEuMzMsMS4zMiwxLjMzczEuMzItMC42MSwxLjMyLTEuMzNjMC0wLjczLTAuNi0xLjMxLTEuMzItMS4zMVMwLjI1LDY4LjM2LDAuMjUsNjkuMXogTTAuOTgsNjguMjJoMC42MSAgICAgYzAuMjEsMCwwLjYyLDAsMC42MiwwLjQ3YzAsMC4zMy0wLjIxLDAuMzktMC4zNCwwLjQzYzAuMjQsMC4wMiwwLjI2LDAuMTgsMC4yOSwwLjRjMC4wMiwwLjE1LDAuMDUsMC4zOSwwLjEsMC40N0gxLjg4ICAgICBjLTAuMDEtMC4wOC0wLjA2LTAuNTMtMC4wNi0wLjU2Yy0wLjAzLTAuMS0wLjA2LTAuMTUtMC4xOS0wLjE1SDEuMzJ2MC43MUgwLjk4VjY4LjIyeiBNMS4zMiw2OWgwLjI3YzAuMjMsMCwwLjI3LTAuMTYsMC4yNy0wLjI1ICAgICBjMC0wLjI0LTAuMTctMC4yNC0wLjI2LTAuMjRIMS4zMlY2OXoiLz4mI3hhOwkJPC9nPiYjeGE7CQk8ZyBpZD0ic2hhcGUxMjk5LTkiIHRyYW5zZm9ybT0idHJhbnNsYXRlKDAsLTIyLjkwNTgpIj4mI3hhOwkJCTx0aXRsZSBpZD0idGl0bGUxODU1NDIiPlNoZWV0LjEyOTk8L3RpdGxlPiYjeGE7CQkJPHBhdGggaWQ9InBhdGgxODU1NDQiIGlua3NjYXBlOmNvbm5lY3Rvci1jdXJ2YXR1cmU9IjAiIHN0eWxlPSJmaWxsOiMzRjU3NjU7IiBkPSJNMTkuNDEsNTYuNzJjMC0wLjM4LTAuMi0wLjczLTAuNTMtMC45MSAgICAgbC04LjY2LTQuOTljLTAuMTQtMC4wOC0wLjMxLTAuMTMtMC40Ny0wLjEzYy0wLjAyLDAtMC4wOCwwLTAuMDksMGMtMC4xNywwLTAuMzMsMC4wNS0wLjQ4LDAuMTNsLTguNjYsNC45OSAgICAgQzAuMiw1NS45OSwwLDU2LjM0LDAsNTYuNzJsMC4wMiwxMy40MWMwLDAuMTksMC4xLDAuMzYsMC4yNiwwLjQ1YzAuMTYsMC4xLDAuMzYsMC4xLDAuNTIsMGw1LjE0LTIuOTQgICAgIGMwLjMzLTAuMiwwLjUzLTAuNTQsMC41My0wLjkxdi02LjI3YzAtMC4zNywwLjItMC43MiwwLjUyLTAuOWwyLjE5LTEuMjdjMC4xNi0wLjA5LDAuMzQtMC4xNCwwLjUyLTAuMTQgICAgIGMwLjE4LDAsMC4zNywwLjA1LDAuNTIsMC4xNGwyLjIsMS4yN2MwLjMyLDAuMTgsMC41MiwwLjUzLDAuNTIsMC45djYuMjdjMCwwLjM3LDAuMiwwLjcyLDAuNTIsMC45MWw1LjE1LDIuOTQgICAgIGMwLjE2LDAuMSwwLjM2LDAuMSwwLjUyLDBjMC4xNi0wLjA5LDAuMjYtMC4yNiwwLjI2LTAuNDVMMTkuNDEsNTYuNzJ6Ii8+JiN4YTsJCTwvZz4mI3hhOwkJPGcgaWQ9InNoYXBlMTMwMC0xMSIgdHJhbnNmb3JtPSJ0cmFuc2xhdGUoNDcuMzM5OCwtMjAuNTA2MikiPiYjeGE7CQkJPHRpdGxlIGlkPSJ0aXRsZTE4NTU0NyI+U2hlZXQuMTMwMDwvdGl0bGU+JiN4YTsJCQk8cGF0aCBpZD0icGF0aDE4NTU0OSIgaW5rc2NhcGU6Y29ubmVjdG9yLWN1cnZhdHVyZT0iMCIgc3R5bGU9ImZpbGw6IzNGNTc2NTsiIGQ9Ik0xMy43MiwzNS44N2MtMC4xNi0wLjA5LTAuMzYtMC4wOS0wLjUyLDAuMDEgICAgIGMtMC4xNiwwLjA5LTAuMjUsMC4yNi0wLjI1LDAuNDV2MTMuMjljMCwwLjEzLTAuMDcsMC4yNS0wLjE5LDAuMzFjLTAuMTEsMC4wNy0wLjI1LDAuMDctMC4zNiwwbC0yLjE3LTEuMjUgICAgIGMtMC4zMi0wLjE4LTAuNzItMC4xOC0xLjA1LDBsLTguNjYsNUMwLjIsNTMuODcsMCw1NC4yMSwwLDU0LjU5djEwYzAsMC4zNywwLjIsMC43MSwwLjUyLDAuOWw4LjY2LDVjMC4zMywwLjE5LDAuNzMsMC4xOSwxLjA1LDAgICAgIGw4LjY2LTVjMC4zMy0wLjE5LDAuNTMtMC41MywwLjUzLTAuOVYzOS42NmMwLTAuMzgtMC4yMS0wLjczLTAuNTQtMC45MUwxMy43MiwzNS44N3ogTTEyLjkyLDYxLjNjMCwwLjA5LTAuMDUsMC4xOC0wLjEzLDAuMjMgICAgIGwtMi45NywxLjcxYy0wLjA4LDAuMDUtMC4xOSwwLjA1LTAuMjcsMGwtMi45Ny0xLjcxYy0wLjA4LTAuMDUtMC4xMy0wLjE0LTAuMTMtMC4yM3YtMy40M2MwLTAuMSwwLjA1LTAuMTgsMC4xMy0wLjIzbDIuOTctMS43MiAgICAgYzAuMDgtMC4wNCwwLjE4LTAuMDQsMC4yNywwbDIuOTcsMS43MmMwLjA4LDAuMDUsMC4xMywwLjEzLDAuMTMsMC4yM0wxMi45Miw2MS4zeiIvPiYjeGE7CQk8L2c+JiN4YTsJCTxnIGlkPSJncm91cDEzMDEtMTMiIHRyYW5zZm9ybT0idHJhbnNsYXRlKDcxLjA2OTcsLTIwLjc0MjQpIj4mI3hhOwkJCTx0aXRsZSBpZD0idGl0bGUxODU1NTIiPlNoZWV0LjEzMDE8L3RpdGxlPiYjeGE7CQkJPGcgaWQ9InNoYXBlMTMwMi0xNCI+JiN4YTsJCQkJPHRpdGxlIGlkPSJ0aXRsZTE4NTU1NCI+U2hlZXQuMTMwMjwvdGl0bGU+JiN4YTsJCQkJPHBhdGggaWQ9InBhdGgxODU1NTYiIGlua3NjYXBlOmNvbm5lY3Rvci1jdXJ2YXR1cmU9IjAiIHN0eWxlPSJmaWxsOiMzRjU3NjU7IiBkPSJNMTguODQsNTguMDFjMC4zMi0wLjE4LDAuNTItMC41MywwLjUyLTAuOSAgICAgIHYtMi40MmMwLTAuMzgtMC4yLTAuNzItMC41My0wLjkxbC04LjYtNC45OWMtMC4zMi0wLjE5LTAuNzItMC4xOS0xLjA1LDBsLTguNjYsNC45OUMwLjIsNTMuOTcsMCw1NC4zMiwwLDU0LjY5djEwICAgICAgYzAsMC4zNywwLjIsMC43MiwwLjUzLDAuOWw4LjYsNC45MWMwLjMyLDAuMTgsMC43MSwwLjE4LDEuMDMsMGw1LjItMi44OWMwLjE3LTAuMDksMC4yNy0wLjI3LDAuMjctMC40NSAgICAgIGMwLTAuMTktMC4xLTAuMzctMC4yNi0wLjQ2bC04LjcxLTVjLTAuMTctMC4xLTAuMjctMC4yNy0wLjI3LTAuNDZ2LTMuMTNjMC0wLjE5LDAuMS0wLjM2LDAuMjctMC40NWwyLjcxLTEuNTcgICAgICBjMC4xNi0wLjA5LDAuMzYtMC4wOSwwLjUyLDBsMi43MSwxLjU3YzAuMTYsMC4wOSwwLjI3LDAuMjYsMC4yNywwLjQ1djIuNDdjMCwwLjE4LDAuMSwwLjM2LDAuMjYsMC40NXMwLjM2LDAuMDksMC41MiwwICAgICAgTDE4Ljg0LDU4LjAxeiIvPiYjeGE7CQkJPC9nPiYjeGE7CQkJPGcgaWQ9InNoYXBlMTMwMy0xNiIgdHJhbnNmb3JtPSJ0cmFuc2xhdGUoNy44MTYxMywtOC45MTM2NikiPiYjeGE7CQkJCTx0aXRsZSBpZD0idGl0bGUxODU1NTkiPlNoZWV0LjEzMDM8L3RpdGxlPiYjeGE7CQkJCTxwYXRoIGlkPSJwYXRoMTg1NTYxIiBpbmtzY2FwZTpjb25uZWN0b3ItY3VydmF0dXJlPSIwIiBzdHlsZT0iZmlsbDojNjk5RjYzOyIgZD0iTTEuNzYsNjYuNDZjMC4wNi0wLjA0LDAuMTQtMC4wNCwwLjIsMCAgICAgIGwxLjY2LDAuOTZjMC4wNywwLjAzLDAuMSwwLjEsMC4xLDAuMTd2MS45MmMwLDAuMDctMC4wMywwLjE0LTAuMSwwLjE4bC0xLjY2LDAuOTVjLTAuMDYsMC4wNC0wLjE0LDAuMDQtMC4yLDBMMC4xLDY5LjY4ICAgICAgQzAuMDQsNjkuNjUsMCw2OS41OCwwLDY5LjUxdi0xLjkyYzAtMC4wNywwLjA0LTAuMTQsMC4xLTAuMTdMMS43Niw2Ni40NnoiLz4mI3hhOwkJCTwvZz4mI3hhOwkJPC9nPiYjeGE7CQk8ZyBpZD0iZ3JvdXAxMzA0LTE4IiB0cmFuc2Zvcm09InRyYW5zbGF0ZSgyMy43MjA4LC0yMC43MDc0KSI+JiN4YTsJCQk8dGl0bGUgaWQ9InRpdGxlMTg1NTY1Ij5TaGVldC4xMzA0PC90aXRsZT4mI3hhOwkJCTxnIGlkPSJzaGFwZTEzMDUtMTkiPiYjeGE7CQkJCTx0aXRsZSBpZD0idGl0bGUxODU1NjciPlhNTElEXzE0M188L3RpdGxlPiYjeGE7CQkJCSYjeGE7CQkJCQk8bGluZWFyR3JhZGllbnQgaWQ9InBhdGgxODU1NjlfMV8iIGdyYWRpZW50VW5pdHM9InVzZXJTcGFjZU9uVXNlIiB4MT0iLTYuMzE4NSIgeTE9IjYxLjExOTciIHgyPSIxNC4yNzMzIiB5Mj0iNjEuMTE5NyIgZ3JhZGllbnRUcmFuc2Zvcm09Im1hdHJpeCgwLjkzNzMgMCAwIC0xLjA2NjkgNS45MjIzIDEyNC44NjA1KSI+JiN4YTsJCQkJCTxzdG9wIG9mZnNldD0iMCIgc3R5bGU9InN0b3AtY29sb3I6IzQxODczRiIvPiYjeGE7CQkJCQk8c3RvcCBvZmZzZXQ9IjAuMzMiIHN0eWxlPSJzdG9wLWNvbG9yOiM0MThCM0QiLz4mI3hhOwkJCQkJPHN0b3Agb2Zmc2V0PSIwLjYzNSIgc3R5bGU9InN0b3AtY29sb3I6IzQxOTYzNyIvPiYjeGE7CQkJCQk8c3RvcCBvZmZzZXQ9IjAuOTMiIHN0eWxlPSJzdG9wLWNvbG9yOiMzRkE5MkQiLz4mI3hhOwkJCQkJPHN0b3Agb2Zmc2V0PSIxIiBzdHlsZT0ic3RvcC1jb2xvcjojM0ZBRTJBIi8+JiN4YTsJCQkJPC9saW5lYXJHcmFkaWVudD4mI3hhOwkJCQk8cGF0aCBpZD0icGF0aDE4NTU2OSIgaW5rc2NhcGU6Y29ubmVjdG9yLWN1cnZhdHVyZT0iMCIgc3R5bGU9ImZpbGw6dXJsKCNwYXRoMTg1NTY5XzFfKTsiIGQ9Ik0xMC4xNyw0OC44ICAgICAgYy0wLjMyLTAuMTgtMC43MS0wLjE4LTEuMDQsMGwtOC42MSw0Ljk3QzAuMiw1My45NiwwLDU0LjMsMCw1NC42N3Y5Ljk1YzAsMC4zNywwLjIsMC43MSwwLjUyLDAuOWw4LjYxLDQuOTggICAgICBjMC4zMywwLjE4LDAuNzIsMC4xOCwxLjA0LDBsOC42MS00Ljk4YzAuMzMtMC4xOSwwLjUyLTAuNTMsMC41Mi0wLjl2LTkuOTVjMC0wLjM3LTAuMTktMC43MS0wLjUyLTAuOUwxMC4xNyw0OC44eiIvPiYjeGE7CQkJPC9nPiYjeGE7CQkJPGcgaWQ9Imdyb3VwMTMwNi0yMyIgdHJhbnNmb3JtPSJ0cmFuc2xhdGUoMC4wMTU4MjQ0LC0wLjAxMTMwMzEpIj4mI3hhOwkJCQk8dGl0bGUgaWQ9InRpdGxlMTg1NTcyIj5TaGVldC4xMzA2PC90aXRsZT4mI3hhOwkJCQk8ZyBpZD0ic2hhcGUxMzA3LTI0IiB0cmFuc2Zvcm09InRyYW5zbGF0ZSgwLC01LjM4NzA4KSI+JiN4YTsJCQkJCTx0aXRsZSBpZD0idGl0bGUxODU1NzQiPlNoZWV0LjEzMDc8L3RpdGxlPiYjeGE7CQkJCQk8cGF0aCBpZD0icGF0aDE4NTU3NiIgaW5rc2NhcGU6Y29ubmVjdG9yLWN1cnZhdHVyZT0iMCIgc3R5bGU9ImZpbGw6bm9uZTsiIGQ9Ik05LjEsNTQuMmwtOC41OSw0Ljk3QzAuMTksNTkuMzYsMCw1OS43LDAsNjAuMDcgICAgICAgdjkuOTVjMCwwLjI0LDAuMDYsMC40OCwwLjIyLDAuNjZMOS45LDU0LjA5QzkuNjQsNTQuMDMsOS4zNCw1NC4wNiw5LjEsNTQuMnoiLz4mI3hhOwkJCQk8L2c+JiN4YTsJCQkJPGcgaWQ9InNoYXBlMTMwOC0yNiIgdHJhbnNmb3JtPSJ0cmFuc2xhdGUoOS45MjY0MiwtMC4wNzM0NzA1KSI+JiN4YTsJCQkJCTx0aXRsZSBpZD0idGl0bGUxODU1NzkiPlNoZWV0LjEzMDg8L3RpdGxlPiYjeGE7CQkJCQk8cGF0aCBpZD0icGF0aDE4NTU4MSIgaW5rc2NhcGU6Y29ubmVjdG9yLWN1cnZhdHVyZT0iMCIgc3R5bGU9ImZpbGw6bm9uZTsiIGQ9Ik0wLDcwLjY4YzAuMDgtMC4wMiwwLjE3LTAuMDYsMC4yNC0wLjEgICAgICAgbDkuMTMtNC45N2MwLjMyLTAuMTksMS4wNS0wLjUzLDEuMDUtMC45MXYtOS45NGMwLTAuMjgtMC42My0wLjUzLTAuODItMC43M0wwLDcwLjY4eiIvPiYjeGE7CQkJCTwvZz4mI3hhOwkJCQk8ZyBpZD0ic2hhcGUxMzA5LTI4IiB0cmFuc2Zvcm09InRyYW5zbGF0ZSgwLjE4MDg1KSI+JiN4YTsJCQkJCTx0aXRsZSBpZD0idGl0bGUxODU1ODQiPlNoZWV0LjEzMDk8L3RpdGxlPiYjeGE7CQkJCQkmI3hhOwkJCQkJCTxsaW5lYXJHcmFkaWVudCBpZD0icGF0aDE4NTU4Nl8xXyIgZ3JhZGllbnRVbml0cz0idXNlclNwYWNlT25Vc2UiIHgxPSItMy4zMDAzIiB5MT0iNjUuNjkwNyIgeDI9IjE3LjAzMzYiIHkyPSI2NS42OTA3IiBncmFkaWVudFRyYW5zZm9ybT0ibWF0cml4KDAuOTI2NSAwIDAgLTEuMDc5MyAzLjA1OCAxMzAuNTcyOSkiPiYjeGE7CQkJCQkJPHN0b3Agb2Zmc2V0PSIwLjE0IiBzdHlsZT0ic3RvcC1jb2xvcjojNDE4NzNGIi8+JiN4YTsJCQkJCQk8c3RvcCBvZmZzZXQ9IjAuNDA1IiBzdHlsZT0ic3RvcC1jb2xvcjojNTRBMDQ0Ii8+JiN4YTsJCQkJCQk8c3RvcCBvZmZzZXQ9IjAuNzE1IiBzdHlsZT0ic3RvcC1jb2xvcjojNjZCODQ4Ii8+JiN4YTsJCQkJCQk8c3RvcCBvZmZzZXQ9IjAuOTEiIHN0eWxlPSJzdG9wLWNvbG9yOiM2Q0MwNEEiLz4mI3hhOwkJCQkJPC9saW5lYXJHcmFkaWVudD4mI3hhOwkJCQkJPHBhdGggaWQ9InBhdGgxODU1ODYiIGlua3NjYXBlOmNvbm5lY3Rvci1jdXJ2YXR1cmU9IjAiIHN0eWxlPSJmaWxsOnVybCgjcGF0aDE4NTU4Nl8xXyk7IiBkPSJNMTguNiw1My43OGwtOC42My00Ljk3ICAgICAgIGMtMC4wOS0wLjA1LTAuMTgtMC4wOC0wLjI3LTAuMTFMMCw2NS4yOWMwLjA4LDAuMSwwLjE4LDAuMTgsMC4yOSwwLjI0bDguNjUsNC45OGMwLjI1LDAuMTQsMC41NCwwLjE3LDAuODEsMC4xbDkuMDktMTYuNjUgICAgICAgQzE4Ljc3LDUzLjg5LDE4LjY5LDUzLjgzLDE4LjYsNTMuNzh6Ii8+JiN4YTsJCQkJPC9nPiYjeGE7CQkJPC9nPiYjeGE7CQkJPGcgaWQ9Imdyb3VwMTMxMC0zMiI+JiN4YTsJCQkJPHRpdGxlIGlkPSJ0aXRsZTE4NTU5MCI+U2hlZXQuMTMxMDwvdGl0bGU+JiN4YTsJCQk8L2c+JiN4YTsJCTwvZz4mI3hhOwk8L2c+JiN4YTs8L2c+JiN4YTs8L3N2Zz4=;strokeColor=#000000;strokeWidth=4;fillColor=#ffffff;fontSize=21;" parent="DR9EEMrPSlY4ckPwdUAX-1" vertex="1">
                    <mxGeometry x="778.6999999999999" y="265.59000000000003" width="112.61" height="68.82" as="geometry"/>
                </mxCell>
                <mxCell id="HXRdfkEdL7Hh1PPMHjU6-11" value="" style="rounded=1;whiteSpace=wrap;html=1;strokeWidth=4;fillColor=#dae8fc;strokeColor=#6c8ebf;" parent="DR9EEMrPSlY4ckPwdUAX-1" vertex="1">
                    <mxGeometry x="410" y="80" width="290" height="490" as="geometry"/>
                </mxCell>
                <mxCell id="HXRdfkEdL7Hh1PPMHjU6-34" style="edgeStyle=orthogonalEdgeStyle;rounded=1;orthogonalLoop=1;jettySize=auto;html=1;dashed=1;strokeColor=#000000;strokeWidth=3;fontSize=21;fontColor=#FFFFFF;entryX=-0.004;entryY=0.233;entryDx=0;entryDy=0;entryPerimeter=0;" parent="DR9EEMrPSlY4ckPwdUAX-1" source="HXRdfkEdL7Hh1PPMHjU6-12" target="HXRdfkEdL7Hh1PPMHjU6-6" edge="1">
                    <mxGeometry relative="1" as="geometry">
                        <mxPoint x="740" y="270" as="targetPoint"/>
                        <Array as="points">
                            <mxPoint x="720" y="170"/>
                            <mxPoint x="720" y="271"/>
                        </Array>
                    </mxGeometry>
                </mxCell>
                <mxCell id="HXRdfkEdL7Hh1PPMHjU6-12" value="&lt;b&gt;&lt;font style=&quot;font-size: 15px&quot;&gt;Instance 1&lt;/font&gt;&lt;/b&gt;" style="rounded=1;whiteSpace=wrap;html=1;strokeWidth=4;strokeColor=#82b366;fillColor=#FFE599;" parent="DR9EEMrPSlY4ckPwdUAX-1" vertex="1">
                    <mxGeometry x="580" y="140" width="110" height="60" as="geometry"/>
                </mxCell>
                <mxCell id="HXRdfkEdL7Hh1PPMHjU6-31" style="edgeStyle=orthogonalEdgeStyle;rounded=1;orthogonalLoop=1;jettySize=auto;html=1;dashed=1;strokeColor=#000000;strokeWidth=3;fontSize=21;fontColor=#FFFFFF;" parent="DR9EEMrPSlY4ckPwdUAX-1" edge="1">
                    <mxGeometry relative="1" as="geometry">
                        <mxPoint x="654" y="240" as="sourcePoint"/>
                        <mxPoint x="760" y="292" as="targetPoint"/>
                        <Array as="points">
                            <mxPoint x="720" y="240"/>
                            <mxPoint x="720" y="292"/>
                        </Array>
                    </mxGeometry>
                </mxCell>
                <mxCell id="HXRdfkEdL7Hh1PPMHjU6-13" value="&lt;b&gt;&lt;font style=&quot;font-size: 15px&quot;&gt;Instance 2&lt;/font&gt;&lt;/b&gt;" style="rounded=1;whiteSpace=wrap;html=1;strokeWidth=4;strokeColor=#82b366;fillColor=#FFE599;" parent="DR9EEMrPSlY4ckPwdUAX-1" vertex="1">
                    <mxGeometry x="580" y="210" width="110" height="60" as="geometry"/>
                </mxCell>
                <mxCell id="HXRdfkEdL7Hh1PPMHjU6-16" style="edgeStyle=orthogonalEdgeStyle;rounded=1;orthogonalLoop=1;jettySize=auto;html=1;entryX=0.5;entryY=0;entryDx=0;entryDy=0;strokeWidth=3;fontSize=21;fontColor=#FFFFFF;dashed=1;" parent="DR9EEMrPSlY4ckPwdUAX-1" source="HXRdfkEdL7Hh1PPMHjU6-14" target="HXRdfkEdL7Hh1PPMHjU6-15" edge="1">
                    <mxGeometry relative="1" as="geometry"/>
                </mxCell>
                <mxCell id="HXRdfkEdL7Hh1PPMHjU6-30" style="edgeStyle=orthogonalEdgeStyle;rounded=1;orthogonalLoop=1;jettySize=auto;html=1;dashed=1;strokeColor=#000000;strokeWidth=3;fontSize=21;fontColor=#FFFFFF;" parent="DR9EEMrPSlY4ckPwdUAX-1" source="HXRdfkEdL7Hh1PPMHjU6-14" edge="1">
                    <mxGeometry relative="1" as="geometry">
                        <mxPoint x="759" y="310" as="targetPoint"/>
                    </mxGeometry>
                </mxCell>
                <mxCell id="HXRdfkEdL7Hh1PPMHjU6-14" value="&lt;b&gt;&lt;font style=&quot;font-size: 15px&quot;&gt;Instance 3&lt;/font&gt;&lt;/b&gt;" style="rounded=1;whiteSpace=wrap;html=1;strokeWidth=4;strokeColor=#82b366;fillColor=#FFE599;" parent="DR9EEMrPSlY4ckPwdUAX-1" vertex="1">
                    <mxGeometry x="580" y="280" width="110" height="60" as="geometry"/>
                </mxCell>
                <mxCell id="HXRdfkEdL7Hh1PPMHjU6-29" style="edgeStyle=orthogonalEdgeStyle;rounded=1;orthogonalLoop=1;jettySize=auto;html=1;dashed=1;strokeColor=#000000;strokeWidth=3;fontSize=21;fontColor=#FFFFFF;entryX=0;entryY=0.781;entryDx=0;entryDy=0;entryPerimeter=0;" parent="DR9EEMrPSlY4ckPwdUAX-1" source="HXRdfkEdL7Hh1PPMHjU6-15" target="HXRdfkEdL7Hh1PPMHjU6-6" edge="1">
                    <mxGeometry relative="1" as="geometry">
                        <mxPoint x="760" y="318" as="targetPoint"/>
                        <Array as="points">
                            <mxPoint x="720" y="520"/>
                            <mxPoint x="720" y="331"/>
                        </Array>
                    </mxGeometry>
                </mxCell>
                <mxCell id="HXRdfkEdL7Hh1PPMHjU6-15" value="&lt;b&gt;&lt;font style=&quot;font-size: 15px&quot;&gt;Instance N&lt;/font&gt;&lt;/b&gt;" style="rounded=1;whiteSpace=wrap;html=1;strokeWidth=4;strokeColor=#82b366;fillColor=#FFE599;" parent="DR9EEMrPSlY4ckPwdUAX-1" vertex="1">
                    <mxGeometry x="580" y="490" width="110" height="60" as="geometry"/>
                </mxCell>
                <mxCell id="HXRdfkEdL7Hh1PPMHjU6-18" value="PM2 Cluster" style="text;html=1;align=center;verticalAlign=middle;resizable=0;points=[];autosize=1;fontSize=21;fontStyle=1" parent="DR9EEMrPSlY4ckPwdUAX-1" vertex="1">
                    <mxGeometry x="480" y="90" width="140" height="30" as="geometry"/>
                </mxCell>
                <mxCell id="HXRdfkEdL7Hh1PPMHjU6-42" style="edgeStyle=orthogonalEdgeStyle;rounded=1;orthogonalLoop=1;jettySize=auto;html=1;exitX=1;exitY=0.5;exitDx=0;exitDy=0;entryX=0;entryY=0.5;entryDx=0;entryDy=0;strokeWidth=3;fontSize=21;fontColor=#FFFFFF;" parent="DR9EEMrPSlY4ckPwdUAX-1" source="HXRdfkEdL7Hh1PPMHjU6-41" target="HXRdfkEdL7Hh1PPMHjU6-15" edge="1">
                    <mxGeometry relative="1" as="geometry"/>
                </mxCell>
                <mxCell id="HXRdfkEdL7Hh1PPMHjU6-43" style="edgeStyle=orthogonalEdgeStyle;rounded=1;orthogonalLoop=1;jettySize=auto;html=1;exitX=1;exitY=0.5;exitDx=0;exitDy=0;entryX=0.012;entryY=0.573;entryDx=0;entryDy=0;entryPerimeter=0;strokeColor=#000000;strokeWidth=3;fontSize=21;fontColor=#FFFFFF;" parent="DR9EEMrPSlY4ckPwdUAX-1" source="HXRdfkEdL7Hh1PPMHjU6-41" target="HXRdfkEdL7Hh1PPMHjU6-14" edge="1">
                    <mxGeometry relative="1" as="geometry"/>
                </mxCell>
                <mxCell id="HXRdfkEdL7Hh1PPMHjU6-45" style="edgeStyle=orthogonalEdgeStyle;rounded=1;orthogonalLoop=1;jettySize=auto;html=1;exitX=1;exitY=0.5;exitDx=0;exitDy=0;entryX=0;entryY=0.5;entryDx=0;entryDy=0;strokeColor=#000000;strokeWidth=3;fontSize=21;fontColor=#FFFFFF;" parent="DR9EEMrPSlY4ckPwdUAX-1" source="HXRdfkEdL7Hh1PPMHjU6-41" target="HXRdfkEdL7Hh1PPMHjU6-13" edge="1">
                    <mxGeometry relative="1" as="geometry"/>
                </mxCell>
                <mxCell id="HXRdfkEdL7Hh1PPMHjU6-46" style="edgeStyle=orthogonalEdgeStyle;rounded=1;orthogonalLoop=1;jettySize=auto;html=1;exitX=1;exitY=0.5;exitDx=0;exitDy=0;entryX=0;entryY=0.5;entryDx=0;entryDy=0;strokeColor=#000000;strokeWidth=3;fontSize=21;fontColor=#FFFFFF;" parent="DR9EEMrPSlY4ckPwdUAX-1" source="HXRdfkEdL7Hh1PPMHjU6-41" target="HXRdfkEdL7Hh1PPMHjU6-12" edge="1">
                    <mxGeometry relative="1" as="geometry"/>
                </mxCell>
                <mxCell id="HXRdfkEdL7Hh1PPMHjU6-41" value="&lt;font color=&quot;#000000&quot;&gt;PM2 built-in Load Balancer&lt;/font&gt;" style="whiteSpace=wrap;html=1;rounded=1;strokeColor=#000000;strokeWidth=4;fillColor=#FFE599;fontSize=21;fontColor=#FFFFFF;" parent="DR9EEMrPSlY4ckPwdUAX-1" vertex="1">
                    <mxGeometry x="420" y="210" width="120" height="210" as="geometry"/>
                </mxCell>
                <mxCell id="HXRdfkEdL7Hh1PPMHjU6-51" value="" style="shape=image;verticalLabelPosition=bottom;labelBackgroundColor=#ffffff;verticalAlign=top;aspect=fixed;imageAspect=0;image=data:image/svg+xml,PHN2ZyB4bWxuczpjYz0iaHR0cDovL2NyZWF0aXZlY29tbW9ucy5vcmcvbnMjIiB4bWxuczpkYz0iaHR0cDovL3B1cmwub3JnL2RjL2VsZW1lbnRzLzEuMS8iIHhtbG5zOmlua3NjYXBlPSJodHRwOi8vd3d3Lmlua3NjYXBlLm9yZy9uYW1lc3BhY2VzL2lua3NjYXBlIiB4bWxuczpyZGY9Imh0dHA6Ly93d3cudzMub3JnLzE5OTkvMDIvMjItcmRmLXN5bnRheC1ucyMiIHhtbG5zOnNvZGlwb2RpPSJodHRwOi8vc29kaXBvZGkuc291cmNlZm9yZ2UubmV0L0RURC9zb2RpcG9kaS0wLmR0ZCIgeG1sbnM6c3ZnPSJodHRwOi8vd3d3LnczLm9yZy8yMDAwL3N2ZyIgeG1sbnM9Imh0dHA6Ly93d3cudzMub3JnLzIwMDAvc3ZnIiB4bWxuczp4bGluaz0iaHR0cDovL3d3dy53My5vcmcvMTk5OS94bGluayIgdmVyc2lvbj0iMS4xIiBpZD0ic3ZnMTc1NjcxIiBpbmtzY2FwZTp2ZXJzaW9uPSIwLjkyLjMgKDI0MDU1NDYsIDIwMTgtMDMtMTEpIiBzb2RpcG9kaTpkb2NuYW1lPSJnaXRodWIuc3ZnIiB4PSIwcHgiIHk9IjBweCIgdmlld0JveD0iMCAwIDQ1LjI3IDQ1LjI5IiBzdHlsZT0iZW5hYmxlLWJhY2tncm91bmQ6bmV3IDAgMCA0NS4yNyA0NS4yOTsiIHhtbDpzcGFjZT0icHJlc2VydmUiPiYjeGE7PHNvZGlwb2RpOm5hbWVkdmlldyBib3JkZXJjb2xvcj0iIzY2NjY2NiIgYm9yZGVyb3BhY2l0eT0iMSIgZml0LW1hcmdpbi1ib3R0b209IjAiIGZpdC1tYXJnaW4tbGVmdD0iMCIgZml0LW1hcmdpbi1yaWdodD0iMCIgZml0LW1hcmdpbi10b3A9IjAiIGdyaWR0b2xlcmFuY2U9IjEwIiBndWlkZXRvbGVyYW5jZT0iMTAiIGlkPSJuYW1lZHZpZXcxNzU2NzMiIGlua3NjYXBlOmN1cnJlbnQtbGF5ZXI9InN2ZzE3NTY3MSIgaW5rc2NhcGU6Y3g9IjMwLjE3ODAyNSIgaW5rc2NhcGU6Y3k9IjMwLjE5NDMxOSIgaW5rc2NhcGU6cGFnZW9wYWNpdHk9IjAiIGlua3NjYXBlOnBhZ2VzaGFkb3c9IjIiIGlua3NjYXBlOndpbmRvdy1oZWlnaHQ9IjEwMTciIGlua3NjYXBlOndpbmRvdy1tYXhpbWl6ZWQ9IjEiIGlua3NjYXBlOndpbmRvdy13aWR0aD0iMTkyMCIgaW5rc2NhcGU6d2luZG93LXg9Ii04IiBpbmtzY2FwZTp3aW5kb3cteT0iLTgiIGlua3NjYXBlOnpvb209IjEwLjA5NTE1OCIgb2JqZWN0dG9sZXJhbmNlPSIxMCIgcGFnZWNvbG9yPSIjZmZmZmZmIiBzaG93Z3JpZD0iZmFsc2UiPiYjeGE7CTwvc29kaXBvZGk6bmFtZWR2aWV3PiYjeGE7PGcgaWQ9ImcxNzU2NjkiIHRyYW5zZm9ybT0idHJhbnNsYXRlKC05LjU2MjU0MTcsLTkuNTYxMzEpIj4mI3hhOwk8dGl0bGUgaWQ9InRpdGxlMTc1NjU5Ij5QYWdlLTE8L3RpdGxlPiYjeGE7CTxnIGlkPSJncm91cDIyNTAtMSIgdHJhbnNmb3JtPSJ0cmFuc2xhdGUoOS41NjMwOCwtOS4zNzg2OSkiPiYjeGE7CQk8dGl0bGUgaWQ9InRpdGxlMTc1NjYxIj5HaXRIdWI8L3RpdGxlPiYjeGE7CQk8ZyBpZD0ic2hhcGUyMjUxLTIiPiYjeGE7CQkJPHRpdGxlIGlkPSJ0aXRsZTE3NTY2MyI+U2hlZXQuMjI1MTwvdGl0bGU+JiN4YTsJCQk8cGF0aCBpZD0icGF0aDE3NTY2NSIgaW5rc2NhcGU6Y29ubmVjdG9yLWN1cnZhdHVyZT0iMCIgZD0iTTIyLjYzLDE4Ljk0QzEwLjE0LDE4Ljk0LDAsMjkuMzMsMCw0Mi4xNSAgICAgYy0wLjA3LDkuODksNi4xNSwxOC43MywxNS40OCwyMi4wMWMxLjEzLDAuMjIsMS41NC0wLjUsMS41NC0xLjExYzAtMC42MiwwLTIuMDEsMC0zLjk1Yy02LjI5LDEuNDEtNy42Mi0zLjExLTcuNjItMy4xMSAgICAgYy0xLjAzLTIuNjgtMi41MS0zLjQtMi41MS0zLjRjLTIuMDYtMS40MSwwLjE1LTEuNDEsMC4xNS0xLjQxYzIuMjcsMC4xNiwzLjQ3LDIuMzksMy40NywyLjM5YzIuMDIsMy41NCw1LjMsMi41Miw2LjU4LDEuOTMgICAgIGMwLjEtMS4xNywwLjYtMi4yNiwxLjQyLTMuMUMxMy40OCw1MS44MSw4LjIsNDkuODIsOC4yLDQwLjkyYy0wLjA0LTIuMjksMC43OS00LjUxLDIuMzItNi4yMmMtMC42OS0yLTAuNjEtNC4xOSwwLjIyLTYuMTQgICAgIGMwLDAsMS45MS0wLjYyLDYuMjMsMi40YzMuNy0xLjA0LDcuNjItMS4wNCwxMS4zMiwwYzQuMzItMyw2LjIyLTIuMzcsNi4yMi0yLjM3YzAuODMsMS45NSwwLjkxLDQuMTQsMC4yMiw2LjE0ICAgICBjMS41MywxLjcsMi4zNywzLjkzLDIuMzMsNi4yMmMwLDguOTEtNS4yOSwxMC44OC0xMC4zMywxMS40NWMwLjgxLDAuNzEsMS41MywyLjEyLDEuNTMsNC4zYzAsMy4xMSwwLDUuNjEsMCw2LjM3ICAgICBjMCwwLjYyLDAuNDEsMS4zNCwxLjU2LDEuMTJjOS4zMy0zLjMsMTUuNTMtMTIuMTUsMTUuNDUtMjIuMDRDNDUuMjcsMjkuMzMsMzUuMTMsMTguOTQsMjIuNjMsMTguOTR6Ii8+JiN4YTsJCTwvZz4mI3hhOwk8L2c+JiN4YTs8L2c+JiN4YTs8L3N2Zz4=;rounded=1;strokeColor=#000000;strokeWidth=4;fillColor=#FFE599;fontSize=21;fontColor=#FFFFFF;" parent="DR9EEMrPSlY4ckPwdUAX-1" vertex="1">
                    <mxGeometry x="1817.5" y="-282.5" width="102.5" height="102.5" as="geometry"/>
                </mxCell>
                <mxCell id="HXRdfkEdL7Hh1PPMHjU6-52" value="" style="aspect=fixed;perimeter=ellipsePerimeter;html=1;align=center;shadow=0;dashed=0;fontColor=#4277BB;labelBackgroundColor=#ffffff;fontSize=12;spacingTop=3;image;image=img/lib/ibm/devops/continuous_deploy.svg;rounded=1;strokeColor=#000000;strokeWidth=4;fillColor=#FFE599;" parent="DR9EEMrPSlY4ckPwdUAX-1" vertex="1">
                    <mxGeometry x="996.58" y="-33" width="70" height="70" as="geometry"/>
                </mxCell>
                <mxCell id="HXRdfkEdL7Hh1PPMHjU6-57" value="Adds-on" style="text;html=1;align=center;verticalAlign=middle;resizable=0;points=[];autosize=1;fontSize=25;fontStyle=1" parent="DR9EEMrPSlY4ckPwdUAX-1" vertex="1">
                    <mxGeometry x="967.5" y="480" width="120" height="40" as="geometry"/>
                </mxCell>
                <mxCell id="HXRdfkEdL7Hh1PPMHjU6-58" value="Heroku Enviroment" style="text;html=1;align=center;verticalAlign=middle;resizable=0;points=[];autosize=1;fontSize=30;fontStyle=1" parent="DR9EEMrPSlY4ckPwdUAX-1" vertex="1">
                    <mxGeometry x="610" y="-220" width="290" height="40" as="geometry"/>
                </mxCell>
                <mxCell id="HXRdfkEdL7Hh1PPMHjU6-74" style="edgeStyle=orthogonalEdgeStyle;rounded=1;orthogonalLoop=1;jettySize=auto;html=1;exitX=0.5;exitY=1;exitDx=0;exitDy=0;entryX=0.5;entryY=0;entryDx=0;entryDy=0;strokeColor=#82b366;strokeWidth=3;fontSize=20;fontColor=#FFFFFF;fillColor=#d5e8d4;gradientColor=#97d077;" parent="DR9EEMrPSlY4ckPwdUAX-1" source="HXRdfkEdL7Hh1PPMHjU6-59" target="HXRdfkEdL7Hh1PPMHjU6-6" edge="1">
                    <mxGeometry relative="1" as="geometry">
                        <Array as="points">
                            <mxPoint x="645" y="40"/>
                            <mxPoint x="835" y="40"/>
                        </Array>
                    </mxGeometry>
                </mxCell>
                <mxCell id="HXRdfkEdL7Hh1PPMHjU6-120" style="edgeStyle=orthogonalEdgeStyle;rounded=1;orthogonalLoop=1;jettySize=auto;html=1;strokeColor=#FFFFFF;strokeWidth=3;fontSize=20;fontColor=#FFFFFF;exitX=-0.003;exitY=0.386;exitDx=0;exitDy=0;exitPerimeter=0;" parent="DR9EEMrPSlY4ckPwdUAX-1" source="rqf0iKj-WmwOmlQ5HG-t-1" target="HXRdfkEdL7Hh1PPMHjU6-59" edge="1">
                    <mxGeometry relative="1" as="geometry">
                        <mxPoint x="1230" y="-65" as="sourcePoint"/>
                        <Array as="points"/>
                    </mxGeometry>
                </mxCell>
                <mxCell id="HXRdfkEdL7Hh1PPMHjU6-59" value="" style="rounded=1;whiteSpace=wrap;html=1;strokeWidth=4;fillColor=#CCFFFF;strokeColor=#85F3FF;" parent="DR9EEMrPSlY4ckPwdUAX-1" vertex="1">
                    <mxGeometry x="380" y="-160" width="530" height="190" as="geometry"/>
                </mxCell>
                <mxCell id="HXRdfkEdL7Hh1PPMHjU6-60" value="Build Process" style="text;html=1;align=center;verticalAlign=middle;resizable=0;points=[];autosize=1;fontSize=30;fontStyle=1" parent="DR9EEMrPSlY4ckPwdUAX-1" vertex="1">
                    <mxGeometry x="535" y="-150" width="220" height="40" as="geometry"/>
                </mxCell>
                <mxCell id="HXRdfkEdL7Hh1PPMHjU6-64" value="" style="rounded=1;whiteSpace=wrap;html=1;strokeWidth=4;strokeColor=#82b366;fillColor=#d5e8d4;" parent="DR9EEMrPSlY4ckPwdUAX-1" vertex="1">
                    <mxGeometry x="968.42" y="320" width="125" height="140" as="geometry"/>
                </mxCell>
                <mxCell id="HXRdfkEdL7Hh1PPMHjU6-65" value="Log" style="text;html=1;align=center;verticalAlign=middle;resizable=0;points=[];autosize=1;fontSize=17;fontStyle=1" parent="DR9EEMrPSlY4ckPwdUAX-1" vertex="1">
                    <mxGeometry x="1005.92" y="334.40999999999997" width="50" height="30" as="geometry"/>
                </mxCell>
                <mxCell id="HXRdfkEdL7Hh1PPMHjU6-66" value="Log" style="html=1;strokeColor=none;fillColor=#0079D6;labelPosition=center;verticalLabelPosition=middle;verticalAlign=top;align=center;fontSize=12;outlineConnect=0;spacingTop=-6;fontColor=#FFFFFF;shape=mxgraph.sitemap.log;rounded=1;" parent="DR9EEMrPSlY4ckPwdUAX-1" vertex="1">
                    <mxGeometry x="980" y="370" width="100" height="70" as="geometry"/>
                </mxCell>
                <mxCell id="HXRdfkEdL7Hh1PPMHjU6-67" style="edgeStyle=orthogonalEdgeStyle;rounded=1;orthogonalLoop=1;jettySize=auto;html=1;entryX=0;entryY=0.5;entryDx=0;entryDy=0;entryPerimeter=0;strokeWidth=3;fontSize=25;fontColor=#FFFFFF;strokeColor=#FFFFFF;" parent="DR9EEMrPSlY4ckPwdUAX-1" target="HXRdfkEdL7Hh1PPMHjU6-66" edge="1">
                    <mxGeometry relative="1" as="geometry">
                        <mxPoint x="910" y="300" as="sourcePoint"/>
                        <Array as="points">
                            <mxPoint x="950" y="300"/>
                            <mxPoint x="950" y="405"/>
                        </Array>
                    </mxGeometry>
                </mxCell>
                <mxCell id="HXRdfkEdL7Hh1PPMHjU6-70" value="Prune dependecies" style="text;html=1;align=center;verticalAlign=middle;resizable=0;points=[];autosize=1;fontSize=20;fontStyle=1" parent="DR9EEMrPSlY4ckPwdUAX-1" vertex="1">
                    <mxGeometry x="550" y="-9" width="200" height="30" as="geometry"/>
                </mxCell>
                <mxCell id="HXRdfkEdL7Hh1PPMHjU6-71" value="Create destination folder with FE and BE build result&amp;nbsp;" style="text;html=1;align=center;verticalAlign=middle;resizable=0;points=[];autosize=1;fontSize=20;fontStyle=1" parent="DR9EEMrPSlY4ckPwdUAX-1" vertex="1">
                    <mxGeometry x="395" y="-39" width="520" height="30" as="geometry"/>
                </mxCell>
                <mxCell id="HXRdfkEdL7Hh1PPMHjU6-72" value="Transpile server from TS to JS" style="text;html=1;align=center;verticalAlign=middle;resizable=0;points=[];autosize=1;fontSize=20;fontStyle=1" parent="DR9EEMrPSlY4ckPwdUAX-1" vertex="1">
                    <mxGeometry x="500" y="-69" width="300" height="30" as="geometry"/>
                </mxCell>
                <mxCell id="HXRdfkEdL7Hh1PPMHjU6-73" value="Build React App" style="text;html=1;align=center;verticalAlign=middle;resizable=0;points=[];autosize=1;fontSize=20;fontStyle=1" parent="DR9EEMrPSlY4ckPwdUAX-1" vertex="1">
                    <mxGeometry x="565" y="-99" width="170" height="30" as="geometry"/>
                </mxCell>
                <mxCell id="HXRdfkEdL7Hh1PPMHjU6-48" value="Web dyno" style="text;html=1;align=center;verticalAlign=middle;resizable=0;points=[];autosize=1;fontSize=30;fontStyle=1" parent="DR9EEMrPSlY4ckPwdUAX-1" vertex="1">
                    <mxGeometry x="735" y="436" width="160" height="40" as="geometry"/>
                </mxCell>
                <mxCell id="HXRdfkEdL7Hh1PPMHjU6-105" value="Github Enviroment" style="text;html=1;align=center;verticalAlign=middle;resizable=0;points=[];autosize=1;fontSize=30;fontStyle=1" parent="DR9EEMrPSlY4ckPwdUAX-1" vertex="1">
                    <mxGeometry x="1440" y="-251.25" width="290" height="40" as="geometry"/>
                </mxCell>
                <mxCell id="HXRdfkEdL7Hh1PPMHjU6-118" style="edgeStyle=orthogonalEdgeStyle;rounded=1;orthogonalLoop=1;jettySize=auto;html=1;strokeColor=#FFFFFF;strokeWidth=3;fontSize=20;fontColor=#FFFFFF;" parent="DR9EEMrPSlY4ckPwdUAX-1" source="HXRdfkEdL7Hh1PPMHjU6-106" edge="1">
                    <mxGeometry relative="1" as="geometry">
                        <mxPoint x="1575" y="90" as="targetPoint"/>
                        <Array as="points">
                            <mxPoint x="1575" y="90"/>
                        </Array>
                    </mxGeometry>
                </mxCell>
                <mxCell id="HXRdfkEdL7Hh1PPMHjU6-106" value="" style="rounded=1;whiteSpace=wrap;html=1;strokeWidth=4;fillColor=#D4E1F5;strokeColor=#6CB0F5;movable=1;resizable=1;rotatable=1;deletable=1;editable=1;connectable=1;" parent="DR9EEMrPSlY4ckPwdUAX-1" vertex="1">
                    <mxGeometry x="1200" y="200" width="750" height="440" as="geometry"/>
                </mxCell>
                <mxCell id="HXRdfkEdL7Hh1PPMHjU6-107" value="" style="shape=image;html=1;verticalAlign=top;verticalLabelPosition=bottom;labelBackgroundColor=#ffffff;imageAspect=0;aspect=fixed;image=https://cdn1.iconfinder.com/data/icons/simple-icons/128/heroku-128-black.png;rounded=1;strokeColor=#85F3FF;strokeWidth=4;fillColor=#CCFFFF;fontSize=20;fontColor=#FFFFFF;" parent="DR9EEMrPSlY4ckPwdUAX-1" vertex="1">
                    <mxGeometry x="959.5" y="-210" width="128" height="128" as="geometry"/>
                </mxCell>
                <mxCell id="HXRdfkEdL7Hh1PPMHjU6-108" value="Local Enviroment" style="text;html=1;align=center;verticalAlign=middle;resizable=0;points=[];autosize=1;fontSize=30;fontStyle=1" parent="DR9EEMrPSlY4ckPwdUAX-1" vertex="1">
                    <mxGeometry x="1440" y="210" width="270" height="40" as="geometry"/>
                </mxCell>
                <mxCell id="HXRdfkEdL7Hh1PPMHjU6-112" value="Github Actions" style="text;html=1;align=center;verticalAlign=middle;resizable=0;points=[];autosize=1;fontSize=30;fontStyle=1" parent="DR9EEMrPSlY4ckPwdUAX-1" vertex="1">
                    <mxGeometry x="1680" y="-160" width="230" height="40" as="geometry"/>
                </mxCell>
                <mxCell id="HXRdfkEdL7Hh1PPMHjU6-114" value="Build React App" style="text;html=1;align=center;verticalAlign=middle;resizable=0;points=[];autosize=1;fontSize=20;fontStyle=1" parent="DR9EEMrPSlY4ckPwdUAX-1" vertex="1">
                    <mxGeometry x="1301" y="-82" width="170" height="30" as="geometry"/>
                </mxCell>
                <mxCell id="HXRdfkEdL7Hh1PPMHjU6-115" value="Transpile server from TS to JS" style="text;html=1;align=center;verticalAlign=middle;resizable=0;points=[];autosize=1;fontSize=20;fontStyle=1" parent="DR9EEMrPSlY4ckPwdUAX-1" vertex="1">
                    <mxGeometry x="1236" y="-52" width="300" height="30" as="geometry"/>
                </mxCell>
                <mxCell id="HXRdfkEdL7Hh1PPMHjU6-116" value="Run test" style="text;html=1;align=center;verticalAlign=middle;resizable=0;points=[];autosize=1;fontSize=20;fontStyle=1" parent="DR9EEMrPSlY4ckPwdUAX-1" vertex="1">
                    <mxGeometry x="1336" y="-13" width="100" height="30" as="geometry"/>
                </mxCell>
                <mxCell id="HXRdfkEdL7Hh1PPMHjU6-117" value="Sonarcloud" style="text;html=1;align=center;verticalAlign=middle;resizable=0;points=[];autosize=1;fontSize=20;fontStyle=1" parent="DR9EEMrPSlY4ckPwdUAX-1" vertex="1">
                    <mxGeometry x="1321" y="27" width="130" height="30" as="geometry"/>
                </mxCell>
                <mxCell id="rqf0iKj-WmwOmlQ5HG-t-0" value="&lt;font style=&quot;font-size: 26px&quot;&gt;&lt;i&gt;Development&lt;/i&gt;&lt;/font&gt;" style="rounded=1;whiteSpace=wrap;html=1;strokeWidth=4;fillColor=#CCFFFF;strokeColor=#85F3FF;" parent="DR9EEMrPSlY4ckPwdUAX-1" vertex="1">
                    <mxGeometry x="1395" y="260" width="320" height="70" as="geometry"/>
                </mxCell>
                <mxCell id="rqf0iKj-WmwOmlQ5HG-t-2" value="On Push" style="text;html=1;align=center;verticalAlign=middle;resizable=0;points=[];autosize=1;fontSize=30;fontStyle=1" parent="DR9EEMrPSlY4ckPwdUAX-1" vertex="1">
                    <mxGeometry x="1317.5" y="-139" width="140" height="40" as="geometry"/>
                </mxCell>
                <mxCell id="rqf0iKj-WmwOmlQ5HG-t-3" value="&lt;font style=&quot;font-size: 20px&quot;&gt;Dependanbot&lt;/font&gt;" style="rounded=1;whiteSpace=wrap;html=1;strokeWidth=4;fillColor=#dae8fc;strokeColor=#6c8ebf;" parent="DR9EEMrPSlY4ckPwdUAX-1" vertex="1">
                    <mxGeometry x="1560" y="-113" width="155" height="43" as="geometry"/>
                </mxCell>
                <mxCell id="rqf0iKj-WmwOmlQ5HG-t-4" value="&lt;font style=&quot;font-size: 20px&quot;&gt;Snyk&lt;/font&gt;" style="rounded=1;whiteSpace=wrap;html=1;strokeWidth=4;fillColor=#dae8fc;strokeColor=#6c8ebf;" parent="DR9EEMrPSlY4ckPwdUAX-1" vertex="1">
                    <mxGeometry x="1755" y="-115" width="155" height="45" as="geometry"/>
                </mxCell>
                <mxCell id="rqf0iKj-WmwOmlQ5HG-t-5" value="&lt;font style=&quot;font-size: 20px&quot;&gt;...&lt;/font&gt;" style="rounded=1;whiteSpace=wrap;html=1;strokeWidth=4;fillColor=#dae8fc;strokeColor=#6c8ebf;" parent="DR9EEMrPSlY4ckPwdUAX-1" vertex="1">
                    <mxGeometry x="1755" y="-46.5" width="155" height="45" as="geometry"/>
                </mxCell>
                <mxCell id="rqf0iKj-WmwOmlQ5HG-t-6" value="&lt;font style=&quot;font-size: 20px&quot;&gt;...&lt;/font&gt;" style="rounded=1;whiteSpace=wrap;html=1;strokeWidth=4;fillColor=#dae8fc;strokeColor=#6c8ebf;" parent="DR9EEMrPSlY4ckPwdUAX-1" vertex="1">
                    <mxGeometry x="1560" y="-45.5" width="155" height="43" as="geometry"/>
                </mxCell>
                <mxCell id="rqf0iKj-WmwOmlQ5HG-t-7" value="" style="shape=image;verticalLabelPosition=bottom;labelBackgroundColor=#ffffff;verticalAlign=top;aspect=fixed;imageAspect=0;image=data:image/svg+xml,PHN2ZyB4bWxuczpjYz0iaHR0cDovL2NyZWF0aXZlY29tbW9ucy5vcmcvbnMjIiB4bWxuczpkYz0iaHR0cDovL3B1cmwub3JnL2RjL2VsZW1lbnRzLzEuMS8iIHhtbG5zOmlua3NjYXBlPSJodHRwOi8vd3d3Lmlua3NjYXBlLm9yZy9uYW1lc3BhY2VzL2lua3NjYXBlIiB4bWxuczpyZGY9Imh0dHA6Ly93d3cudzMub3JnLzE5OTkvMDIvMjItcmRmLXN5bnRheC1ucyMiIHhtbG5zOnNvZGlwb2RpPSJodHRwOi8vc29kaXBvZGkuc291cmNlZm9yZ2UubmV0L0RURC9zb2RpcG9kaS0wLmR0ZCIgeG1sbnM6c3ZnPSJodHRwOi8vd3d3LnczLm9yZy8yMDAwL3N2ZyIgeG1sbnM9Imh0dHA6Ly93d3cudzMub3JnLzIwMDAvc3ZnIiB4bWxuczp4bGluaz0iaHR0cDovL3d3dy53My5vcmcvMTk5OS94bGluayIgdmVyc2lvbj0iMS4xIiBpZD0ic3ZnMTc1ODMxIiBpbmtzY2FwZTp2ZXJzaW9uPSIwLjkyLjMgKDI0MDU1NDYsIDIwMTgtMDMtMTEpIiBzb2RpcG9kaTpkb2NuYW1lPSJodG1sNS5zdmciIHg9IjBweCIgeT0iMHB4IiB2aWV3Qm94PSIwIDAgMjYuNDEgMzcuMjgiIHN0eWxlPSJlbmFibGUtYmFja2dyb3VuZDpuZXcgMCAwIDI2LjQxIDM3LjI4OyIgeG1sOnNwYWNlPSJwcmVzZXJ2ZSI+JiN4YTs8c29kaXBvZGk6bmFtZWR2aWV3IGJvcmRlcmNvbG9yPSIjNjY2NjY2IiBib3JkZXJvcGFjaXR5PSIxIiBmaXQtbWFyZ2luLWJvdHRvbT0iMCIgZml0LW1hcmdpbi1sZWZ0PSIwIiBmaXQtbWFyZ2luLXJpZ2h0PSIwIiBmaXQtbWFyZ2luLXRvcD0iMCIgZ3JpZHRvbGVyYW5jZT0iMTAiIGd1aWRldG9sZXJhbmNlPSIxMCIgaWQ9Im5hbWVkdmlldzE3NTgzMyIgaW5rc2NhcGU6Y3VycmVudC1sYXllcj0ic3ZnMTc1ODMxIiBpbmtzY2FwZTpjeD0iMTcuNjA4MTM0IiBpbmtzY2FwZTpjeT0iMjQuODUyNjY3IiBpbmtzY2FwZTpwYWdlb3BhY2l0eT0iMCIgaW5rc2NhcGU6cGFnZXNoYWRvdz0iMiIgaW5rc2NhcGU6d2luZG93LWhlaWdodD0iMTAxNyIgaW5rc2NhcGU6d2luZG93LW1heGltaXplZD0iMSIgaW5rc2NhcGU6d2luZG93LXdpZHRoPSIxOTIwIiBpbmtzY2FwZTp3aW5kb3cteD0iLTgiIGlua3NjYXBlOndpbmRvdy15PSItOCIgaW5rc2NhcGU6em9vbT0iMTYuNzY3MjMxIiBvYmplY3R0b2xlcmFuY2U9IjEwIiBwYWdlY29sb3I9IiNmZmZmZmYiIHNob3dncmlkPSJmYWxzZSI+JiN4YTsJPC9zb2RpcG9kaTpuYW1lZHZpZXc+JiN4YTs8ZyBpZD0iZzE3NTgyOSIgdHJhbnNmb3JtPSJ0cmFuc2xhdGUoLTAuNzUwMDE5OTYsLTAuNzQ2MzIyNDEpIj4mI3hhOwk8dGl0bGUgaWQ9InRpdGxlMTc1NzcxIj5QYWdlLTE8L3RpdGxlPiYjeGE7CTxnIGlkPSJncm91cDEwOTctMSIgdHJhbnNmb3JtPSJ0cmFuc2xhdGUoMC43NSwtMC43NSkiPiYjeGE7CQk8dGl0bGUgaWQ9InRpdGxlMTc1NzczIj5IVE1MNTwvdGl0bGU+JiN4YTsJCTxnIGlkPSJzaGFwZTEwOTgtMiI+JiN4YTsJCQk8dGl0bGUgaWQ9InRpdGxlMTc1Nzc1Ij5TaGVldC4xMDk4PC90aXRsZT4mI3hhOwkJCTxwYXRoIGlkPSJwYXRoMTc1Nzc3IiBpbmtzY2FwZTpjb25uZWN0b3ItY3VydmF0dXJlPSIwIiBzdHlsZT0iZmlsbDojRTQ1MTI2OyIgZD0iTTIuNCwzNS43OUwwLDguODNoMjYuNDFsLTIuNCwyNi45NWwtMTAuODIsMyAgICAgTDIuNCwzNS43OXoiLz4mI3hhOwkJPC9nPiYjeGE7CQk8ZyBpZD0ic2hhcGUxMDk5LTQiIHRyYW5zZm9ybT0idHJhbnNsYXRlKDEzLjIwNjEsLTIuMjkxOTkpIj4mI3hhOwkJCTx0aXRsZSBpZD0idGl0bGUxNzU3ODAiPlNoZWV0LjEwOTk8L3RpdGxlPiYjeGE7CQkJPHBhdGggaWQ9InBhdGgxNzU3ODIiIGlua3NjYXBlOmNvbm5lY3Rvci1jdXJ2YXR1cmU9IjAiIHN0eWxlPSJmaWxsOiNGMTY4MkI7IiBkPSJNMCwzOC43OGw4Ljc0LTIuNDJsMi4wNi0yMy4wNEgwVjM4Ljc4eiIvPiYjeGE7CQk8L2c+JiN4YTsJCTxnIGlkPSJzaGFwZTExMDAtNiIgdHJhbnNmb3JtPSJ0cmFuc2xhdGUoNC45MTQ4MywtMTQuNDQ0NCkiPiYjeGE7CQkJPHRpdGxlIGlkPSJ0aXRsZTE3NTc4NSI+U2hlZXQuMTEwMDwvdGl0bGU+JiN4YTsJCQk8cGF0aCBpZD0icGF0aDE3NTc4NyIgaW5rc2NhcGU6Y29ubmVjdG9yLWN1cnZhdHVyZT0iMCIgc3R5bGU9ImZpbGw6I0VCRUJFQjsiIGQ9Ik04LjI5LDM1LjQ3SDMuOTJsLTAuMzEtMy4zOGg0LjY4di0zLjMxSDguMjhIMCAgICAgbDAuMDgsMC44OWwwLjgxLDkuMTFoNy40VjM1LjQ3eiIvPiYjeGE7CQk8L2c+JiN4YTsJCTxnIGlkPSJzaGFwZTExMDEtOCIgdHJhbnNmb3JtPSJ0cmFuc2xhdGUoNS45NTQ0NSwtNS43MTg5NikiPiYjeGE7CQkJPHRpdGxlIGlkPSJ0aXRsZTE3NTc5MCI+U2hlZXQuMTEwMTwvdGl0bGU+JiN4YTsJCQk8cGF0aCBpZD0icGF0aDE3NTc5MiIgaW5rc2NhcGU6Y29ubmVjdG9yLWN1cnZhdHVyZT0iMCIgc3R5bGU9ImZpbGw6I0VCRUJFQjsiIGQ9Ik03LjI1LDM1LjM0SDcuMjRsLTMuNjktMC45OWwtMC4yMy0yLjY0SDEuNTNIMCAgICAgbDAuNDYsNS4xOWw2Ljc4LDEuODhoMC4wMUw3LjI1LDM1LjM0eiIvPiYjeGE7CQk8L2c+JiN4YTsJCTxnIGlkPSJncm91cDExMDItMTAiIHRyYW5zZm9ybT0idHJhbnNsYXRlKDIuNDU3NDIsLTMyLjI1MzUpIj4mI3hhOwkJCTx0aXRsZSBpZD0idGl0bGUxNzU3OTUiPlNoZWV0LjExMDI8L3RpdGxlPiYjeGE7CQkJPGcgaWQ9InNoYXBlMTEwMy0xMSIgdHJhbnNmb3JtPSJ0cmFuc2xhdGUoMCwtOC44Nzk1NWUtNSkiPiYjeGE7CQkJCTx0aXRsZSBpZD0idGl0bGUxNzU3OTciPlNoZWV0LjExMDM8L3RpdGxlPiYjeGE7CQkJCTxwYXRoIGlkPSJwYXRoMTc1Nzk5IiBpbmtzY2FwZTpjb25uZWN0b3ItY3VydmF0dXJlPSIwIiBzdHlsZT0iZmlsbDojMDIwMjAyOyIgZD0iTTAsMzMuNzVoMS42OHYxLjY2aDEuNTR2LTEuNjZINC45djUuMDNIMy4yMiAgICAgIFYzNy4xSDEuNjh2MS42OEgwVjMzLjc1eiIvPiYjeGE7CQkJPC9nPiYjeGE7CQkJPGcgaWQ9InNoYXBlMTEwNC0xMyIgdHJhbnNmb3JtPSJ0cmFuc2xhdGUoNS42MjgyMikiPiYjeGE7CQkJCTx0aXRsZSBpZD0idGl0bGUxNzU4MDIiPlNoZWV0LjExMDQ8L3RpdGxlPiYjeGE7CQkJCTxwYXRoIGlkPSJwYXRoMTc1ODA0IiBpbmtzY2FwZTpjb25uZWN0b3ItY3VydmF0dXJlPSIwIiBzdHlsZT0iZmlsbDojMDIwMjAyOyIgZD0iTTEuNDgsMzUuNDJIMHYtMS42N2g0LjY0djEuNjdIMy4xNnYzLjM2SDEuNDggICAgICBWMzUuNDJ6Ii8+JiN4YTsJCQk8L2c+JiN4YTsJCQk8ZyBpZD0ic2hhcGUxMTA1LTE1IiB0cmFuc2Zvcm09InRyYW5zbGF0ZSgxMS4wMDQzLC04Ljg3OTU1ZS01KSI+JiN4YTsJCQkJPHRpdGxlIGlkPSJ0aXRsZTE3NTgwNyI+U2hlZXQuMTEwNTwvdGl0bGU+JiN4YTsJCQkJPHBhdGggaWQ9InBhdGgxNzU4MDkiIGlua3NjYXBlOmNvbm5lY3Rvci1jdXJ2YXR1cmU9IjAiIHN0eWxlPSJmaWxsOiMwMjAyMDI7IiBkPSJNMCwzMy43NWgxLjc1bDEuMDgsMS43N2wxLjA4LTEuNzdoMS43NXY1LjAzICAgICAgSDMuOTl2LTIuNDlsLTEuMTYsMS43OUgyLjhsLTEuMTYtMS43OXYyLjQ5SDBWMzMuNzV6Ii8+JiN4YTsJCQk8L2c+JiN4YTsJCQk8ZyBpZD0ic2hhcGUxMTA2LTE3IiB0cmFuc2Zvcm09InRyYW5zbGF0ZSgxNy41LC0xLjc3NTkxZS00KSI+JiN4YTsJCQkJPHRpdGxlIGlkPSJ0aXRsZTE3NTgxMiI+U2hlZXQuMTEwNjwvdGl0bGU+JiN4YTsJCQkJPHBhdGggaWQ9InBhdGgxNzU4MTQiIGlua3NjYXBlOmNvbm5lY3Rvci1jdXJ2YXR1cmU9IjAiIHN0eWxlPSJmaWxsOiMwMjAyMDI7IiBkPSJNMCwzMy43NWgxLjY4djMuMzdoMi4zNnYxLjY2SDBWMzMuNzV6Ii8+JiN4YTsJCQk8L2c+JiN4YTsJCTwvZz4mI3hhOwkJPGcgaWQ9InNoYXBlMTEwNy0xOSIgdHJhbnNmb3JtPSJ0cmFuc2xhdGUoMTMuMTk0NywtNS43MjA0NykiPiYjeGE7CQkJPHRpdGxlIGlkPSJ0aXRsZTE3NTgxOCI+U2hlZXQuMTEwNzwvdGl0bGU+JiN4YTsJCQk8cGF0aCBpZD0icGF0aDE3NTgyMCIgaW5rc2NhcGU6Y29ubmVjdG9yLWN1cnZhdHVyZT0iMCIgc3R5bGU9ImZpbGw6I0ZGRkZGRjsiIGQ9Ik0wLDI2Ljc1djMuMzFoNC4wN2wtMC4zOCw0LjI5TDAsMzUuMzR2My40NCAgICAgbDYuNzgtMS44OGwwLjA1LTAuNTZsMC43OC04LjdsMC4wOC0wLjg5aC0wLjlMMCwyNi43NXoiLz4mI3hhOwkJPC9nPiYjeGE7CQk8ZyBpZD0ic2hhcGUxMTA4LTIxIiB0cmFuc2Zvcm09InRyYW5zbGF0ZSgxMy4xOTQ3LC0yMS4xMzY3KSI+JiN4YTsJCQk8dGl0bGUgaWQ9InRpdGxlMTc1ODIzIj5TaGVldC4xMTA4PC90aXRsZT4mI3hhOwkJCTxwYXRoIGlkPSJwYXRoMTc1ODI1IiBpbmtzY2FwZTpjb25uZWN0b3ItY3VydmF0dXJlPSIwIiBzdHlsZT0iZmlsbDojRkZGRkZGOyIgZD0iTTAsMzUuNDd2Mi4wNnYxLjI0djAuMDFoNy45OGgwLjAxbDAuMDYtMC43NCAgICAgbDAuMTUtMS42OGwwLjA4LTAuODlIMHoiLz4mI3hhOwkJPC9nPiYjeGE7CTwvZz4mI3hhOzwvZz4mI3hhOzwvc3ZnPg==;" parent="DR9EEMrPSlY4ckPwdUAX-1" vertex="1">
                    <mxGeometry x="1715" y="364.41" width="80.82" height="115" as="geometry"/>
                </mxCell>
                <mxCell id="rqf0iKj-WmwOmlQ5HG-t-8" value="" style="shape=image;verticalLabelPosition=bottom;labelBackgroundColor=#ffffff;verticalAlign=top;aspect=fixed;imageAspect=0;image=data:image/svg+xml,PHN2ZyB4bWxuczpjYz0iaHR0cDovL2NyZWF0aXZlY29tbW9ucy5vcmcvbnMjIiB4bWxuczpkYz0iaHR0cDovL3B1cmwub3JnL2RjL2VsZW1lbnRzLzEuMS8iIHhtbG5zOmlua3NjYXBlPSJodHRwOi8vd3d3Lmlua3NjYXBlLm9yZy9uYW1lc3BhY2VzL2lua3NjYXBlIiB4bWxuczpyZGY9Imh0dHA6Ly93d3cudzMub3JnLzE5OTkvMDIvMjItcmRmLXN5bnRheC1ucyMiIHhtbG5zOnNvZGlwb2RpPSJodHRwOi8vc29kaXBvZGkuc291cmNlZm9yZ2UubmV0L0RURC9zb2RpcG9kaS0wLmR0ZCIgeG1sbnM6c3ZnPSJodHRwOi8vd3d3LnczLm9yZy8yMDAwL3N2ZyIgeG1sbnM9Imh0dHA6Ly93d3cudzMub3JnLzIwMDAvc3ZnIiB4bWxuczp4bGluaz0iaHR0cDovL3d3dy53My5vcmcvMTk5OS94bGluayIgdmVyc2lvbj0iMS4xIiBpZD0ic3ZnMTg1OTAzIiBpbmtzY2FwZTp2ZXJzaW9uPSIwLjkyLjMgKDI0MDU1NDYsIDIwMTgtMDMtMTEpIiBzb2RpcG9kaTpkb2NuYW1lPSJucG0uc3ZnIiB4PSIwcHgiIHk9IjBweCIgdmlld0JveD0iMCAwIDQ1Ljc1IDE5LjUiIHN0eWxlPSJlbmFibGUtYmFja2dyb3VuZDpuZXcgMCAwIDQ1Ljc1IDE5LjU7IiB4bWw6c3BhY2U9InByZXNlcnZlIj4mI3hhOzxzb2RpcG9kaTpuYW1lZHZpZXcgYm9yZGVyY29sb3I9IiM2NjY2NjYiIGJvcmRlcm9wYWNpdHk9IjEiIGZpdC1tYXJnaW4tYm90dG9tPSIwIiBmaXQtbWFyZ2luLWxlZnQ9IjAiIGZpdC1tYXJnaW4tcmlnaHQ9IjAiIGZpdC1tYXJnaW4tdG9wPSIwIiBncmlkdG9sZXJhbmNlPSIxMCIgZ3VpZGV0b2xlcmFuY2U9IjEwIiBpZD0ibmFtZWR2aWV3MTg1OTA1IiBpbmtzY2FwZTpjdXJyZW50LWxheWVyPSJzdmcxODU5MDMiIGlua3NjYXBlOmN4PSIzMC41IiBpbmtzY2FwZTpjeT0iMTIuOTk5OTk3IiBpbmtzY2FwZTpwYWdlb3BhY2l0eT0iMCIgaW5rc2NhcGU6cGFnZXNoYWRvdz0iMiIgaW5rc2NhcGU6d2luZG93LWhlaWdodD0iMTAxNyIgaW5rc2NhcGU6d2luZG93LW1heGltaXplZD0iMSIgaW5rc2NhcGU6d2luZG93LXdpZHRoPSIxOTIwIiBpbmtzY2FwZTp3aW5kb3cteD0iLTgiIGlua3NjYXBlOndpbmRvdy15PSItOCIgaW5rc2NhcGU6em9vbT0iMjguMjg1NzE0IiBvYmplY3R0b2xlcmFuY2U9IjEwIiBwYWdlY29sb3I9IiNmZmZmZmYiIHNob3dncmlkPSJmYWxzZSI+JiN4YTsJPC9zb2RpcG9kaTpuYW1lZHZpZXc+JiN4YTs8ZyBpZD0iZzE4NTkwMSIgdHJhbnNmb3JtPSJ0cmFuc2xhdGUoLTAuNzUsLTAuNzUwMDExNzEpIj4mI3hhOwk8dGl0bGUgaWQ9InRpdGxlMTg1ODczIj5QYWdlLTE8L3RpdGxlPiYjeGE7CTxnIGlkPSJncm91cDkyMS0xIiB0cmFuc2Zvcm09InRyYW5zbGF0ZSgwLjc1LC0wLjc1KSI+JiN4YTsJCTx0aXRsZSBpZD0idGl0bGUxODU4NzUiPm5wbTwvdGl0bGU+JiN4YTsJCTxnIGlkPSJncm91cDkyMi0yIj4mI3hhOwkJCTx0aXRsZSBpZD0idGl0bGUxODU4NzciPkZpbGVOYW1lczwvdGl0bGU+JiN4YTsJCQk8ZyBpZD0ic2hhcGU5MjMtMyI+JiN4YTsJCQkJPHRpdGxlIGlkPSJ0aXRsZTE4NTg3OSI+cG9seWdvbjQyNjI8L3RpdGxlPiYjeGE7CQkJCTxwYXRoIGlkPSJwYXRoMTg1ODgxIiBpbmtzY2FwZTpjb25uZWN0b3ItY3VydmF0dXJlPSIwIiBzdHlsZT0iZmlsbDojQ0IzODM3OyIgZD0iTTAsMThoMTMuNXYzaDl2LTNoMjMuMjVWMS41SDBWMTh6Ii8+JiN4YTsJCQk8L2c+JiN4YTsJCQk8ZyBpZD0ic2hhcGU5MjQtNSIgdHJhbnNmb3JtPSJ0cmFuc2xhdGUoMTUuNzUsLTMpIj4mI3hhOwkJCQk8dGl0bGUgaWQ9InRpdGxlMTg1ODg0Ij5wYXRoNDI2NDwvdGl0bGU+JiN4YTsJCQkJPHBhdGggaWQ9InBhdGgxODU4ODYiIGlua3NjYXBlOmNvbm5lY3Rvci1jdXJ2YXR1cmU9IjAiIHN0eWxlPSJmaWxsOiNGRkZGRkY7IiBkPSJNMCw3LjVWMjFoNC41di0zaDUuMjVWNy41SDB6IE04LjI1LDE1Ljc1aC0zICAgICAgVjEwLjVoM1YxNS43NXoiLz4mI3hhOwkJCTwvZz4mI3hhOwkJCTxnIGlkPSJzaGFwZTkyNS03IiB0cmFuc2Zvcm09InRyYW5zbGF0ZSgyNy43NSwtNikiPiYjeGE7CQkJCTx0aXRsZSBpZD0idGl0bGUxODU4ODkiPnBvbHlnb240MjY2PC90aXRsZT4mI3hhOwkJCQk8cGF0aCBpZD0icGF0aDE4NTg5MSIgaW5rc2NhcGU6Y29ubmVjdG9yLWN1cnZhdHVyZT0iMCIgc3R5bGU9ImZpbGw6I0ZGRkZGRjsiIGQ9Ik0wLDEwLjVWMjFoNS4yNXYtNy41SDcuNVYyMWgzdi03LjVoMi4yNVYyMWgzICAgICAgVjEwLjVINS4yNUgzLjg2SDB6Ii8+JiN4YTsJCQk8L2c+JiN4YTsJCQk8ZyBpZD0ic2hhcGU5MjYtOSIgdHJhbnNmb3JtPSJ0cmFuc2xhdGUoMi4yNSwtNikiPiYjeGE7CQkJCTx0aXRsZSBpZD0idGl0bGUxODU4OTQiPnBvbHlnb240MjY4PC90aXRsZT4mI3hhOwkJCQk8cGF0aCBpZD0icGF0aDE4NTg5NiIgaW5rc2NhcGU6Y29ubmVjdG9yLWN1cnZhdHVyZT0iMCIgc3R5bGU9ImZpbGw6I0ZGRkZGRjsiIGQ9Ik01LjI1LDIxdi04LjI1aDNWMjFoM1YxMC41SDBWMjFINS4yNXoiLz4mI3hhOwkJCTwvZz4mI3hhOwkJPC9nPiYjeGE7CTwvZz4mI3hhOzwvZz4mI3hhOzwvc3ZnPg==;" parent="DR9EEMrPSlY4ckPwdUAX-1" vertex="1">
                    <mxGeometry x="1767.5" y="511.3" width="135" height="58.7" as="geometry"/>
                </mxCell>
                <mxCell id="rqf0iKj-WmwOmlQ5HG-t-10" value="" style="shape=image;verticalLabelPosition=bottom;labelBackgroundColor=#ffffff;verticalAlign=top;aspect=fixed;imageAspect=0;image=data:image/svg+xml,PHN2ZyB4bWxuczpjYz0iaHR0cDovL2NyZWF0aXZlY29tbW9ucy5vcmcvbnMjIiB4bWxuczpkYz0iaHR0cDovL3B1cmwub3JnL2RjL2VsZW1lbnRzLzEuMS8iIHhtbG5zOmlua3NjYXBlPSJodHRwOi8vd3d3Lmlua3NjYXBlLm9yZy9uYW1lc3BhY2VzL2lua3NjYXBlIiB4bWxuczpyZGY9Imh0dHA6Ly93d3cudzMub3JnLzE5OTkvMDIvMjItcmRmLXN5bnRheC1ucyMiIHhtbG5zOnNvZGlwb2RpPSJodHRwOi8vc29kaXBvZGkuc291cmNlZm9yZ2UubmV0L0RURC9zb2RpcG9kaS0wLmR0ZCIgeG1sbnM6c3ZnPSJodHRwOi8vd3d3LnczLm9yZy8yMDAwL3N2ZyIgeG1sbnM9Imh0dHA6Ly93d3cudzMub3JnLzIwMDAvc3ZnIiB4bWxuczp4bGluaz0iaHR0cDovL3d3dy53My5vcmcvMTk5OS94bGluayIgdmVyc2lvbj0iMS4xIiBpZD0ic3ZnMjEzMzc3IiBpbmtzY2FwZTp2ZXJzaW9uPSIwLjkyLjMgKDI0MDU1NDYsIDIwMTgtMDMtMTEpIiBzb2RpcG9kaTpkb2NuYW1lPSJ0eXBlc2NyaXB0LnN2ZyIgeD0iMHB4IiB5PSIwcHgiIHZpZXdCb3g9IjAgMCA0NSA0NSIgc3R5bGU9ImVuYWJsZS1iYWNrZ3JvdW5kOm5ldyAwIDAgNDUgNDU7IiB4bWw6c3BhY2U9InByZXNlcnZlIj4mI3hhOzxzb2RpcG9kaTpuYW1lZHZpZXcgYm9yZGVyY29sb3I9IiM2NjY2NjYiIGJvcmRlcm9wYWNpdHk9IjEiIGZpdC1tYXJnaW4tYm90dG9tPSIwIiBmaXQtbWFyZ2luLWxlZnQ9IjAiIGZpdC1tYXJnaW4tcmlnaHQ9IjAiIGZpdC1tYXJnaW4tdG9wPSIwIiBncmlkdG9sZXJhbmNlPSIxMCIgZ3VpZGV0b2xlcmFuY2U9IjEwIiBpZD0ibmFtZWR2aWV3MjEzMzc5IiBpbmtzY2FwZTpjdXJyZW50LWxheWVyPSJzdmcyMTMzNzciIGlua3NjYXBlOmN4PSIyOS45OTk5ODUiIGlua3NjYXBlOmN5PSIyOS45OTk5ODUiIGlua3NjYXBlOnBhZ2VvcGFjaXR5PSIwIiBpbmtzY2FwZTpwYWdlc2hhZG93PSIyIiBpbmtzY2FwZTp3aW5kb3ctaGVpZ2h0PSIxMDE3IiBpbmtzY2FwZTp3aW5kb3ctbWF4aW1pemVkPSIxIiBpbmtzY2FwZTp3aW5kb3ctd2lkdGg9IjE5MjAiIGlua3NjYXBlOndpbmRvdy14PSItOCIgaW5rc2NhcGU6d2luZG93LXk9Ii04IiBpbmtzY2FwZTp6b29tPSIxMy45ODM4NzgiIG9iamVjdHRvbGVyYW5jZT0iMTAiIHBhZ2Vjb2xvcj0iI2ZmZmZmZiIgc2hvd2dyaWQ9ImZhbHNlIj4mI3hhOwk8L3NvZGlwb2RpOm5hbWVkdmlldz4mI3hhOzxnIGlkPSJnMjEzMzc1IiB0cmFuc2Zvcm09InRyYW5zbGF0ZSgtMC43NSwtMC43NSkiPiYjeGE7CTx0aXRsZSBpZD0idGl0bGUyMTMzNjAiPlBhZ2UtMTwvdGl0bGU+JiN4YTsJPGcgaWQ9Imdyb3VwMTE0Ny0xIiB0cmFuc2Zvcm09InRyYW5zbGF0ZSgwLjc1LC0wLjc1KSI+JiN4YTsJCTx0aXRsZSBpZD0idGl0bGUyMTMzNjIiPlR5cGVTY3JpcHQ8L3RpdGxlPiYjeGE7CQk8ZyBpZD0ic2hhcGUxMTQ4LTIiIHRyYW5zZm9ybT0idHJhbnNsYXRlKDcuNzE3NSwtMS45Mjc1KSI+JiN4YTsJCQk8dGl0bGUgaWQ9InRpdGxlMjEzMzY0Ij5yZWN0NzA5ODwvdGl0bGU+JiN4YTsJCQk8cmVjdCBpZD0icmVjdDIxMzM2NiIgeD0iMCIgeT0iMjAuNzgiIHN0eWxlPSJmaWxsOiNGRkZGRkY7IiB3aWR0aD0iMzQuNzIiIGhlaWdodD0iMjUuNzIiLz4mI3hhOwkJPC9nPiYjeGE7CQk8ZyBpZD0ic2hhcGUxMTQ5LTQiPiYjeGE7CQkJPHRpdGxlIGlkPSJ0aXRsZTIxMzM2OSI+cGF0aDcxMDA8L3RpdGxlPiYjeGE7CQkJPHBhdGggaWQ9InBhdGgyMTMzNzEiIGlua3NjYXBlOmNvbm5lY3Rvci1jdXJ2YXR1cmU9IjAiIHN0eWxlPSJmaWxsOiMwMDdBQ0M7IiBkPSJNMCwyNHYyMi41aDQ1di00NUgwVjI0eiBNMzQuODQsMjEuOTcgICAgIGMxLjYsMC4wNSwzLjEyLDAuNzEsNC4yNCwxLjg2YzAuNDIsMC40MywwLjc4LDAuOTIsMS4wOCwxLjQ0YzAsMC4wNi0xLjk0LDEuMzctMy4xMywyLjFjLTAuMDQsMC0wLjIxLTAuMTUtMC40LTAuNDQgICAgIGMtMC40NC0wLjc2LTEuMjUtMS4yNC0yLjEzLTEuMjdjLTEuMzctMC4wOS0yLjI1LDAuNjMtMi4yNSwxLjgyYy0wLjAxLDAuMjksMC4wNSwwLjU4LDAuMTksMC44NGMwLjMsMC42MiwwLjg2LDAuOTksMi42MSwxLjc1ICAgICBjMy4yMywxLjM4LDQuNiwyLjMsNS40NiwzLjZjMC45OCwxLjY2LDEuMTcsMy42NiwwLjUzLDUuNDhjLTAuNzUsMS44Ny0yLjQ4LDMuMTQtNC45OCwzLjU2Yy0xLjE0LDAuMTQtMi4yOSwwLjE0LTMuNDMsMCAgICAgYy0xLjc0LTAuMjktMy4zNC0xLjEyLTQuNTctMi4zOGMtMC40Ny0wLjUzLTAuODYtMS4xMS0xLjE3LTEuNzRjMC4xMy0wLjEsMC4yNy0wLjE4LDAuNDEtMC4yNmwxLjY3LTAuOTdsMS4yOS0wLjc1bDAuMjcsMC40ICAgICBjMC40NiwwLjY0LDEuMDUsMS4xOSwxLjcyLDEuNjFjMS40MywwLjc1LDMuNCwwLjY2LDQuMzgtMC4yMmMwLjY3LTAuNjYsMC43OC0xLjcxLDAuMjUtMi40OWMtMC4zNi0wLjUtMS4wNy0wLjkyLTMuMDktMS44ICAgICBjLTIuMjktMS4wMS0zLjMzLTEuNjMtNC4yNC0yLjYxYy0wLjU3LTAuNjUtMS0xLjQyLTEuMjQtMi4yNWMtMC4xOC0wLjk1LTAuMi0xLjkyLTAuMDctMi44NyAgICAgQzI4Ljg0LDIzLjU2LDMxLjM0LDIxLjgyLDM0Ljg0LDIxLjk3eiBNMjUuNSwyNi4yNWgtNnYxNi41aC0zLjc1di0xNi41aC02VjIyLjVIMjUuNVYyNi4yNXoiLz4mI3hhOwkJPC9nPiYjeGE7CTwvZz4mI3hhOzwvZz4mI3hhOzwvc3ZnPg==;" parent="DR9EEMrPSlY4ckPwdUAX-1" vertex="1">
                    <mxGeometry x="1260" y="245" width="90" height="90" as="geometry"/>
                </mxCell>
                <mxCell id="rqf0iKj-WmwOmlQ5HG-t-11" value="" style="shape=image;verticalLabelPosition=bottom;labelBackgroundColor=#ffffff;verticalAlign=top;aspect=fixed;imageAspect=0;image=data:image/svg+xml,PHN2ZyB4bWxuczpkYz0iaHR0cDovL3B1cmwub3JnL2RjL2VsZW1lbnRzLzEuMS8iIHhtbG5zOmNjPSJodHRwOi8vY3JlYXRpdmVjb21tb25zLm9yZy9ucyMiIHhtbG5zOnJkZj0iaHR0cDovL3d3dy53My5vcmcvMTk5OS8wMi8yMi1yZGYtc3ludGF4LW5zIyIgeG1sbnM6c3ZnPSJodHRwOi8vd3d3LnczLm9yZy8yMDAwL3N2ZyIgeG1sbnM9Imh0dHA6Ly93d3cudzMub3JnLzIwMDAvc3ZnIiB4bWxuczp4bGluaz0iaHR0cDovL3d3dy53My5vcmcvMTk5OS94bGluayIgeG1sbnM6c29kaXBvZGk9Imh0dHA6Ly9zb2RpcG9kaS5zb3VyY2Vmb3JnZS5uZXQvRFREL3NvZGlwb2RpLTAuZHRkIiB4bWxuczppbmtzY2FwZT0iaHR0cDovL3d3dy5pbmtzY2FwZS5vcmcvbmFtZXNwYWNlcy9pbmtzY2FwZSIgdmVyc2lvbj0iMS4xIiBpZD0iTGF5ZXJfMSIgeD0iMHB4IiB5PSIwcHgiIHZpZXdCb3g9IjAgMCA1MC44NDk5OTggNTEuMDkiIHhtbDpzcGFjZT0icHJlc2VydmUiIHNvZGlwb2RpOmRvY25hbWU9InZpc3VhbF9zdHVkaW9fY29kZS5zdmciIHdpZHRoPSI1MC44NDk5OTgiIGhlaWdodD0iNTEuMDkiIGlua3NjYXBlOnZlcnNpb249IjAuOTIuMyAoMjQwNTU0NiwgMjAxOC0wMy0xMSkiPjxtZXRhZGF0YSBpZD0ibWV0YWRhdGE0MzE4OSI+PHJkZjpSREY+PGNjOldvcmsgcmRmOmFib3V0PSIiPjxkYzpmb3JtYXQ+aW1hZ2Uvc3ZnK3htbDwvZGM6Zm9ybWF0PjxkYzp0eXBlIHJkZjpyZXNvdXJjZT0iaHR0cDovL3B1cmwub3JnL2RjL2RjbWl0eXBlL1N0aWxsSW1hZ2UiLz48ZGM6dGl0bGUvPjwvY2M6V29yaz48L3JkZjpSREY+PC9tZXRhZGF0YT48ZGVmcyBpZD0iZGVmczQzMTg3Ii8+PHNvZGlwb2RpOm5hbWVkdmlldyBwYWdlY29sb3I9IiNmZmZmZmYiIGJvcmRlcmNvbG9yPSIjNjY2NjY2IiBib3JkZXJvcGFjaXR5PSIxIiBvYmplY3R0b2xlcmFuY2U9IjEwIiBncmlkdG9sZXJhbmNlPSIxMCIgZ3VpZGV0b2xlcmFuY2U9IjEwIiBpbmtzY2FwZTpwYWdlb3BhY2l0eT0iMCIgaW5rc2NhcGU6cGFnZXNoYWRvdz0iMiIgaW5rc2NhcGU6d2luZG93LXdpZHRoPSIxOTIwIiBpbmtzY2FwZTp3aW5kb3ctaGVpZ2h0PSIxMDE3IiBpZD0ibmFtZWR2aWV3NDMxODUiIHNob3dncmlkPSJmYWxzZSIgZml0LW1hcmdpbi10b3A9IjAiIGZpdC1tYXJnaW4tbGVmdD0iMCIgZml0LW1hcmdpbi1yaWdodD0iMCIgZml0LW1hcmdpbi1ib3R0b209IjAiIGlua3NjYXBlOnpvb209IjEuMDMwMzAzIiBpbmtzY2FwZTpjeD0iLTYuNTU1IiBpbmtzY2FwZTpjeT0iLTI5Ni4wNyIgaW5rc2NhcGU6d2luZG93LXg9Ii04IiBpbmtzY2FwZTp3aW5kb3cteT0iLTgiIGlua3NjYXBlOndpbmRvdy1tYXhpbWl6ZWQ9IjEiIGlua3NjYXBlOmN1cnJlbnQtbGF5ZXI9IkxheWVyXzEiLz4mI3hhOyYjeGE7PGcgaWQ9Imc0MzE4MiIgdHJhbnNmb3JtPSJ0cmFuc2xhdGUoLTMwMy45MywtNzMuNTkpIj4mI3hhOwk8ZGVmcyBpZD0iZGVmczQzMTY3Ij4mI3hhOwkJPHJlY3QgaWQ9IlNWR0lEXzNfIiB4PSIzMDMuOTI5OTkiIHk9IjczLjU4OTk5NiIgd2lkdGg9IjUxLjI1IiBoZWlnaHQ9IjUxLjI1Ii8+JiN4YTsJPC9kZWZzPiYjeGE7CTxjbGlwUGF0aCBpZD0iU1ZHSURfNF8iPiYjeGE7CQk8dXNlIHhsaW5rOmhyZWY9IiNTVkdJRF8zXyIgc3R5bGU9Im92ZXJmbG93OnZpc2libGUiIGlkPSJ1c2U0MzE2OSIgeD0iMCIgeT0iMCIgd2lkdGg9IjEwMCUiIGhlaWdodD0iMTAwJSIvPiYjeGE7CTwvY2xpcFBhdGg+JiN4YTsJPGcgY2xpcC1wYXRoPSJ1cmwoI1NWR0lEXzRfKSIgaWQ9Imc0MzE4MCI+JiN4YTsJCTxkZWZzIGlkPSJkZWZzNDMxNzMiPiYjeGE7CQkJPHJlY3QgaWQ9IlNWR0lEXzVfIiB4PSIzMDMuOTI5OTkiIHk9IjczLjU4OTk5NiIgd2lkdGg9IjUxLjI1IiBoZWlnaHQ9IjUxLjI1Ii8+JiN4YTsJCTwvZGVmcz4mI3hhOwkJPGNsaXBQYXRoIGlkPSJTVkdJRF82XyI+JiN4YTsJCQk8dXNlIHhsaW5rOmhyZWY9IiNTVkdJRF81XyIgc3R5bGU9Im92ZXJmbG93OnZpc2libGUiIGlkPSJ1c2U0MzE3NSIgeD0iMCIgeT0iMCIgd2lkdGg9IjEwMCUiIGhlaWdodD0iMTAwJSIvPiYjeGE7CQk8L2NsaXBQYXRoPiYjeGE7CQk8cGF0aCBzdHlsZT0iZmlsbDojMDE3OWNiIiBkPSJtIDMwOS44NywxMDUuMDIgNi4yMywtNS42NiAtNi4yMywtNi4yMyBWIDEwNSBaIG0gMzEuNTEsMy4zIFYgODkuOTUgbCAtMTEuODksOS4xOSAxMS44Nyw5LjE3IGggMC4wMiB6IG0gLTE5LjM1LC0zLjQ0IC0xMi42LDkuNzggLTUuNSwtMi43IFYgODYuMzUgbCA1LjQ4LC0yLjc2IDEyLjUyLDkuODQgMTkuODIsLTE5Ljg0IDEzLjAzLDUuMjMgdiA0MC41OSBsIC0xMi45OCw1LjI3IHoiIGNsaXAtcGF0aD0idXJsKCNTVkdJRF82XykiIGlkPSJwYXRoNDMxNzgiIGlua3NjYXBlOmNvbm5lY3Rvci1jdXJ2YXR1cmU9IjAiLz4mI3hhOwk8L2c+JiN4YTs8L2c+JiN4YTs8L3N2Zz4=;" parent="DR9EEMrPSlY4ckPwdUAX-1" vertex="1">
                    <mxGeometry x="1410" y="457.5" width="68" height="68" as="geometry"/>
                </mxCell>
                <mxCell id="rqf0iKj-WmwOmlQ5HG-t-12" value="" style="shape=image;verticalLabelPosition=bottom;labelBackgroundColor=#ffffff;verticalAlign=top;aspect=fixed;imageAspect=0;image=data:image/svg+xml,PHN2ZyB4bWxuczpjYz0iaHR0cDovL2NyZWF0aXZlY29tbW9ucy5vcmcvbnMjIiB4bWxuczpkYz0iaHR0cDovL3B1cmwub3JnL2RjL2VsZW1lbnRzLzEuMS8iIHhtbG5zOmlua3NjYXBlPSJodHRwOi8vd3d3Lmlua3NjYXBlLm9yZy9uYW1lc3BhY2VzL2lua3NjYXBlIiB4bWxuczpyZGY9Imh0dHA6Ly93d3cudzMub3JnLzE5OTkvMDIvMjItcmRmLXN5bnRheC1ucyMiIHhtbG5zOnNvZGlwb2RpPSJodHRwOi8vc29kaXBvZGkuc291cmNlZm9yZ2UubmV0L0RURC9zb2RpcG9kaS0wLmR0ZCIgeG1sbnM6c3ZnPSJodHRwOi8vd3d3LnczLm9yZy8yMDAwL3N2ZyIgeG1sbnM9Imh0dHA6Ly93d3cudzMub3JnLzIwMDAvc3ZnIiB4bWxuczp4bGluaz0iaHR0cDovL3d3dy53My5vcmcvMTk5OS94bGluayIgdmVyc2lvbj0iMS4xIiBpZD0ic3ZnMjA4Nzk5IiBpbmtzY2FwZTp2ZXJzaW9uPSIwLjkyLjMgKDI0MDU1NDYsIDIwMTgtMDMtMTEpIiBzb2RpcG9kaTpkb2NuYW1lPSJzb3VyY2VfY29udHJvbC5zdmciIHg9IjBweCIgeT0iMHB4IiB2aWV3Qm94PSIwIDAgMzAuNzYgMzAuNzYiIHN0eWxlPSJlbmFibGUtYmFja2dyb3VuZDpuZXcgMCAwIDMwLjc2IDMwLjc2OyIgeG1sOnNwYWNlPSJwcmVzZXJ2ZSI+JiN4YTs8c29kaXBvZGk6bmFtZWR2aWV3IGJvcmRlcmNvbG9yPSIjNjY2NjY2IiBib3JkZXJvcGFjaXR5PSIxIiBmaXQtbWFyZ2luLWJvdHRvbT0iMCIgZml0LW1hcmdpbi1sZWZ0PSIwIiBmaXQtbWFyZ2luLXJpZ2h0PSIwIiBmaXQtbWFyZ2luLXRvcD0iMCIgZ3JpZHRvbGVyYW5jZT0iMTAiIGd1aWRldG9sZXJhbmNlPSIxMCIgaWQ9Im5hbWVkdmlldzIwODgwMSIgaW5rc2NhcGU6Y3VycmVudC1sYXllcj0ic3ZnMjA4Nzk5IiBpbmtzY2FwZTpjeD0iMjAuNTExMjM3IiBpbmtzY2FwZTpjeT0iMjAuNTEwNzcxIiBpbmtzY2FwZTpwYWdlb3BhY2l0eT0iMCIgaW5rc2NhcGU6cGFnZXNoYWRvdz0iMiIgaW5rc2NhcGU6d2luZG93LWhlaWdodD0iMTAxNyIgaW5rc2NhcGU6d2luZG93LW1heGltaXplZD0iMSIgaW5rc2NhcGU6d2luZG93LXdpZHRoPSIxOTIwIiBpbmtzY2FwZTp3aW5kb3cteD0iLTgiIGlua3NjYXBlOndpbmRvdy15PSItOCIgaW5rc2NhcGU6em9vbT0iMjEuMTU0MDg1IiBvYmplY3R0b2xlcmFuY2U9IjEwIiBwYWdlY29sb3I9IiNmZmZmZmYiIHNob3dncmlkPSJmYWxzZSI+JiN4YTsJPC9zb2RpcG9kaTpuYW1lZHZpZXc+JiN4YTs8ZyBpZD0iZzIwODc5NyIgdHJhbnNmb3JtPSJ0cmFuc2xhdGUoMC4wMDI1LDAuMDEyNSkiPiYjeGE7CTx0aXRsZSBpZD0idGl0bGUyMDg3OTAiPlBhZ2UtMTwvdGl0bGU+JiN4YTsJPGcgaWQ9InNoYXBlNzkwLTEiPiYjeGE7CQk8dGl0bGUgaWQ9InRpdGxlMjA4NzkyIj5Tb3VyY2UgQ29udHJvbDwvdGl0bGU+JiN4YTsJCTxwYXRoIGlkPSJwYXRoMjA4Nzk0IiBpbmtzY2FwZTpjb25uZWN0b3ItY3VydmF0dXJlPSIwIiBzdHlsZT0iZmlsbDojRjAzQzJFOyIgZD0iTTMwLjE3LDE0TDE2Ljc1LDAuNTggICAgYy0wLjc3LTAuNzktMi4wMy0wLjc5LTIuOCwwbC0yLjc5LDIuNzdMMTQuNyw2LjlsMCwwYzAuODEtMC4yOSwxLjc2LTAuMDgsMi40MSwwLjU2YzAuNjcsMC42NywwLjg1LDEuNiwwLjU3LDIuNDNsMy40LDMuNDIgICAgYzAuODMtMC4yOCwxLjc4LTAuMSwyLjQ1LDAuNTVjMC45MSwwLjkzLDAuOTEsMi40MSwwLDMuMzRjLTAuOTMsMC45MS0yLjQzLDAuOTEtMy4zNCwwYy0wLjY5LTAuNjktMC44Ny0xLjcyLTAuNTEtMi41NyAgICBsLTMuMTgtMy4xOGwtMC4wMiw4LjM2bDAsMGMwLjI1LDAuMTIsMC40NSwwLjI3LDAuNjMsMC40NWMwLjkzLDAuOTMsMC45MywyLjQzLDAsMy4zNGMtMC45MSwwLjkxLTIuNDEsMC45MS0zLjMyLDAgICAgYy0wLjkzLTAuOTEtMC45My0yLjQxLDAtMy4zNGMwLjIyLTAuMjIsMC40OS0wLjM5LDAuNzctMC41MXYtOC40NGMtMC4yOC0wLjEyLTAuNTUtMC4zLTAuNzctMC41MWMtMC43MS0wLjctMC44Ny0xLjcyLTAuNS0yLjU5ICAgIEw5Ljc4LDQuNzNsLTkuMTksOS4yMWwwLDBjLTAuNzksMC43Ny0wLjc5LDIuMDMsMCwyLjhsMTMuNDIsMTMuNDJjMC43NywwLjc5LDIuMDMsMC43OSwyLjgsMEwzMC4xNywxNi44ICAgIEMzMC45NiwxNi4wMywzMC45NiwxNC43NywzMC4xNywxNHoiLz4mI3hhOwk8L2c+JiN4YTs8L2c+JiN4YTs8L3N2Zz4=;" parent="DR9EEMrPSlY4ckPwdUAX-1" vertex="1">
                    <mxGeometry x="1285" y="-263.75" width="65" height="65" as="geometry"/>
                </mxCell>
                <mxCell id="rqf0iKj-WmwOmlQ5HG-t-14" value="" style="shape=image;verticalLabelPosition=bottom;labelBackgroundColor=#ffffff;verticalAlign=top;aspect=fixed;imageAspect=0;image=data:image/svg+xml,PHN2ZyB4bWxuczpjYz0iaHR0cDovL2NyZWF0aXZlY29tbW9ucy5vcmcvbnMjIiB4bWxuczpkYz0iaHR0cDovL3B1cmwub3JnL2RjL2VsZW1lbnRzLzEuMS8iIHhtbG5zOmlua3NjYXBlPSJodHRwOi8vd3d3Lmlua3NjYXBlLm9yZy9uYW1lc3BhY2VzL2lua3NjYXBlIiB4bWxuczpyZGY9Imh0dHA6Ly93d3cudzMub3JnLzE5OTkvMDIvMjItcmRmLXN5bnRheC1ucyMiIHhtbG5zOnNvZGlwb2RpPSJodHRwOi8vc29kaXBvZGkuc291cmNlZm9yZ2UubmV0L0RURC9zb2RpcG9kaS0wLmR0ZCIgeG1sbnM6c3ZnPSJodHRwOi8vd3d3LnczLm9yZy8yMDAwL3N2ZyIgeG1sbnM9Imh0dHA6Ly93d3cudzMub3JnLzIwMDAvc3ZnIiB4bWxuczp4bGluaz0iaHR0cDovL3d3dy53My5vcmcvMTk5OS94bGluayIgdmVyc2lvbj0iMS4xIiBpZD0ic3ZnMTY2NTAyIiBpbmtzY2FwZTp2ZXJzaW9uPSIwLjkyLjMgKDI0MDU1NDYsIDIwMTgtMDMtMTEpIiBzb2RpcG9kaTpkb2NuYW1lPSJkb2NrZXJfdG9vbHMuc3ZnIiB4PSIwcHgiIHk9IjBweCIgdmlld0JveD0iMCAwIDk5LjIyIDgzLjI0IiBzdHlsZT0iZW5hYmxlLWJhY2tncm91bmQ6bmV3IDAgMCA5OS4yMiA4My4yNDsiIHhtbDpzcGFjZT0icHJlc2VydmUiPiYjeGE7PHNvZGlwb2RpOm5hbWVkdmlldyBib3JkZXJjb2xvcj0iIzY2NjY2NiIgYm9yZGVyb3BhY2l0eT0iMSIgZml0LW1hcmdpbi1ib3R0b209IjAiIGZpdC1tYXJnaW4tbGVmdD0iMCIgZml0LW1hcmdpbi1yaWdodD0iMCIgZml0LW1hcmdpbi10b3A9IjAiIGdyaWR0b2xlcmFuY2U9IjEwIiBndWlkZXRvbGVyYW5jZT0iMTAiIGlkPSJuYW1lZHZpZXcxNjY1MDQiIGlua3NjYXBlOmN1cnJlbnQtbGF5ZXI9InN2ZzE2NjUwMiIgaW5rc2NhcGU6Y3g9IjY2LjE0MTY1NiIgaW5rc2NhcGU6Y3k9IjU1LjQ5MzEwOCIgaW5rc2NhcGU6cGFnZW9wYWNpdHk9IjAiIGlua3NjYXBlOnBhZ2VzaGFkb3c9IjIiIGlua3NjYXBlOndpbmRvdy1oZWlnaHQ9IjEwMTciIGlua3NjYXBlOndpbmRvdy1tYXhpbWl6ZWQ9IjEiIGlua3NjYXBlOndpbmRvdy13aWR0aD0iMTkyMCIgaW5rc2NhcGU6d2luZG93LXg9Ii04IiBpbmtzY2FwZTp3aW5kb3cteT0iLTgiIGlua3NjYXBlOnpvb209IjYuNTk5MDg5OCIgb2JqZWN0dG9sZXJhbmNlPSIxMCIgcGFnZWNvbG9yPSIjZmZmZmZmIiBzaG93Z3JpZD0iZmFsc2UiPiYjeGE7CTwvc29kaXBvZGk6bmFtZWR2aWV3PiYjeGE7PGcgaWQ9ImcxNjY1MDAiIHRyYW5zZm9ybT0idHJhbnNsYXRlKC03LjY1LC03LjY0OTMyOSkiPiYjeGE7CTx0aXRsZSBpZD0idGl0bGUxNjYzODQiPlBhZ2UtMTwvdGl0bGU+JiN4YTsJPGcgaWQ9Imdyb3VwMTM3Ny0xIiB0cmFuc2Zvcm09InRyYW5zbGF0ZSg3LjY1LC03LjE0MTc0KSI+JiN4YTsJCTx0aXRsZSBpZD0idGl0bGUxNjYzODYiPkRvY2tlciBUb29sczwvdGl0bGU+JiN4YTsJCTxnIGlkPSJzaGFwZTEzNzgtMiIgdHJhbnNmb3JtPSJ0cmFuc2xhdGUoMC4wNjc0MTM3KSI+JiN4YTsJCQk8dGl0bGUgaWQ9InRpdGxlMTY2Mzg4Ij5kb2NrZXJfNF88L3RpdGxlPiYjeGE7CQkJPHBhdGggaWQ9InBhdGgxNjYzOTAiIGlua3NjYXBlOmNvbm5lY3Rvci1jdXJ2YXR1cmU9IjAiIHN0eWxlPSJmaWxsOiMzRjU3NjU7IiBkPSJNNzMuMzksOTIuNzljMi4yMy0xLjkxLDQuNDYtMy44Myw2LjY5LTUuNzUgICAgIGMwLjc2LTAuNjYsMS41OS0xLjM0LDIuMzUtMi4wM2MtMC42MS0wLjc2LTEuNjItMS4zMS0yLjQ4LTEuNjRjLTEuNzMtMC42Ni0zLjQ0LTAuNDQtNS4wMywwLjQ4Yy0yLjA5LDEuMi0yLjk3LDMuMTItMi44OSw1LjUgICAgIGMwLjAzLDAuOTQsMC4yOCwxLjg0LDAuNzgsMi42NEM3Mi45OCw5Mi4yNyw3My4xOCw5Mi41NCw3My4zOSw5Mi43OXogTTc1Ljk3LDk0LjZjMS4xLDAuMzgsMi4zNCwwLjMzLDMuNDcsMC4xNCAgICAgYzAuNTctMC4yNSwyLjA0LTAuODksMi41OC0wLjhsMC4wOCwwLjAyTDgyLjE4LDk0YzAuMzMsMC4xNiwwLjY0LDAuMzgsMC44MSwwLjcyYzAuNCwwLjc5LDAuMjEsMS41Ny0wLjU3LDIuMDJsLTAuMjUsMC4xNSAgICAgYy0yLjg1LDEuNjUtNS44OSwxLjQyLTguNzMtMC4xMmMtMS4zNi0wLjczLTIuNC0xLjgyLTMuMTctMy4xNmwtMC4xOC0wLjMxYy0xLjgzLTMuMTctMS41OC02LjUsMC40OC05LjUyICAgICBjMC43Mi0xLjA0LDEuNjUtMS44NSwyLjc0LTIuNDhsMC40MS0wLjIzYzIuNjktMS41NSw1LjU3LTEuNDUsOC4zMy0wLjA5YzEuNDgsMC43MywyLjY4LDEuODMsMy41MSwzLjI2bDAuMTUsMC4yNiAgICAgYzAuNiwxLjA0LTAuMTgsMS45NS0wLjk4LDIuNTdjLTAuOTQsMC43Mi0xLjg4LDEuNTktMi43OCwyLjM2Qzc5Ljk2LDkxLjE1LDc3Ljk3LDkyLjg4LDc1Ljk3LDk0LjZ6IE05Ny4zNCw4MC4xOGgwLjMgICAgIGMwLjksMCwxLjUxLDAuNjEsMS41MSwxLjVjMCwxLjI1LTEuMiwxLjU3LTIuMjIsMS41N2MtMS4zNiwwLTIuNjQsMC44MS0zLjU3LDEuNzNjLTEuMTcsMS4xNS0xLjY3LDIuNjEtMS42Nyw0LjIydjcuMjggICAgIGMwLDAuODMtMC41MiwxLjUxLTEuMzksMS41MWgtMC4yNGMtMC44NiwwLTEuMzgtMC42OC0xLjM4LTEuNTF2LTcuN2MwLTIuOTUsMS40NC01LjM2LDMuODQtNy4wNiAgICAgQzkzLjk1LDgwLjcxLDk1LjU5LDgwLjE4LDk3LjM0LDgwLjE4eiBNNTkuODcsODUuMzRjMS4xNi0xLjE3LDIuMzQtMi4zMywzLjUyLTMuNDhjMC4zMy0wLjMyLDEuNTgtMS42OCwyLjA4LTEuNjhINjZsMC4wNiwwLjAxICAgICBjMC42OSwwLjE0LDEuMiwwLjU4LDEuMiwxLjMxdjAuM2MwLDAuNS0wLjU5LDEuMDktMC45MSwxLjQzYy0wLjY5LDAuNzQtMS40MiwxLjQ0LTIuMTMsMi4xNmwtMy42MywzLjY5ICAgICBjMS41NywxLjU2LDMuMTMsMy4xMyw0LjY4LDQuNzFjMC40MywwLjQ0LDAuODYsMC44OCwxLjI4LDEuMzJjMC4xNSwwLjE2LDAuMzcsMC4zNSwwLjUsMC41N2MwLjEzLDAuMjEsMC4yMSwwLjQ0LDAuMjEsMC42OHYwLjMxICAgICBsLTAuMDEsMC4wN2MtMC4xNywwLjY5LTAuNjEsMS4yNC0xLjM3LDEuMjRoLTAuMjRjLTAuNSwwLTEuMDYtMC41Ni0xLjQtMC44OGMtMC43LTAuNjYtMS4zOC0xLjM2LTIuMDctMi4wM2wtMi4zMS0yLjI3djMuNjIgICAgIGMwLDAuODQtMC41MiwxLjUxLTEuMzgsMS41MWgtMC4yNGMtMC44NiwwLTEuMzgtMC42Ny0xLjM4LTEuNTFWNzYuMDFjMC0wLjgzLDAuNTItMS41LDEuMzgtMS41aDAuMjRjMC44NiwwLDEuMzgsMC42NywxLjM4LDEuNSAgICAgTDU5Ljg3LDg1LjM0TDU5Ljg3LDg1LjM0eiBNNTAuMTIsODMuMzFjLTAuNDYtMC4yMS0xLjMxLTAuMjktMS44LTAuM2MtMi41MS0wLjEtNC4zMywxLjMyLTUuNCwzLjUzICAgICBjLTAuMzYsMC43Ny0wLjUzLDEuNTgtMC41MywyLjQyYzAsMi41OCwxLjM1LDQuMzgsMy42NSw1LjQ4YzAuODQsMC40LDEuOTIsMC40OCwyLjg0LDAuNDhjMC44MSwwLDEuOTUtMC41LDIuNjYtMC44NGwwLjEzLTAuMDYgICAgIGgwLjU2bDAuMDYsMC4wMmMwLjY4LDAuMTQsMS4yLDAuNTcsMS4yLDEuMzF2MC4zYzAsMS44My0zLjM1LDIuMjUtNC42MywyLjM0Yy00LjUsMC4zMS03Ljg3LTIuMTctOS4xNS02LjQ2ICAgICBjLTAuMjMtMC43NS0wLjMzLTEuNDktMC4zMy0yLjI3di0wLjZjMC0zLjI2LDEuNjItNS44NCw0LjQyLTcuNWMxLjMtMC43NywyLjczLTEuMTYsNC4yNS0xLjE2aDAuNTljMS42LDAsMy4wOCwwLjQ1LDQuNCwxLjM2ICAgICBsMC4xMSwwLjA3bDAuMDcsMC4xMmMwLjE0LDAuMjMsMC4yNywwLjUxLDAuMjcsMC43OXYwLjNjMCwwLjc2LTAuNTgsMS4xOC0xLjI3LDEuMzFsLTAuMDYsMC4wMWgtMC4xOCAgICAgQzUxLjUzLDgzLjk2LDUwLjUyLDgzLjUsNTAuMTIsODMuMzF6IE0yMi43LDg5LjAyYzAsMi4yOSwxLjEyLDMuOTcsMy4wNSw1LjE1YzAuOTEsMC41NiwxLjksMC44MSwyLjk2LDAuODEgICAgIGMyLjI2LDAsMy45My0xLjE1LDUuMDktMy4wNWMwLjU2LTAuOTEsMC44MS0xLjkxLDAuODEtMi45N2MwLTIuMTItMS4wMy0zLjc1LTIuNzgtNC45MmMtMC45Ni0wLjY1LTIuMDItMC45Ny0zLjE4LTAuOTcgICAgIGMtMi41MiwwLTQuMzMsMS4yNy01LjQyLDMuNTNDMjIuODYsODcuMzYsMjIuNyw4OC4xOCwyMi43LDg5LjAyeiBNMjguMzUsODAuMDZoMC40MmMzLjQ5LDAsNi4xNCwxLjY5LDcuODEsNC43MyAgICAgYzAuNjgsMS4yMiwxLjAzLDIuNTQsMS4wMywzLjk0djAuNTljMCwzLjI2LTEuNiw1Ljg2LTQuNDEsNy41MWMtMS4zLDAuNzYtMi43NCwxLjE1LTQuMjUsMS4xNWgtMC42Yy0zLjI2LDAtNS44NS0xLjYxLTcuNS00LjQxICAgICBjLTAuNzctMS4zLTEuMTYtMi43NC0xLjE2LTQuMjV2LTAuNTljMC0zLjI3LDEuNjItNS44NSw0LjQxLTcuNTFDMjUuNDEsODAuNDUsMjYuODQsODAuMDYsMjguMzUsODAuMDZ6IE0zLjAxLDg5LjAyICAgICBjMCwyLjM2LDEuMTQsNC4xMywzLjIsNS4yNmMwLjg0LDAuNDUsMS43NCwwLjcsMi42OSwwLjdjMi4zMSwwLDQuMDMtMS4wOSw1LjIxLTMuMDVjMC41NS0wLjkxLDAuODEtMS45MSwwLjgxLTIuOTcgICAgIGMwLTIuMDQtMC45Ny0zLjYzLTIuNjItNC44MmMtMC45OS0wLjcxLTIuMTItMS4wNy0zLjM0LTEuMDdjLTIuNTIsMC00LjMzLDEuMjctNS40MiwzLjUzQzMuMTcsODcuMzYsMy4wMSw4OC4xOCwzLjAxLDg5LjAyeiAgICAgIE0xNC45Miw4Mi4zdi02LjM1YzAtMC44MywwLjUyLTEuNSwxLjM4LTEuNWgwLjI0YzAuODcsMCwxLjM4LDAuNjcsMS4zOCwxLjV2MTMuMzdjMCwzLjI2LTEuNjEsNS44NS00LjQxLDcuNTEgICAgIGMtMS4zLDAuNzYtMi43NCwxLjE2LTQuMjUsMS4xNmgtMC42Yy0zLjI2LDAtNS44NS0xLjYyLTcuNS00LjQyQzAuMzksOTIuMjcsMCw5MC44MywwLDg5LjMydi0wLjU5YzAtMy4yNiwxLjYxLTUuODYsNC40MS03LjUxICAgICBjMS4zMS0wLjc3LDIuNzQtMS4xNiw0LjI1LTEuMTZoMC42QzExLjQ3LDgwLjA2LDEzLjM0LDgwLjkxLDE0LjkyLDgyLjN6Ii8+JiN4YTsJCTwvZz4mI3hhOwkJPGcgaWQ9InNoYXBlMTM3OS00IiB0cmFuc2Zvcm09InRyYW5zbGF0ZSgxMS44MzQzLC0yNy41NDkzKSI+JiN4YTsJCQk8dGl0bGUgaWQ9InRpdGxlMTY2MzkzIj5vdXRsaW5lXzdfPC90aXRsZT4mI3hhOwkJCTxwYXRoIGlkPSJwYXRoMTY2Mzk1IiBpbmtzY2FwZTpjb25uZWN0b3ItY3VydmF0dXJlPSIwIiBzdHlsZT0iZmlsbDojMzk0RDU0OyIgZD0iTTQ1LjQsNjAuMDloOC44N3Y5LjA3aDQuNDkgICAgIGMyLjA3LDAsNC4yLTAuMzcsNi4xNi0xLjA0YzAuOTYtMC4zMiwyLjA1LTAuNzgsMy0xLjM1Yy0xLjI2LTEuNjQtMS44OS0zLjctMi4wOC01Ljc0Yy0wLjI2LTIuNzYsMC4zLTYuMzcsMi4xNy04LjUzbDAuOTQtMS4wOCAgICAgbDEuMTEsMC44OWMyLjgsMi4yNSw1LjE1LDUuMzksNS41Niw4Ljk3YzMuMzctMC45OSw3LjMzLTAuNzYsMTAuMywwLjk2bDEuMjIsMC43bC0wLjY0LDEuMjVjLTIuNTIsNC45MS03Ljc3LDYuNDItMTIuOSw2LjE1ICAgICBjLTcuNjgsMTkuMTQtMjQuNDEsMjguMi00NC42OCwyOC4yYy0xMC40OCwwLTIwLjA5LTMuOTItMjUuNTctMTMuMjJsLTAuMDktMC4xNWwtMC43OS0xLjYyQzAuNjIsNzkuNDYsMCw3NC45OCwwLjQyLDcwLjUgICAgIGwwLjEyLTEuMzRoNy41OXYtOS4wN0gxN3YtOC44OGgxNy43NXYtOC44N2gxMC42NHYxNy43NUg0NS40eiIvPiYjeGE7CQk8L2c+JiN4YTsJCTxnIGlkPSJncm91cDEzODAtNiIgdHJhbnNmb3JtPSJ0cmFuc2xhdGUoMTMuMjcwMywtMjkuMDI4NikiPiYjeGE7CQkJPHRpdGxlIGlkPSJ0aXRsZTE2NjM5OCI+Ym9keV9jb2xvcnNfOF88L3RpdGxlPiYjeGE7CQkJPGcgaWQ9InNoYXBlMTM4MS03Ij4mI3hhOwkJCQk8dGl0bGUgaWQ9InRpdGxlMTY2NDAwIj5TaGVldC4xMzgxPC90aXRsZT4mI3hhOwkJCQk8cGF0aCBpZD0icGF0aDE2NjQwMiIgaW5rc2NhcGU6Y29ubmVjdG9yLWN1cnZhdHVyZT0iMCIgc3R5bGU9ImZpbGw6IzAwQUFEQTsiIGQ9Ik03Mi43MSw2NC45MmMwLjU5LTQuNjItMi44Ny04LjI1LTUuMDItOS45OCAgICAgIGMtMi40NywyLjg2LTIuODUsMTAuMzUsMS4wMywxMy41MWMtMi4xNywxLjkyLTYuNzMsMy42Ni0xMS40LDMuNjZIMC40NUMwLDc2Ljk5LDAuODYsODEuNDgsMi44MSw4NS4zM2wwLjY1LDEuMTggICAgICBjMC40MSwwLjY5LDAuODYsMS4zNiwxLjM0LDIuMDFsMCwwYzIuMzQsMC4xNSw0LjQ5LDAuMiw2LjQ2LDAuMTZjMCwwLDAsMCwwLjAxLDBjMy44Ny0wLjA5LDcuMDMtMC41NCw5LjQzLTEuMzcgICAgICBjMC4zNi0wLjEzLDAuNzUsMC4wNiwwLjg3LDAuNDJjMC4xMiwwLjM1LTAuMDcsMC43NC0wLjQyLDAuODdjLTAuMzIsMC4xMS0wLjY1LDAuMjEtMSwwLjMxbDAsMGMtMS44OSwwLjU0LTMuOTEsMC45LTYuNTIsMS4wNiAgICAgIGMwLjE2LDAtMC4xNiwwLjAyLTAuMTYsMC4wMmMtMC4wOSwwLjAxLTAuMiwwLjAyLTAuMjksMC4wM2MtMS4wMywwLjA1LTIuMTQsMC4wNy0zLjI3LDAuMDdjLTEuMjQsMC0yLjQ2LTAuMDMtMy44My0wLjEgICAgICBsLTAuMDMsMC4wM2M0LjczLDUuMzIsMTIuMTQsOC41MiwyMS40Myw4LjUyYzE5LjY1LDAsMzYuMzItOC43Miw0My43LTI4LjI4YzUuMjQsMC41NCwxMC4yNy0wLjc5LDEyLjU2LTUuMjYgICAgICBDODAuMSw2Mi44OSw3NS40MSw2My41Niw3Mi43MSw2NC45MnoiLz4mI3hhOwkJCTwvZz4mI3hhOwkJCTxnIGlkPSJzaGFwZTEzODItOSIgdHJhbnNmb3JtPSJ0cmFuc2xhdGUoMy41ODk0NiwtNS4xNDc2MSkiPiYjeGE7CQkJCTx0aXRsZSBpZD0idGl0bGUxNjY0MDUiPlNoZWV0LjEzODI8L3RpdGxlPiYjeGE7CQkJCTxwYXRoIGlkPSJwYXRoMTY2NDA3IiBpbmtzY2FwZTpjb25uZWN0b3ItY3VydmF0dXJlPSIwIiBzdHlsZT0iZmlsbDojMjRCOEVCOyIgZD0iTTY5LjEyLDcwLjA3YzAuNTktNC42My0yLjg3LTguMjYtNS4wMS05Ljk4ICAgICAgYy0yLjQ4LDIuODYtMi44NiwxMC4zNSwxLjAyLDEzLjUxYy0yLjE3LDEuOTItNi43MywzLjY2LTExLjQsMy42NkgwLjIzQzAsODQuNzMsMi43Nyw5MC40LDcuNjcsOTMuODNjMCwwLDAsMCwwLjAxLDAgICAgICBjMy44Ny0wLjA5LDcuMDMtMC41NSw5LjQzLTEuMzhjMC4zNi0wLjEyLDAuNzUsMC4wNywwLjg3LDAuNDNjMC4xMiwwLjM1LTAuMDcsMC43NC0wLjQyLDAuODZjLTAuMzIsMC4xMi0wLjY1LDAuMjItMSwwLjMybDAsMCAgICAgIGMtMS44OSwwLjUzLTQuMDgsMC45NC02LjY5LDEuMTFjMCwwLTAuMDctMC4wNy0wLjA3LTAuMDZjNi42OSwzLjQzLDE2LjM5LDMuNDEsMjcuNTEtMC44NmMxMi40Ny00Ljc5LDI0LjA3LTEzLjkxLDMyLjE2LTI0LjM1ICAgICAgQzY5LjM1LDY5Ljk1LDY5LjIzLDcwLjAxLDY5LjEyLDcwLjA3eiIvPiYjeGE7CQkJPC9nPiYjeGE7CQkJPGcgaWQ9InNoYXBlMTM4My0xMSIgdHJhbnNmb3JtPSJ0cmFuc2xhdGUoMC41NjA5MzMpIj4mI3hhOwkJCQk8dGl0bGUgaWQ9InRpdGxlMTY2NDEwIj5TaGVldC4xMzgzPC90aXRsZT4mI3hhOwkJCQk8cGF0aCBpZD0icGF0aDE2NjQxMiIgaW5rc2NhcGU6Y29ubmVjdG9yLWN1cnZhdHVyZT0iMCIgc3R5bGU9ImZpbGw6IzAwOEJCODsiIGQ9Ik0wLDc4LjA0YzAuMzUsMi42MSwxLjEyLDUuMDYsMi4yNSw3LjI4ICAgICAgbDAuNjUsMS4xOWMwLjQxLDAuNjksMC44NSwxLjM2LDEuMzQsMi4wMWMyLjM0LDAuMTUsNC40OSwwLjIsNi40NiwwLjE2YzMuODgtMC4wOSw3LjA0LTAuNTQsOS40NC0xLjM4ICAgICAgYzAuMzYtMC4xMiwwLjc0LDAuMDcsMC44NywwLjQzYzAuMTIsMC4zNS0wLjA3LDAuNzQtMC40MiwwLjg3Yy0wLjMyLDAuMTEtMC42NiwwLjIxLTEsMC4zMWwwLDBjLTEuODksMC41NC00LjA3LDAuOTItNi42OCwxLjA4ICAgICAgQzEyLjgyLDkwLDEyLjY2LDkwLDEyLjU3LDkwLjAxYy0xLjAyLDAuMDUtMi4xMiwwLjA5LTMuMjYsMC4wOWMtMS4yNCwwLTIuNTEtMC4wMi0zLjg3LTAuMDljNC43NCw1LjMyLDEyLjE5LDguNTMsMjEuNDgsOC41MyAgICAgIGMxNi44MiwwLDMxLjQ2LTYuMzksMzkuOTYtMjAuNUwwLDc4LjA0eiIvPiYjeGE7CQkJPC9nPiYjeGE7CQkJPGcgaWQ9InNoYXBlMTM4NC0xMyIgdHJhbnNmb3JtPSJ0cmFuc2xhdGUoNC4zMzM1NiwtNS4xMTE5OSkiPiYjeGE7CQkJCTx0aXRsZSBpZD0idGl0bGUxNjY0MTUiPlNoZWV0LjEzODQ8L3RpdGxlPiYjeGE7CQkJCTxwYXRoIGlkPSJwYXRoMTY2NDE3IiBpbmtzY2FwZTpjb25uZWN0b3ItY3VydmF0dXJlPSIwIiBzdHlsZT0iZmlsbDojMDM5QkM2OyIgZD0iTTAsODMuMTVjMS4wMSw0LjU5LDMuNDIsOC4xOSw2LjkzLDEwLjY0ICAgICAgYzMuODgtMC4wOCw3LjA0LTAuNTQsOS40NC0xLjM3YzAuMzUtMC4xMywwLjc0LDAuMDYsMC44NywwLjQyYzAuMTIsMC4zNi0wLjA3LDAuNzQtMC40MywwLjg3Yy0wLjMyLDAuMTEtMC42NSwwLjIxLTAuOTksMC4zMSAgICAgIGwwLDBjLTEuODksMC41NC00LjEyLDAuOTItNi43MywxLjA5YzYuNjksMy40MywxNi4zNiwzLjM4LDI3LjQ3LTAuODljNi43My0yLjU5LDEzLjItNi40MywxOS4wMS0xMS4wN0wwLDgzLjE1eiIvPiYjeGE7CQkJPC9nPiYjeGE7CQk8L2c+JiN4YTsJCTxnIGlkPSJzaGFwZTEzODUtMTUiIHRyYW5zZm9ybT0idHJhbnNsYXRlKDE2Ljk1OSwtMzcuNTAzNikiPiYjeGE7CQkJPHRpdGxlIGlkPSJ0aXRsZTE2NjQyMSI+U2hlZXQuMTM4NTwvdGl0bGU+JiN4YTsJCQk8cGF0aCBpZD0icGF0aDE2NjQyMyIgaW5rc2NhcGU6Y29ubmVjdG9yLWN1cnZhdHVyZT0iMCIgc3R5bGU9ImZpbGw6IzM5NEQ1NDsiIGQ9Ik02LjIsOTguNTRjMS4xMywwLDIuMjEtMC4wMywzLjI0LTAuMDkgICAgIGMwLjA5LTAuMDEsMC4xNy0wLjAxLDAuMjYtMC4wMmMwLjAxLDAsMC4wMSwwLDAuMDEsMGMyLjYxLTAuMTYsNC44Ny0wLjUxLDYuNzUtMS4wNWwwLDBjMC4zNS0wLjA5LDAuNjgtMC4yLDEtMC4zMSAgICAgYzAuMzUtMC4xMiwwLjU0LTAuNTEsMC40Mi0wLjg3Yy0wLjEyLTAuMzUtMC41MS0wLjU0LTAuODctMC40MmMtMi40LDAuODMtNS41NiwxLjI5LTkuNDMsMS4zN2wwLDBjLTEuOTgsMC4wNS00LjEzLDAtNi40Ny0wLjE1ICAgICBsMCwwYy0wLjEyLTAuMDEtMC4yNC0wLjAyLTAuMzYtMC4wM2MtMC4zNy0wLjAyLTAuNywwLjI2LTAuNzIsMC42NGMtMC4wMywwLjM3LDAuMjUsMC43LDAuNjMsMC43MyAgICAgYzAuNDgsMC4wMywwLjk1LDAuMDYsMS40MSwwLjA4YzAuMDcsMCwwLjE0LDAuMDEsMC4yMiwwLjAxQzMuNjUsOTguNSw0Ljk2LDk4LjU0LDYuMiw5OC41NEw2LjIsOTguNTR6Ii8+JiN4YTsJCTwvZz4mI3hhOwkJPGcgaWQ9Imdyb3VwMTM4Ni0xNyIgdHJhbnNmb3JtPSJ0cmFuc2xhdGUoMjEuNDQyNiwtNTYuODI5NykiPiYjeGE7CQkJPHRpdGxlIGlkPSJ0aXRsZTE2NjQyNiI+Q29udGFpbmVyc184XzwvdGl0bGU+JiN4YTsJCQk8ZyBpZD0ic2hhcGUxMzg3LTE4Ij4mI3hhOwkJCQk8dGl0bGUgaWQ9InRpdGxlMTY2NDI4Ij5TaGVldC4xMzg3PC90aXRsZT4mI3hhOwkJCQk8cGF0aCBpZD0icGF0aDE2NjQzMCIgaW5rc2NhcGU6Y29ubmVjdG9yLWN1cnZhdHVyZT0iMCIgc3R5bGU9ImZpbGw6IzAwQUNEMzsiIGQ9Ik02LjQ0LDkxLjQ5aDAuNjF2Ni40SDYuNDRWOTEuNDl6IE01LjI4LDkxLjQ5ICAgICAgaDAuNjN2Ni40SDUuMjhWOTEuNDl6IE00LjExLDkxLjQ5aDAuNjN2Ni40SDQuMTFWOTEuNDl6IE0yLjk1LDkxLjQ5aDAuNjN2Ni40SDIuOTVMMi45NSw5MS40OXogTTEuNzgsOTEuNDloMC42M3Y2LjRIMS43OCAgICAgIEwxLjc4LDkxLjQ5eiBNMC42NCw5MS40OWgwLjYxdjYuNEgwLjY0TDAuNjQsOTEuNDl6IE0wLDkwLjg1aDcuNjl2Ny42OUgwVjkwLjg1eiIvPiYjeGE7CQkJPC9nPiYjeGE7CQkJPGcgaWQ9InNoYXBlMTM4OC0yMCIgdHJhbnNmb3JtPSJ0cmFuc2xhdGUoOC44NzE5LC04Ljg3MzE3KSI+JiN4YTsJCQkJPHRpdGxlIGlkPSJ0aXRsZTE2NjQzMyI+U2hlZXQuMTM4ODwvdGl0bGU+JiN4YTsJCQkJPHBhdGggaWQ9InBhdGgxNjY0MzUiIGlua3NjYXBlOmNvbm5lY3Rvci1jdXJ2YXR1cmU9IjAiIHN0eWxlPSJmaWxsOiMwMEFDRDM7IiBkPSJNNi40NCw5MS40OWgwLjYxdjYuNDFINi40NFY5MS40OXogICAgICAgTTUuMjgsOTEuNDloMC42M3Y2LjQxSDUuMjhWOTEuNDl6IE00LjExLDkxLjQ5aDAuNjN2Ni40MUg0LjExVjkxLjQ5eiBNMi45NSw5MS40OWgwLjYzdjYuNDFIMi45NUwyLjk1LDkxLjQ5eiBNMS43OCw5MS40OSAgICAgIGgwLjYzdjYuNDFIMS43OEwxLjc4LDkxLjQ5eiBNMC42NCw5MS40OWgwLjYxdjYuNDFIMC42NEwwLjY0LDkxLjQ5eiBNMCw5MC44NWg3LjY5djcuNjlIMFY5MC44NXoiLz4mI3hhOwkJCTwvZz4mI3hhOwkJCTxnIGlkPSJzaGFwZTEzODktMjIiIHRyYW5zZm9ybT0idHJhbnNsYXRlKDguODcxOSkiPiYjeGE7CQkJCTx0aXRsZSBpZD0idGl0bGUxNjY0MzgiPlNoZWV0LjEzODk8L3RpdGxlPiYjeGE7CQkJCTxwYXRoIGlkPSJwYXRoMTY2NDQwIiBpbmtzY2FwZTpjb25uZWN0b3ItY3VydmF0dXJlPSIwIiBzdHlsZT0iZmlsbDojMjBDMkVGOyIgZD0iTTYuNDQsOTEuNDloMC42MXY2LjRINi40NFY5MS40OXogTTUuMjgsOTEuNDkgICAgICBoMC42M3Y2LjRINS4yOFY5MS40OXogTTQuMTEsOTEuNDloMC42M3Y2LjRINC4xMVY5MS40OXogTTIuOTUsOTEuNDloMC42M3Y2LjRIMi45NUwyLjk1LDkxLjQ5eiBNMS43OCw5MS40OWgwLjYzdjYuNEgxLjc4ICAgICAgTDEuNzgsOTEuNDl6IE0wLjY0LDkxLjQ5aDAuNjF2Ni40SDAuNjRMMC42NCw5MS40OXogTTAsOTAuODVoNy42OXY3LjY5SDBWOTAuODV6Ii8+JiN4YTsJCQk8L2c+JiN4YTsJCQk8ZyBpZD0ic2hhcGUxMzkwLTI0IiB0cmFuc2Zvcm09InRyYW5zbGF0ZSgxNy43NDYzKSI+JiN4YTsJCQkJPHRpdGxlIGlkPSJ0aXRsZTE2NjQ0MyI+U2hlZXQuMTM5MDwvdGl0bGU+JiN4YTsJCQkJPHBhdGggaWQ9InBhdGgxNjY0NDUiIGlua3NjYXBlOmNvbm5lY3Rvci1jdXJ2YXR1cmU9IjAiIHN0eWxlPSJmaWxsOiMwMEFDRDM7IiBkPSJNNi40NCw5MS40OWgwLjYxdjYuNEg2LjQ0VjkxLjQ5eiBNNS4yOCw5MS40OSAgICAgIGgwLjYzdjYuNEg1LjI4VjkxLjQ5eiBNNC4xMSw5MS40OWgwLjYzdjYuNEg0LjExVjkxLjQ5eiBNMi45NSw5MS40OWgwLjYzdjYuNEgyLjk1TDIuOTUsOTEuNDl6IE0xLjc4LDkxLjQ5aDAuNjN2Ni40SDEuNzggICAgICBMMS43OCw5MS40OXogTTAuNjQsOTEuNDloMC42MXY2LjRIMC42NEwwLjY0LDkxLjQ5eiBNMCw5MC44NWg3LjY5djcuNjlIMFY5MC44NXoiLz4mI3hhOwkJCTwvZz4mI3hhOwkJCTxnIGlkPSJzaGFwZTEzOTEtMjYiIHRyYW5zZm9ybT0idHJhbnNsYXRlKDE3Ljc0NjMsLTguODczMTcpIj4mI3hhOwkJCQk8dGl0bGUgaWQ9InRpdGxlMTY2NDQ4Ij5TaGVldC4xMzkxPC90aXRsZT4mI3hhOwkJCQk8cGF0aCBpZD0icGF0aDE2NjQ1MCIgaW5rc2NhcGU6Y29ubmVjdG9yLWN1cnZhdHVyZT0iMCIgc3R5bGU9ImZpbGw6IzIwQzJFRjsiIGQ9Ik02LjQ0LDkxLjQ5aDAuNjF2Ni40MUg2LjQ0VjkxLjQ5eiAgICAgICBNNS4yOCw5MS40OWgwLjYzdjYuNDFINS4yOFY5MS40OXogTTQuMTEsOTEuNDloMC42M3Y2LjQxSDQuMTFWOTEuNDl6IE0yLjk1LDkxLjQ5aDAuNjN2Ni40MUgyLjk1TDIuOTUsOTEuNDl6IE0xLjc4LDkxLjQ5ICAgICAgaDAuNjN2Ni40MUgxLjc4TDEuNzgsOTEuNDl6IE0wLjY0LDkxLjQ5aDAuNjF2Ni40MUgwLjY0TDAuNjQsOTEuNDl6IE0wLDkwLjg1aDcuNjl2Ny42OUgwVjkwLjg1eiIvPiYjeGE7CQkJPC9nPiYjeGE7CQkJPGcgaWQ9InNoYXBlMTM5Mi0yOCIgdHJhbnNmb3JtPSJ0cmFuc2xhdGUoMjYuNjE4MikiPiYjeGE7CQkJCTx0aXRsZSBpZD0idGl0bGUxNjY0NTMiPlNoZWV0LjEzOTI8L3RpdGxlPiYjeGE7CQkJCTxwYXRoIGlkPSJwYXRoMTY2NDU1IiBpbmtzY2FwZTpjb25uZWN0b3ItY3VydmF0dXJlPSIwIiBzdHlsZT0iZmlsbDojMjBDMkVGOyIgZD0iTTYuNDQsOTEuNDloMC42MXY2LjRINi40NFY5MS40OXogTTUuMjgsOTEuNDkgICAgICBoMC42M3Y2LjRINS4yOFY5MS40OXogTTQuMTEsOTEuNDloMC42M3Y2LjRINC4xMVY5MS40OXogTTIuOTUsOTEuNDloMC42M3Y2LjRIMi45NUwyLjk1LDkxLjQ5eiBNMS43OCw5MS40OWgwLjYzdjYuNEgxLjc4ICAgICAgTDEuNzgsOTEuNDl6IE0wLjY0LDkxLjQ5aDAuNjF2Ni40SDAuNjRMMC42NCw5MS40OXogTTAsOTAuODVoNy42OXY3LjY5SDBWOTAuODV6Ii8+JiN4YTsJCQk8L2c+JiN4YTsJCQk8ZyBpZD0ic2hhcGUxMzkzLTMwIiB0cmFuc2Zvcm09InRyYW5zbGF0ZSgyNi42MTgyLC04Ljg3MzE3KSI+JiN4YTsJCQkJPHRpdGxlIGlkPSJ0aXRsZTE2NjQ1OCI+U2hlZXQuMTM5MzwvdGl0bGU+JiN4YTsJCQkJPHBhdGggaWQ9InBhdGgxNjY0NjAiIGlua3NjYXBlOmNvbm5lY3Rvci1jdXJ2YXR1cmU9IjAiIHN0eWxlPSJmaWxsOiMwMEFDRDM7IiBkPSJNNi40NCw5MS40OWgwLjYxdjYuNDFINi40NFY5MS40OXogICAgICAgTTUuMjgsOTEuNDloMC42M3Y2LjQxSDUuMjhWOTEuNDl6IE00LjExLDkxLjQ5aDAuNjN2Ni40MUg0LjExVjkxLjQ5eiBNMi45NSw5MS40OWgwLjYzdjYuNDFIMi45NUwyLjk1LDkxLjQ5eiBNMS43OCw5MS40OSAgICAgIGgwLjYzdjYuNDFIMS43OEwxLjc4LDkxLjQ5eiBNMC42NCw5MS40OWgwLjYxdjYuNDFIMC42NEwwLjY0LDkxLjQ5eiBNMCw5MC44NWg3LjY5djcuNjlIMFY5MC44NXoiLz4mI3hhOwkJCTwvZz4mI3hhOwkJCTxnIGlkPSJzaGFwZTEzOTQtMzIiIHRyYW5zZm9ybT0idHJhbnNsYXRlKDI2LjYxODIsLTE3Ljc0NjMpIj4mI3hhOwkJCQk8dGl0bGUgaWQ9InRpdGxlMTY2NDYzIj5TaGVldC4xMzk0PC90aXRsZT4mI3hhOwkJCQk8cGF0aCBpZD0icGF0aDE2NjQ2NSIgaW5rc2NhcGU6Y29ubmVjdG9yLWN1cnZhdHVyZT0iMCIgc3R5bGU9ImZpbGw6IzIwQzJFRjsiIGQ9Ik02LjQ0LDkxLjQ5aDAuNjF2Ni40MUg2LjQ0VjkxLjQ5eiAgICAgICBNNS4yOCw5MS40OWgwLjYzdjYuNDFINS4yOFY5MS40OXogTTQuMTEsOTEuNDloMC42M3Y2LjQxSDQuMTFWOTEuNDl6IE0yLjk1LDkxLjQ5aDAuNjN2Ni40MUgyLjk1TDIuOTUsOTEuNDl6IE0xLjc4LDkxLjQ5ICAgICAgaDAuNjN2Ni40MUgxLjc4TDEuNzgsOTEuNDl6IE0wLjY0LDkxLjQ5aDAuNjF2Ni40MUgwLjY0TDAuNjQsOTEuNDl6IE0wLDkwLjg1aDcuNjl2Ny42OUgwVjkwLjg1eiIvPiYjeGE7CQkJPC9nPiYjeGE7CQkJPGcgaWQ9InNoYXBlMTM5NS0zNCIgdHJhbnNmb3JtPSJ0cmFuc2xhdGUoMzUuNDkxNCkiPiYjeGE7CQkJCTx0aXRsZSBpZD0idGl0bGUxNjY0NjgiPlNoZWV0LjEzOTU8L3RpdGxlPiYjeGE7CQkJCTxwYXRoIGlkPSJwYXRoMTY2NDcwIiBpbmtzY2FwZTpjb25uZWN0b3ItY3VydmF0dXJlPSIwIiBzdHlsZT0iZmlsbDojMDBBQ0QzOyIgZD0iTTYuNDQsOTEuNDloMC42MXY2LjRINi40NFY5MS40OXogTTUuMjgsOTEuNDkgICAgICBoMC42M3Y2LjRINS4yOFY5MS40OXogTTQuMTEsOTEuNDloMC42M3Y2LjRINC4xMVY5MS40OXogTTIuOTUsOTEuNDloMC42M3Y2LjRIMi45NUwyLjk1LDkxLjQ5eiBNMS43OCw5MS40OWgwLjYzdjYuNEgxLjc4ICAgICAgTDEuNzgsOTEuNDl6IE0wLjY0LDkxLjQ5aDAuNjF2Ni40SDAuNjRMMC42NCw5MS40OXogTTAsOTAuODVoNy42OXY3LjY5SDBWOTAuODV6Ii8+JiN4YTsJCQk8L2c+JiN4YTsJCTwvZz4mI3hhOwkJPGcgaWQ9InNoYXBlMTM5Ni0zNiIgdHJhbnNmb3JtPSJ0cmFuc2xhdGUoMzUuNDAyNCwtNDAuMTIpIj4mI3hhOwkJCTx0aXRsZSBpZD0idGl0bGUxNjY0NzQiPlNoZWV0LjEzOTY8L3RpdGxlPiYjeGE7CQkJPHBhdGggaWQ9InBhdGgxNjY0NzYiIGlua3NjYXBlOmNvbm5lY3Rvci1jdXJ2YXR1cmU9IjAiIHN0eWxlPSJmaWxsOiNENEVERjE7IiBkPSJNMi4xMiw5NC4yOWMxLjE3LDAsMi4xMiwwLjk1LDIuMTIsMi4xMiAgICAgYzAsMS4xOC0wLjk1LDIuMTMtMi4xMiwyLjEzUzAsOTcuNTksMCw5Ni40MUMwLDk1LjI0LDAuOTUsOTQuMjksMi4xMiw5NC4yOXoiLz4mI3hhOwkJPC9nPiYjeGE7CQk8ZyBpZD0ic2hhcGUxMzk3LTM4IiB0cmFuc2Zvcm09InRyYW5zbGF0ZSgzNi4wMDQsLTQwLjcyMykiPiYjeGE7CQkJPHRpdGxlIGlkPSJ0aXRsZTE2NjQ3OSI+U2hlZXQuMTM5NzwvdGl0bGU+JiN4YTsJCQk8cGF0aCBpZD0icGF0aDE2NjQ4MSIgaW5rc2NhcGU6Y29ubmVjdG9yLWN1cnZhdHVyZT0iMCIgc3R5bGU9ImZpbGw6IzM5NEQ1NDsiIGQ9Ik0xLjUyLDk1LjVjMC4xOSwwLDAuMzgsMC4wNCwwLjU1LDAuMSAgICAgYy0wLjE5LDAuMTEtMC4zMSwwLjMxLTAuMzEsMC41NGMwLDAuMzQsMC4yOCwwLjYyLDAuNjIsMC42MmMwLjIzLDAsMC40NC0wLjEzLDAuNTQtMC4zM2MwLjA4LDAuMTgsMC4xMiwwLjM4LDAuMTIsMC41OSAgICAgYzAsMC44NC0wLjY4LDEuNTItMS41MiwxLjUyQzAuNjgsOTguNTQsMCw5Ny44NiwwLDk3LjAyUzAuNjgsOTUuNSwxLjUyLDk1LjV6Ii8+JiN4YTsJCTwvZz4mI3hhOwkJPGcgaWQ9InNoYXBlMTM5OC00MCIgdHJhbnNmb3JtPSJ0cmFuc2xhdGUoMCwtNDguMDcyMykiPiYjeGE7CQkJPHRpdGxlIGlkPSJ0aXRsZTE2NjQ4NCI+U2hlZXQuMTM5ODwvdGl0bGU+JiN4YTsJCQk8cGF0aCBpZD0icGF0aDE2NjQ4NiIgaW5rc2NhcGU6Y29ubmVjdG9yLWN1cnZhdHVyZT0iMCIgc3R5bGU9ImZpbGw6IzM5NEQ1NDsiIGQ9Ik0wLDk3Ljg1aDQ2LjQ3aDUuNzVoNDYuNDcgICAgIGMtMi4xNS0wLjU1LTYuOC0xLjI4LTYuMDMtNC4xYy0zLjkxLDQuNTItMTMuMzMsMy4xNy0xNS43MSwwLjk0Yy0yLjY1LDMuODUtMTguMDcsMi4zOS0xOS4xNC0wLjYxYy0zLjMyLDMuOS0xMy42MSwzLjktMTYuOTMsMCAgICAgYy0xLjA4LDIuOTktMTYuNDksNC40NS0xOS4xNCwwLjYxYy0yLjM4LDIuMjMtMTEuOCwzLjU4LTE1LjcxLTAuOTRDNi44LDk2LjU3LDIuMTUsOTcuMywwLDk3Ljg1eiIvPiYjeGE7CQk8L2c+JiN4YTsJCTxnIGlkPSJzaGFwZTEzOTktNDIiIHRyYW5zZm9ybT0idHJhbnNsYXRlKDE5LjAyODUsLTI5LjAyODYpIj4mI3hhOwkJCTx0aXRsZSBpZD0idGl0bGUxNjY0ODkiPlNoZWV0LjEzOTk8L3RpdGxlPiYjeGE7CQkJPHBhdGggaWQ9InBhdGgxNjY0OTEiIGlua3NjYXBlOmNvbm5lY3Rvci1jdXJ2YXR1cmU9IjAiIHN0eWxlPSJmaWxsOiNCRkRCRTA7IiBkPSJNMjQuMTQsOTguNDlDMTguODgsOTYsMTYsOTIuNjEsMTQuMzksODguOTEgICAgIGMtMS45NSwwLjU1LTQuMjksMC45MS03LjAyLDEuMDZjLTEuMDMsMC4wNi0yLjExLDAuMDktMy4yNCwwLjA5Yy0xLjMxLDAtMi42OS0wLjA0LTQuMTMtMC4xMmM0LjgyLDQuODIsMTAuNzUsOC41MywyMS43Miw4LjU5ICAgICBDMjIuNTMsOTguNTQsMjMuMzQsOTguNTIsMjQuMTQsOTguNDl6Ii8+JiN4YTsJCTwvZz4mI3hhOwkJPGcgaWQ9InNoYXBlMTQwMC00NCIgdHJhbnNmb3JtPSJ0cmFuc2xhdGUoMjYuMzk4MiwtMzUuMjQzNCkiPiYjeGE7CQkJPHRpdGxlIGlkPSJ0aXRsZTE2NjQ5NCI+U2hlZXQuMTQwMDwvdGl0bGU+JiN4YTsJCQk8cGF0aCBpZD0icGF0aDE2NjQ5NiIgaW5rc2NhcGU6Y29ubmVjdG9yLWN1cnZhdHVyZT0iMCIgc3R5bGU9ImZpbGw6I0Q0RURGMTsiIGQ9Ik04Ljk3LDk4LjU0Yy0wLjcyLTAuOTktMS40My0yLjIzLTEuOTQtMy40MiAgICAgYy0xLjk2LDAuNTYtNC4zLDAuOTItNy4wMywxLjA3QzEuODcsOTcuMjEsNC41NSw5OC4xNSw4Ljk3LDk4LjU0eiIvPiYjeGE7CQk8L2c+JiN4YTsJPC9nPiYjeGE7PC9nPiYjeGE7PC9zdmc+;" parent="DR9EEMrPSlY4ckPwdUAX-1" vertex="1">
                    <mxGeometry x="1237" y="436" width="99" height="83" as="geometry"/>
                </mxCell>
                <mxCell id="rqf0iKj-WmwOmlQ5HG-t-15" value="" style="shape=image;verticalLabelPosition=bottom;labelBackgroundColor=#ffffff;verticalAlign=top;aspect=fixed;imageAspect=0;image=data:image/svg+xml,PHN2ZyB4bWxuczpjYz0iaHR0cDovL2NyZWF0aXZlY29tbW9ucy5vcmcvbnMjIiB4bWxuczpkYz0iaHR0cDovL3B1cmwub3JnL2RjL2VsZW1lbnRzLzEuMS8iIHhtbG5zOmlua3NjYXBlPSJodHRwOi8vd3d3Lmlua3NjYXBlLm9yZy9uYW1lc3BhY2VzL2lua3NjYXBlIiB4bWxuczpyZGY9Imh0dHA6Ly93d3cudzMub3JnLzE5OTkvMDIvMjItcmRmLXN5bnRheC1ucyMiIHhtbG5zOnNvZGlwb2RpPSJodHRwOi8vc29kaXBvZGkuc291cmNlZm9yZ2UubmV0L0RURC9zb2RpcG9kaS0wLmR0ZCIgeG1sbnM6c3ZnPSJodHRwOi8vd3d3LnczLm9yZy8yMDAwL3N2ZyIgeG1sbnM9Imh0dHA6Ly93d3cudzMub3JnLzIwMDAvc3ZnIiB4bWxuczp4bGluaz0iaHR0cDovL3d3dy53My5vcmcvMTk5OS94bGluayIgdmVyc2lvbj0iMS4xIiBpZD0ic3ZnMTgxMjY3IiBpbmtzY2FwZTp2ZXJzaW9uPSIwLjkyLjMgKDI0MDU1NDYsIDIwMTgtMDMtMTEpIiBzb2RpcG9kaTpkb2NuYW1lPSJqcy5zdmciIHg9IjBweCIgeT0iMHB4IiB2aWV3Qm94PSIwIDAgMjkuODMgNDIuMTEiIHN0eWxlPSJlbmFibGUtYmFja2dyb3VuZDpuZXcgMCAwIDI5LjgzIDQyLjExOyIgeG1sOnNwYWNlPSJwcmVzZXJ2ZSI+JiN4YTs8c29kaXBvZGk6bmFtZWR2aWV3IGJvcmRlcmNvbG9yPSIjNjY2NjY2IiBib3JkZXJvcGFjaXR5PSIxIiBmaXQtbWFyZ2luLWJvdHRvbT0iMCIgZml0LW1hcmdpbi1sZWZ0PSIwIiBmaXQtbWFyZ2luLXJpZ2h0PSIwIiBmaXQtbWFyZ2luLXRvcD0iMCIgZ3JpZHRvbGVyYW5jZT0iMTAiIGd1aWRldG9sZXJhbmNlPSIxMCIgaWQ9Im5hbWVkdmlldzE4MTI2OSIgaW5rc2NhcGU6Y3VycmVudC1sYXllcj0ic3ZnMTgxMjY3IiBpbmtzY2FwZTpjeD0iMTkuODg0ODQ5IiBpbmtzY2FwZTpjeT0iMjguMDcyNTA4IiBpbmtzY2FwZTpwYWdlb3BhY2l0eT0iMCIgaW5rc2NhcGU6cGFnZXNoYWRvdz0iMiIgaW5rc2NhcGU6d2luZG93LWhlaWdodD0iMTAxNyIgaW5rc2NhcGU6d2luZG93LW1heGltaXplZD0iMSIgaW5rc2NhcGU6d2luZG93LXdpZHRoPSIxOTIwIiBpbmtzY2FwZTp3aW5kb3cteD0iLTgiIGlua3NjYXBlOndpbmRvdy15PSItOCIgaW5rc2NhcGU6em9vbT0iMTQuOTEwMTg3IiBvYmplY3R0b2xlcmFuY2U9IjEwIiBwYWdlY29sb3I9IiNmZmZmZmYiIHNob3dncmlkPSJmYWxzZSI+JiN4YTsJPC9zb2RpcG9kaTpuYW1lZHZpZXc+JiN4YTs8ZyBpZD0iZzE4MTI2NSIgdHJhbnNmb3JtPSJ0cmFuc2xhdGUoLTAuNzUsLTAuNzQ4NjkzMzYpIj4mI3hhOwk8dGl0bGUgaWQ9InRpdGxlMTgxMjA5Ij5QYWdlLTE8L3RpdGxlPiYjeGE7CTxnIGlkPSJncm91cDExMjItMSIgdHJhbnNmb3JtPSJ0cmFuc2xhdGUoMC43NSwtMC43NSkiPiYjeGE7CQk8dGl0bGUgaWQ9InRpdGxlMTgxMjExIj5KUzwvdGl0bGU+JiN4YTsJCTxnIGlkPSJzaGFwZTExMjMtMiI+JiN4YTsJCQk8dGl0bGUgaWQ9InRpdGxlMTgxMjEzIj5TaGVldC4xMTIzPC90aXRsZT4mI3hhOwkJCTxwYXRoIGlkPSJwYXRoMTgxMjE1IiBpbmtzY2FwZTpjb25uZWN0b3ItY3VydmF0dXJlPSIwIiBzdHlsZT0iZmlsbDojRTRBMjI3OyIgZD0iTTIuNzEsNDAuMjNMMCw5Ljc4aDI5LjgzbC0yLjcyLDMwLjQ0ICAgICBMMTQuOSw0My42MUwyLjcxLDQwLjIzeiIvPiYjeGE7CQk8L2c+JiN4YTsJCTxnIGlkPSJzaGFwZTExMjQtNCIgdHJhbnNmb3JtPSJ0cmFuc2xhdGUoMTQuODg4NiwtMi42MjYwNCkiPiYjeGE7CQkJPHRpdGxlIGlkPSJ0aXRsZTE4MTIxOCI+U2hlZXQuMTEyNDwvdGl0bGU+JiN4YTsJCQk8cGF0aCBpZD0icGF0aDE4MTIyMCIgaW5rc2NhcGU6Y29ubmVjdG9yLWN1cnZhdHVyZT0iMCIgc3R5bGU9ImZpbGw6I0YwQkYyNjsiIGQ9Ik0wLDQzLjYxbDkuODctMi43NGwyLjMyLTI2LjAxSDBWNDMuNjF6Ii8+JiN4YTsJCTwvZz4mI3hhOwkJPGcgaWQ9Imdyb3VwMTEyNS02IiB0cmFuc2Zvcm09InRyYW5zbGF0ZSg5LjUwNjUyLC0zNi40Mjg5KSI+JiN4YTsJCQk8dGl0bGUgaWQ9InRpdGxlMTgxMjIzIj5TaGVldC4xMTI1PC90aXRsZT4mI3hhOwkJCTxnIGlkPSJzaGFwZTExMjYtNyIgdHJhbnNmb3JtPSJ0cmFuc2xhdGUoNS41MTEzKSI+JiN4YTsJCQkJPHRpdGxlIGlkPSJ0aXRsZTE4MTIyNSI+U2hlZXQuMTEyNjwvdGl0bGU+JiN4YTsJCQkJPHBhdGggaWQ9InBhdGgxODEyMjciIGlua3NjYXBlOmNvbm5lY3Rvci1jdXJ2YXR1cmU9IjAiIHN0eWxlPSJmaWxsOiMxNTE1MTU7IiBkPSJNNS4yLDM5LjQ5SDIuNzNsMi41NywyLjc5djEuMzNIMHYtMS41NmgyLjU3ICAgICAgTDAsMzkuMjZ2LTEuMzNoNS4yVjM5LjQ5eiIvPiYjeGE7CQkJPC9nPiYjeGE7CQkJPGcgaWQ9InNoYXBlMTEyNy05IiB0cmFuc2Zvcm09InRyYW5zbGF0ZSgwLC0wLjAwMjQwNjY0KSI+JiN4YTsJCQkJPHRpdGxlIGlkPSJ0aXRsZTE4MTIzMCI+U2hlZXQuMTEyNzwvdGl0bGU+JiN4YTsJCQkJPHBhdGggaWQ9InBhdGgxODEyMzIiIGlua3NjYXBlOmNvbm5lY3Rvci1jdXJ2YXR1cmU9IjAiIHN0eWxlPSJmaWxsOiMwMjAyMDI7IiBkPSJNNC41NywzNy45M3Y1LjY4SDB2LTEuODhoMi42N3YtMy44SDQuNTd6Ii8+JiN4YTsJCQk8L2c+JiN4YTsJCTwvZz4mI3hhOwkJPGcgaWQ9InNoYXBlMTEyOC0xMSIgdHJhbnNmb3JtPSJ0cmFuc2xhdGUoNi42OTM2NiwtNi40OTM1MSkiPiYjeGE7CQkJPHRpdGxlIGlkPSJ0aXRsZTE4MTIzNiI+U2hlZXQuMTEyODwvdGl0bGU+JiN4YTsJCQk8cGF0aCBpZD0icGF0aDE4MTIzOCIgaW5rc2NhcGU6Y29ubmVjdG9yLWN1cnZhdHVyZT0iMCIgc3R5bGU9ImZpbGw6I0VCRUJFQjsiIGQ9Ik04LjE5LDM5LjcybC0wLjAyLDAuMDFMNC4wMSwzOC42bC0wLjI2LTIuOTggICAgIEgxLjczSDBsMC41Miw1Ljg3bDcuNjUsMi4xMmgwLjAyTDguMTksMzkuNzJ6Ii8+JiN4YTsJCTwvZz4mI3hhOwkJPGcgaWQ9InNoYXBlMTEyOS0xMyIgdHJhbnNmb3JtPSJ0cmFuc2xhdGUoNi43MDYxLC0xNi4zNDg5KSI+JiN4YTsJCQk8dGl0bGUgaWQ9InRpdGxlMTgxMjQxIj5TaGVldC4xMTI5PC90aXRsZT4mI3hhOwkJCTxwYXRoIGlkPSJwYXRoMTgxMjQzIiBpbmtzY2FwZTpjb25uZWN0b3ItY3VydmF0dXJlPSIwIiBzdHlsZT0iZmlsbDojRUJFQkVCOyIgZD0iTTguNjgsNDMuNjF2LTMuNzNoLTQuNmwwLjU0LTUuODZsNC4wNy0wLjExICAgICBsLTAuMDEtMy44OEgxLjI0bC0wLjI3LDIuNzVsLTAuODgsOS44M2wtMC4wOSwxaDEuMDFIOC42OHoiLz4mI3hhOwkJPC9nPiYjeGE7CQk8ZyBpZD0ic2hhcGUxMTMwLTE1IiB0cmFuc2Zvcm09InRyYW5zbGF0ZSgxNS4zNjA2LC0yMS45NTAxKSI+JiN4YTsJCQk8dGl0bGUgaWQ9InRpdGxlMTgxMjQ2Ij5TaGVldC4xMTMwPC90aXRsZT4mI3hhOwkJCTxwYXRoIGlkPSJwYXRoMTgxMjQ4IiBpbmtzY2FwZTpjb25uZWN0b3ItY3VydmF0dXJlPSIwIiBzdHlsZT0iZmlsbDojRkZGRkZGOyIgZD0iTTAsMzkuNTFoMC4wMmw0LjA3LDAuMjVsMC4zNSwzLjg1aDIuMDJoMS43MyAgICAgTDcuNTQsMzYuNGwtNy41Mi0wLjc4TDAsMzUuNjNWMzkuNTF6Ii8+JiN4YTsJCTwvZz4mI3hhOwkJPGcgaWQ9InNoYXBlMTEzMS0xNyIgdHJhbnNmb3JtPSJ0cmFuc2xhdGUoMTQuOTYyOCwtMjYuMDM1KSI+JiN4YTsJCQk8dGl0bGUgaWQ9InRpdGxlMTgxMjUxIj5TaGVldC4xMTMxPC90aXRsZT4mI3hhOwkJCTxwYXRoIGlkPSJwYXRoMTgxMjUzIiBpbmtzY2FwZTpjb25uZWN0b3ItY3VydmF0dXJlPSIwIiBzdHlsZT0iZmlsbDojRkZGRkZGOyIgZD0iTTguMiw0My42MWwtMC4zMi0zLjlIMHYyLjQydjEuNDd2MC4wMSAgICAgTDguMiw0My42MXoiLz4mI3hhOwkJPC9nPiYjeGE7CQk8ZyBpZD0ic2hhcGUxMTMyLTE5IiB0cmFuc2Zvcm09InRyYW5zbGF0ZSgxNC44Njk5LC02LjQ5NTMyKSI+JiN4YTsJCQk8dGl0bGUgaWQ9InRpdGxlMTgxMjU2Ij5TaGVldC4xMTMyPC90aXRsZT4mI3hhOwkJCTxwYXRoIGlkPSJwYXRoMTgxMjU4IiBpbmtzY2FwZTpjb25uZWN0b3ItY3VydmF0dXJlPSIwIiBzdHlsZT0iZmlsbDojRkZGRkZGOyIgZD0iTTAsMzAuMDN2My43M2g0LjZMNC4xNiwzOC42TDAsMzkuNzN2My44OCAgICAgbDcuNjYtMi4xMmwwLjA1LTAuNjNsMC44OC05LjgzbDAuMDktMUg3LjY3SDB6Ii8+JiN4YTsJCTwvZz4mI3hhOwkJPGcgaWQ9InNoYXBlMTEzMy0yMSIgdHJhbnNmb3JtPSJ0cmFuc2xhdGUoMjIuNjg1MSwtMjYuMjAwNSkiPiYjeGE7CQkJPHRpdGxlIGlkPSJ0aXRsZTE4MTI2MSI+U2hlZXQuMTEzMzwvdGl0bGU+JiN4YTsJCTwvZz4mI3hhOwk8L2c+JiN4YTs8L2c+JiN4YTs8L3N2Zz4=;direction=east;" parent="DR9EEMrPSlY4ckPwdUAX-1" vertex="1">
                    <mxGeometry x="1827.5" y="270" width="82.5" height="115.5" as="geometry"/>
                </mxCell>
                <mxCell id="rqf0iKj-WmwOmlQ5HG-t-16" value="" style="shape=image;verticalLabelPosition=bottom;labelBackgroundColor=#ffffff;verticalAlign=top;aspect=fixed;imageAspect=0;image=data:image/svg+xml,PHN2ZyB4bWxuczpjYz0iaHR0cDovL2NyZWF0aXZlY29tbW9ucy5vcmcvbnMjIiB4bWxuczpkYz0iaHR0cDovL3B1cmwub3JnL2RjL2VsZW1lbnRzLzEuMS8iIHhtbG5zOmlua3NjYXBlPSJodHRwOi8vd3d3Lmlua3NjYXBlLm9yZy9uYW1lc3BhY2VzL2lua3NjYXBlIiB4bWxuczpyZGY9Imh0dHA6Ly93d3cudzMub3JnLzE5OTkvMDIvMjItcmRmLXN5bnRheC1ucyMiIHhtbG5zOnNvZGlwb2RpPSJodHRwOi8vc29kaXBvZGkuc291cmNlZm9yZ2UubmV0L0RURC9zb2RpcG9kaS0wLmR0ZCIgeG1sbnM6c3ZnPSJodHRwOi8vd3d3LnczLm9yZy8yMDAwL3N2ZyIgeG1sbnM9Imh0dHA6Ly93d3cudzMub3JnLzIwMDAvc3ZnIiB4bWxuczp4bGluaz0iaHR0cDovL3d3dy53My5vcmcvMTk5OS94bGluayIgdmVyc2lvbj0iMS4xIiBpZD0ic3ZnMTg1NTk3IiBpbmtzY2FwZTp2ZXJzaW9uPSIwLjkyLjMgKDI0MDU1NDYsIDIwMTgtMDMtMTEpIiBzb2RpcG9kaTpkb2NuYW1lPSJub2RlanNfc2RrLnN2ZyIgeD0iMHB4IiB5PSIwcHgiIHZpZXdCb3g9IjAgMCA5MC40MyA1NS4zOCIgc3R5bGU9ImVuYWJsZS1iYWNrZ3JvdW5kOm5ldyAwIDAgOTAuNDMgNTUuMzg7IiB4bWw6c3BhY2U9InByZXNlcnZlIj4mI3hhOzxzb2RpcG9kaTpuYW1lZHZpZXcgYm9yZGVyY29sb3I9IiM2NjY2NjYiIGJvcmRlcm9wYWNpdHk9IjEiIGZpdC1tYXJnaW4tYm90dG9tPSIwIiBmaXQtbWFyZ2luLWxlZnQ9IjAiIGZpdC1tYXJnaW4tcmlnaHQ9IjAiIGZpdC1tYXJnaW4tdG9wPSIwIiBncmlkdG9sZXJhbmNlPSIxMCIgZ3VpZGV0b2xlcmFuY2U9IjEwIiBpZD0ibmFtZWR2aWV3MTg1NTk5IiBpbmtzY2FwZTpjdXJyZW50LWxheWVyPSJzdmcxODU1OTciIGlua3NjYXBlOmN4PSI2MC4yODMzNTkiIGlua3NjYXBlOmN5PSIzNi45MTk2ODQiIGlua3NjYXBlOnBhZ2VvcGFjaXR5PSIwIiBpbmtzY2FwZTpwYWdlc2hhZG93PSIyIiBpbmtzY2FwZTp3aW5kb3ctaGVpZ2h0PSIxMDE3IiBpbmtzY2FwZTp3aW5kb3ctbWF4aW1pemVkPSIxIiBpbmtzY2FwZTp3aW5kb3ctd2lkdGg9IjE5MjAiIGlua3NjYXBlOndpbmRvdy14PSItOCIgaW5rc2NhcGU6d2luZG93LXk9Ii04IiBpbmtzY2FwZTp6b29tPSI5LjE5OTg0NjIiIG9iamVjdHRvbGVyYW5jZT0iMTAiIHBhZ2Vjb2xvcj0iI2ZmZmZmZiIgc2hvd2dyaWQ9ImZhbHNlIj4mI3hhOwk8L3NvZGlwb2RpOm5hbWVkdmlldz4mI3hhOzxnIGlkPSJnMTg1NTk1IiB0cmFuc2Zvcm09InRyYW5zbGF0ZSgtNy42NTAyMzc3LC03LjY0NzUwMDYpIj4mI3hhOwk8dGl0bGUgaWQ9InRpdGxlMTg1NTIwIj5QYWdlLTE8L3RpdGxlPiYjeGE7CTxnIGlkPSJncm91cDEyOTQtMSIgdHJhbnNmb3JtPSJ0cmFuc2xhdGUoNy42NSwtNy42NSkiPiYjeGE7CQk8dGl0bGUgaWQ9InRpdGxlMTg1NTIyIj5Ob2RlLmpzIFNESzwvdGl0bGU+JiN4YTsJCTxnIGlkPSJncm91cDEyOTUtMiIgdHJhbnNmb3JtPSJ0cmFuc2xhdGUoMzQuODEyNikiPiYjeGE7CQkJPHRpdGxlIGlkPSJ0aXRsZTE4NTUyNCI+U2hlZXQuMTI5NTwvdGl0bGU+JiN4YTsJCQk8ZyBpZD0ic2hhcGUxMjk2LTMiPiYjeGE7CQkJCTx0aXRsZSBpZD0idGl0bGUxODU1MjYiPlNoZWV0LjEyOTY8L3RpdGxlPiYjeGE7CQkJCTxwYXRoIGlkPSJwYXRoMTg1NTI4IiBpbmtzY2FwZTpjb25uZWN0b3ItY3VydmF0dXJlPSIwIiBzdHlsZT0iZmlsbDojNjk5RjYzOyIgZD0iTTkuODgsNzAuNjhjLTAuMywwLTAuNTktMC4wOC0wLjg2LTAuMjMgICAgICBMNi4zLDY4Ljg0Yy0wLjQxLTAuMjMtMC4yMS0wLjMxLTAuMDgtMC4zNmMwLjU1LTAuMTksMC42Ni0wLjIzLDEuMjQtMC41NmMwLjA2LTAuMDMsMC4xNC0wLjAyLDAuMiwwLjAybDIuMDksMS4yNCAgICAgIGMwLjA4LDAuMDQsMC4xOSwwLjA0LDAuMjYsMGw4LjE2LTQuNzFjMC4wOC0wLjA0LDAuMTMtMC4xMywwLjEzLTAuMjJ2LTkuNDNjMC0wLjA5LTAuMDUtMC4xOC0wLjEzLTAuMjJsLTguMTYtNC43MSAgICAgIGMtMC4wOC0wLjA1LTAuMTgtMC4wNS0wLjI1LDBMMS42LDU0LjZjLTAuMDgsMC4wNC0wLjEzLDAuMTMtMC4xMywwLjIydjkuNDNjMCwwLjA5LDAuMDUsMC4xNywwLjEyLDAuMjJsMi4yNCwxLjI5ICAgICAgYzEuMjIsMC42LDEuOTYtMC4xMSwxLjk2LTAuODN2LTkuM2MwLTAuMTMsMC4xLTAuMjQsMC4yNC0wLjI0aDEuMDNjMC4xMywwLDAuMjQsMC4xMSwwLjI0LDAuMjR2OS4zYzAsMS42Mi0wLjg4LDIuNTUtMi40MiwyLjU1ICAgICAgYy0wLjQ3LDAtMC44NCwwLTEuODgtMC41MWwtMi4xNC0xLjIzQzAuMzMsNjUuNDMsMCw2NC44NiwwLDY0LjI1di05LjQzYzAtMC42MSwwLjMzLTEuMTgsMC44Ni0xLjQ5bDguMTYtNC43MiAgICAgIGMwLjUyLTAuMjksMS4yMS0wLjI5LDEuNzIsMGw4LjE2LDQuNzJjMC41MywwLjMxLDAuODYsMC44OCwwLjg2LDEuNDl2OS40M2MwLDAuNjEtMC4zMywxLjE4LTAuODYsMS40OWwtOC4xNiw0LjcxICAgICAgQzEwLjQ4LDcwLjYsMTAuMTgsNzAuNjgsOS44OCw3MC42OHoiLz4mI3hhOwkJCTwvZz4mI3hhOwkJCTxnIGlkPSJzaGFwZTEyOTctNSIgdHJhbnNmb3JtPSJ0cmFuc2xhdGUoOC4wODE3NSwtNi40OTI1MykiPiYjeGE7CQkJCTx0aXRsZSBpZD0idGl0bGUxODU1MzEiPlNoZWV0LjEyOTc8L3RpdGxlPiYjeGE7CQkJCTxwYXRoIGlkPSJwYXRoMTg1NTMzIiBpbmtzY2FwZTpjb25uZWN0b3ItY3VydmF0dXJlPSIwIiBzdHlsZT0iZmlsbDojNjk5RjYzOyIgZD0iTTQuMzIsNzAuNjhDMC43NSw3MC42OCwwLDY5LjA0LDAsNjcuNjYgICAgICBjMC0wLjEzLDAuMTEtMC4yMywwLjI0LTAuMjNoMS4wNWMwLjEyLDAsMC4yMiwwLjA4LDAuMjQsMC4yYzAuMTYsMS4wNywwLjYzLDEuNjIsMi43OSwxLjYyYzEuNzIsMCwyLjQ2LTAuMzksMi40Ni0xLjMgICAgICBjMC0wLjUzLTAuMjEtMC45Mi0yLjg5LTEuMThjLTIuMjMtMC4yMy0zLjYxLTAuNzItMy42MS0yLjUxYzAtMS42NCwxLjM5LTIuNjMsMy43Mi0yLjYzYzIuNjEsMCwzLjkxLDAuOTEsNC4wNywyLjg2ICAgICAgYzAuMDEsMC4wNy0wLjAyLDAuMTMtMC4wNiwwLjE4Yy0wLjA1LDAuMDUtMC4xMSwwLjA4LTAuMTcsMC4wOEg2Ljc4Yy0wLjExLDAtMC4yMS0wLjA4LTAuMjMtMC4xOSAgICAgIEM2LjI5LDYzLjQzLDUuNjcsNjMuMDcsNCw2My4wN2MtMS44OCwwLTIuMSwwLjY2LTIuMSwxLjE1YzAsMC41OSwwLjI2LDAuNzYsMi43OSwxLjFjMi41MSwwLjMzLDMuNywwLjgsMy43LDIuNTYgICAgICBDOC4zOSw2OS42Niw2LjkxLDcwLjY4LDQuMzIsNzAuNjh6Ii8+JiN4YTsJCQk8L2c+JiN4YTsJCTwvZz4mI3hhOwkJPGcgaWQ9InNoYXBlMTI5OC03IiB0cmFuc2Zvcm09InRyYW5zbGF0ZSg1NS44NDQzLC0xNC44MDI2KSI+JiN4YTsJCQk8dGl0bGUgaWQ9InRpdGxlMTg1NTM3Ij5TaGVldC4xMjk4PC90aXRsZT4mI3hhOwkJCTxwYXRoIGlkPSJwYXRoMTg1NTM5IiBpbmtzY2FwZTpjb25uZWN0b3ItY3VydmF0dXJlPSIwIiBzdHlsZT0iZmlsbDojNjk5RjYzOyIgZD0iTTMuMTUsNjkuMTFjMCwwLjg2LTAuNzEsMS41Ny0xLjU4LDEuNTcgICAgIGMtMC44NSwwLTEuNTctMC43LTEuNTctMS41N2MwLTAuODksMC43My0xLjU4LDEuNTctMS41OEMyLjQyLDY3LjUzLDMuMTUsNjguMjIsMy4xNSw2OS4xMXogTTAuMjUsNjkuMSAgICAgYzAsMC43NCwwLjU5LDEuMzMsMS4zMiwxLjMzczEuMzItMC42MSwxLjMyLTEuMzNjMC0wLjczLTAuNi0xLjMxLTEuMzItMS4zMVMwLjI1LDY4LjM2LDAuMjUsNjkuMXogTTAuOTgsNjguMjJoMC42MSAgICAgYzAuMjEsMCwwLjYyLDAsMC42MiwwLjQ3YzAsMC4zMy0wLjIxLDAuMzktMC4zNCwwLjQzYzAuMjQsMC4wMiwwLjI2LDAuMTgsMC4yOSwwLjRjMC4wMiwwLjE1LDAuMDUsMC4zOSwwLjEsMC40N0gxLjg4ICAgICBjLTAuMDEtMC4wOC0wLjA2LTAuNTMtMC4wNi0wLjU2Yy0wLjAzLTAuMS0wLjA2LTAuMTUtMC4xOS0wLjE1SDEuMzJ2MC43MUgwLjk4VjY4LjIyeiBNMS4zMiw2OWgwLjI3YzAuMjMsMCwwLjI3LTAuMTYsMC4yNy0wLjI1ICAgICBjMC0wLjI0LTAuMTctMC4yNC0wLjI2LTAuMjRIMS4zMlY2OXoiLz4mI3hhOwkJPC9nPiYjeGE7CQk8ZyBpZD0ic2hhcGUxMjk5LTkiIHRyYW5zZm9ybT0idHJhbnNsYXRlKDAsLTIyLjkwNTgpIj4mI3hhOwkJCTx0aXRsZSBpZD0idGl0bGUxODU1NDIiPlNoZWV0LjEyOTk8L3RpdGxlPiYjeGE7CQkJPHBhdGggaWQ9InBhdGgxODU1NDQiIGlua3NjYXBlOmNvbm5lY3Rvci1jdXJ2YXR1cmU9IjAiIHN0eWxlPSJmaWxsOiMzRjU3NjU7IiBkPSJNMTkuNDEsNTYuNzJjMC0wLjM4LTAuMi0wLjczLTAuNTMtMC45MSAgICAgbC04LjY2LTQuOTljLTAuMTQtMC4wOC0wLjMxLTAuMTMtMC40Ny0wLjEzYy0wLjAyLDAtMC4wOCwwLTAuMDksMGMtMC4xNywwLTAuMzMsMC4wNS0wLjQ4LDAuMTNsLTguNjYsNC45OSAgICAgQzAuMiw1NS45OSwwLDU2LjM0LDAsNTYuNzJsMC4wMiwxMy40MWMwLDAuMTksMC4xLDAuMzYsMC4yNiwwLjQ1YzAuMTYsMC4xLDAuMzYsMC4xLDAuNTIsMGw1LjE0LTIuOTQgICAgIGMwLjMzLTAuMiwwLjUzLTAuNTQsMC41My0wLjkxdi02LjI3YzAtMC4zNywwLjItMC43MiwwLjUyLTAuOWwyLjE5LTEuMjdjMC4xNi0wLjA5LDAuMzQtMC4xNCwwLjUyLTAuMTQgICAgIGMwLjE4LDAsMC4zNywwLjA1LDAuNTIsMC4xNGwyLjIsMS4yN2MwLjMyLDAuMTgsMC41MiwwLjUzLDAuNTIsMC45djYuMjdjMCwwLjM3LDAuMiwwLjcyLDAuNTIsMC45MWw1LjE1LDIuOTQgICAgIGMwLjE2LDAuMSwwLjM2LDAuMSwwLjUyLDBjMC4xNi0wLjA5LDAuMjYtMC4yNiwwLjI2LTAuNDVMMTkuNDEsNTYuNzJ6Ii8+JiN4YTsJCTwvZz4mI3hhOwkJPGcgaWQ9InNoYXBlMTMwMC0xMSIgdHJhbnNmb3JtPSJ0cmFuc2xhdGUoNDcuMzM5OCwtMjAuNTA2MikiPiYjeGE7CQkJPHRpdGxlIGlkPSJ0aXRsZTE4NTU0NyI+U2hlZXQuMTMwMDwvdGl0bGU+JiN4YTsJCQk8cGF0aCBpZD0icGF0aDE4NTU0OSIgaW5rc2NhcGU6Y29ubmVjdG9yLWN1cnZhdHVyZT0iMCIgc3R5bGU9ImZpbGw6IzNGNTc2NTsiIGQ9Ik0xMy43MiwzNS44N2MtMC4xNi0wLjA5LTAuMzYtMC4wOS0wLjUyLDAuMDEgICAgIGMtMC4xNiwwLjA5LTAuMjUsMC4yNi0wLjI1LDAuNDV2MTMuMjljMCwwLjEzLTAuMDcsMC4yNS0wLjE5LDAuMzFjLTAuMTEsMC4wNy0wLjI1LDAuMDctMC4zNiwwbC0yLjE3LTEuMjUgICAgIGMtMC4zMi0wLjE4LTAuNzItMC4xOC0xLjA1LDBsLTguNjYsNUMwLjIsNTMuODcsMCw1NC4yMSwwLDU0LjU5djEwYzAsMC4zNywwLjIsMC43MSwwLjUyLDAuOWw4LjY2LDVjMC4zMywwLjE5LDAuNzMsMC4xOSwxLjA1LDAgICAgIGw4LjY2LTVjMC4zMy0wLjE5LDAuNTMtMC41MywwLjUzLTAuOVYzOS42NmMwLTAuMzgtMC4yMS0wLjczLTAuNTQtMC45MUwxMy43MiwzNS44N3ogTTEyLjkyLDYxLjNjMCwwLjA5LTAuMDUsMC4xOC0wLjEzLDAuMjMgICAgIGwtMi45NywxLjcxYy0wLjA4LDAuMDUtMC4xOSwwLjA1LTAuMjcsMGwtMi45Ny0xLjcxYy0wLjA4LTAuMDUtMC4xMy0wLjE0LTAuMTMtMC4yM3YtMy40M2MwLTAuMSwwLjA1LTAuMTgsMC4xMy0wLjIzbDIuOTctMS43MiAgICAgYzAuMDgtMC4wNCwwLjE4LTAuMDQsMC4yNywwbDIuOTcsMS43MmMwLjA4LDAuMDUsMC4xMywwLjEzLDAuMTMsMC4yM0wxMi45Miw2MS4zeiIvPiYjeGE7CQk8L2c+JiN4YTsJCTxnIGlkPSJncm91cDEzMDEtMTMiIHRyYW5zZm9ybT0idHJhbnNsYXRlKDcxLjA2OTcsLTIwLjc0MjQpIj4mI3hhOwkJCTx0aXRsZSBpZD0idGl0bGUxODU1NTIiPlNoZWV0LjEzMDE8L3RpdGxlPiYjeGE7CQkJPGcgaWQ9InNoYXBlMTMwMi0xNCI+JiN4YTsJCQkJPHRpdGxlIGlkPSJ0aXRsZTE4NTU1NCI+U2hlZXQuMTMwMjwvdGl0bGU+JiN4YTsJCQkJPHBhdGggaWQ9InBhdGgxODU1NTYiIGlua3NjYXBlOmNvbm5lY3Rvci1jdXJ2YXR1cmU9IjAiIHN0eWxlPSJmaWxsOiMzRjU3NjU7IiBkPSJNMTguODQsNTguMDFjMC4zMi0wLjE4LDAuNTItMC41MywwLjUyLTAuOSAgICAgIHYtMi40MmMwLTAuMzgtMC4yLTAuNzItMC41My0wLjkxbC04LjYtNC45OWMtMC4zMi0wLjE5LTAuNzItMC4xOS0xLjA1LDBsLTguNjYsNC45OUMwLjIsNTMuOTcsMCw1NC4zMiwwLDU0LjY5djEwICAgICAgYzAsMC4zNywwLjIsMC43MiwwLjUzLDAuOWw4LjYsNC45MWMwLjMyLDAuMTgsMC43MSwwLjE4LDEuMDMsMGw1LjItMi44OWMwLjE3LTAuMDksMC4yNy0wLjI3LDAuMjctMC40NSAgICAgIGMwLTAuMTktMC4xLTAuMzctMC4yNi0wLjQ2bC04LjcxLTVjLTAuMTctMC4xLTAuMjctMC4yNy0wLjI3LTAuNDZ2LTMuMTNjMC0wLjE5LDAuMS0wLjM2LDAuMjctMC40NWwyLjcxLTEuNTcgICAgICBjMC4xNi0wLjA5LDAuMzYtMC4wOSwwLjUyLDBsMi43MSwxLjU3YzAuMTYsMC4wOSwwLjI3LDAuMjYsMC4yNywwLjQ1djIuNDdjMCwwLjE4LDAuMSwwLjM2LDAuMjYsMC40NXMwLjM2LDAuMDksMC41MiwwICAgICAgTDE4Ljg0LDU4LjAxeiIvPiYjeGE7CQkJPC9nPiYjeGE7CQkJPGcgaWQ9InNoYXBlMTMwMy0xNiIgdHJhbnNmb3JtPSJ0cmFuc2xhdGUoNy44MTYxMywtOC45MTM2NikiPiYjeGE7CQkJCTx0aXRsZSBpZD0idGl0bGUxODU1NTkiPlNoZWV0LjEzMDM8L3RpdGxlPiYjeGE7CQkJCTxwYXRoIGlkPSJwYXRoMTg1NTYxIiBpbmtzY2FwZTpjb25uZWN0b3ItY3VydmF0dXJlPSIwIiBzdHlsZT0iZmlsbDojNjk5RjYzOyIgZD0iTTEuNzYsNjYuNDZjMC4wNi0wLjA0LDAuMTQtMC4wNCwwLjIsMCAgICAgIGwxLjY2LDAuOTZjMC4wNywwLjAzLDAuMSwwLjEsMC4xLDAuMTd2MS45MmMwLDAuMDctMC4wMywwLjE0LTAuMSwwLjE4bC0xLjY2LDAuOTVjLTAuMDYsMC4wNC0wLjE0LDAuMDQtMC4yLDBMMC4xLDY5LjY4ICAgICAgQzAuMDQsNjkuNjUsMCw2OS41OCwwLDY5LjUxdi0xLjkyYzAtMC4wNywwLjA0LTAuMTQsMC4xLTAuMTdMMS43Niw2Ni40NnoiLz4mI3hhOwkJCTwvZz4mI3hhOwkJPC9nPiYjeGE7CQk8ZyBpZD0iZ3JvdXAxMzA0LTE4IiB0cmFuc2Zvcm09InRyYW5zbGF0ZSgyMy43MjA4LC0yMC43MDc0KSI+JiN4YTsJCQk8dGl0bGUgaWQ9InRpdGxlMTg1NTY1Ij5TaGVldC4xMzA0PC90aXRsZT4mI3hhOwkJCTxnIGlkPSJzaGFwZTEzMDUtMTkiPiYjeGE7CQkJCTx0aXRsZSBpZD0idGl0bGUxODU1NjciPlhNTElEXzE0M188L3RpdGxlPiYjeGE7CQkJCSYjeGE7CQkJCQk8bGluZWFyR3JhZGllbnQgaWQ9InBhdGgxODU1NjlfMV8iIGdyYWRpZW50VW5pdHM9InVzZXJTcGFjZU9uVXNlIiB4MT0iLTYuMzE4NSIgeTE9IjYxLjExOTciIHgyPSIxNC4yNzMzIiB5Mj0iNjEuMTE5NyIgZ3JhZGllbnRUcmFuc2Zvcm09Im1hdHJpeCgwLjkzNzMgMCAwIC0xLjA2NjkgNS45MjIzIDEyNC44NjA1KSI+JiN4YTsJCQkJCTxzdG9wIG9mZnNldD0iMCIgc3R5bGU9InN0b3AtY29sb3I6IzQxODczRiIvPiYjeGE7CQkJCQk8c3RvcCBvZmZzZXQ9IjAuMzMiIHN0eWxlPSJzdG9wLWNvbG9yOiM0MThCM0QiLz4mI3hhOwkJCQkJPHN0b3Agb2Zmc2V0PSIwLjYzNSIgc3R5bGU9InN0b3AtY29sb3I6IzQxOTYzNyIvPiYjeGE7CQkJCQk8c3RvcCBvZmZzZXQ9IjAuOTMiIHN0eWxlPSJzdG9wLWNvbG9yOiMzRkE5MkQiLz4mI3hhOwkJCQkJPHN0b3Agb2Zmc2V0PSIxIiBzdHlsZT0ic3RvcC1jb2xvcjojM0ZBRTJBIi8+JiN4YTsJCQkJPC9saW5lYXJHcmFkaWVudD4mI3hhOwkJCQk8cGF0aCBpZD0icGF0aDE4NTU2OSIgaW5rc2NhcGU6Y29ubmVjdG9yLWN1cnZhdHVyZT0iMCIgc3R5bGU9ImZpbGw6dXJsKCNwYXRoMTg1NTY5XzFfKTsiIGQ9Ik0xMC4xNyw0OC44ICAgICAgYy0wLjMyLTAuMTgtMC43MS0wLjE4LTEuMDQsMGwtOC42MSw0Ljk3QzAuMiw1My45NiwwLDU0LjMsMCw1NC42N3Y5Ljk1YzAsMC4zNywwLjIsMC43MSwwLjUyLDAuOWw4LjYxLDQuOTggICAgICBjMC4zMywwLjE4LDAuNzIsMC4xOCwxLjA0LDBsOC42MS00Ljk4YzAuMzMtMC4xOSwwLjUyLTAuNTMsMC41Mi0wLjl2LTkuOTVjMC0wLjM3LTAuMTktMC43MS0wLjUyLTAuOUwxMC4xNyw0OC44eiIvPiYjeGE7CQkJPC9nPiYjeGE7CQkJPGcgaWQ9Imdyb3VwMTMwNi0yMyIgdHJhbnNmb3JtPSJ0cmFuc2xhdGUoMC4wMTU4MjQ0LC0wLjAxMTMwMzEpIj4mI3hhOwkJCQk8dGl0bGUgaWQ9InRpdGxlMTg1NTcyIj5TaGVldC4xMzA2PC90aXRsZT4mI3hhOwkJCQk8ZyBpZD0ic2hhcGUxMzA3LTI0IiB0cmFuc2Zvcm09InRyYW5zbGF0ZSgwLC01LjM4NzA4KSI+JiN4YTsJCQkJCTx0aXRsZSBpZD0idGl0bGUxODU1NzQiPlNoZWV0LjEzMDc8L3RpdGxlPiYjeGE7CQkJCQk8cGF0aCBpZD0icGF0aDE4NTU3NiIgaW5rc2NhcGU6Y29ubmVjdG9yLWN1cnZhdHVyZT0iMCIgc3R5bGU9ImZpbGw6bm9uZTsiIGQ9Ik05LjEsNTQuMmwtOC41OSw0Ljk3QzAuMTksNTkuMzYsMCw1OS43LDAsNjAuMDcgICAgICAgdjkuOTVjMCwwLjI0LDAuMDYsMC40OCwwLjIyLDAuNjZMOS45LDU0LjA5QzkuNjQsNTQuMDMsOS4zNCw1NC4wNiw5LjEsNTQuMnoiLz4mI3hhOwkJCQk8L2c+JiN4YTsJCQkJPGcgaWQ9InNoYXBlMTMwOC0yNiIgdHJhbnNmb3JtPSJ0cmFuc2xhdGUoOS45MjY0MiwtMC4wNzM0NzA1KSI+JiN4YTsJCQkJCTx0aXRsZSBpZD0idGl0bGUxODU1NzkiPlNoZWV0LjEzMDg8L3RpdGxlPiYjeGE7CQkJCQk8cGF0aCBpZD0icGF0aDE4NTU4MSIgaW5rc2NhcGU6Y29ubmVjdG9yLWN1cnZhdHVyZT0iMCIgc3R5bGU9ImZpbGw6bm9uZTsiIGQ9Ik0wLDcwLjY4YzAuMDgtMC4wMiwwLjE3LTAuMDYsMC4yNC0wLjEgICAgICAgbDkuMTMtNC45N2MwLjMyLTAuMTksMS4wNS0wLjUzLDEuMDUtMC45MXYtOS45NGMwLTAuMjgtMC42My0wLjUzLTAuODItMC43M0wwLDcwLjY4eiIvPiYjeGE7CQkJCTwvZz4mI3hhOwkJCQk8ZyBpZD0ic2hhcGUxMzA5LTI4IiB0cmFuc2Zvcm09InRyYW5zbGF0ZSgwLjE4MDg1KSI+JiN4YTsJCQkJCTx0aXRsZSBpZD0idGl0bGUxODU1ODQiPlNoZWV0LjEzMDk8L3RpdGxlPiYjeGE7CQkJCQkmI3hhOwkJCQkJCTxsaW5lYXJHcmFkaWVudCBpZD0icGF0aDE4NTU4Nl8xXyIgZ3JhZGllbnRVbml0cz0idXNlclNwYWNlT25Vc2UiIHgxPSItMy4zMDAzIiB5MT0iNjUuNjkwNyIgeDI9IjE3LjAzMzYiIHkyPSI2NS42OTA3IiBncmFkaWVudFRyYW5zZm9ybT0ibWF0cml4KDAuOTI2NSAwIDAgLTEuMDc5MyAzLjA1OCAxMzAuNTcyOSkiPiYjeGE7CQkJCQkJPHN0b3Agb2Zmc2V0PSIwLjE0IiBzdHlsZT0ic3RvcC1jb2xvcjojNDE4NzNGIi8+JiN4YTsJCQkJCQk8c3RvcCBvZmZzZXQ9IjAuNDA1IiBzdHlsZT0ic3RvcC1jb2xvcjojNTRBMDQ0Ii8+JiN4YTsJCQkJCQk8c3RvcCBvZmZzZXQ9IjAuNzE1IiBzdHlsZT0ic3RvcC1jb2xvcjojNjZCODQ4Ii8+JiN4YTsJCQkJCQk8c3RvcCBvZmZzZXQ9IjAuOTEiIHN0eWxlPSJzdG9wLWNvbG9yOiM2Q0MwNEEiLz4mI3hhOwkJCQkJPC9saW5lYXJHcmFkaWVudD4mI3hhOwkJCQkJPHBhdGggaWQ9InBhdGgxODU1ODYiIGlua3NjYXBlOmNvbm5lY3Rvci1jdXJ2YXR1cmU9IjAiIHN0eWxlPSJmaWxsOnVybCgjcGF0aDE4NTU4Nl8xXyk7IiBkPSJNMTguNiw1My43OGwtOC42My00Ljk3ICAgICAgIGMtMC4wOS0wLjA1LTAuMTgtMC4wOC0wLjI3LTAuMTFMMCw2NS4yOWMwLjA4LDAuMSwwLjE4LDAuMTgsMC4yOSwwLjI0bDguNjUsNC45OGMwLjI1LDAuMTQsMC41NCwwLjE3LDAuODEsMC4xbDkuMDktMTYuNjUgICAgICAgQzE4Ljc3LDUzLjg5LDE4LjY5LDUzLjgzLDE4LjYsNTMuNzh6Ii8+JiN4YTsJCQkJPC9nPiYjeGE7CQkJPC9nPiYjeGE7CQkJPGcgaWQ9Imdyb3VwMTMxMC0zMiI+JiN4YTsJCQkJPHRpdGxlIGlkPSJ0aXRsZTE4NTU5MCI+U2hlZXQuMTMxMDwvdGl0bGU+JiN4YTsJCQk8L2c+JiN4YTsJCTwvZz4mI3hhOwk8L2c+JiN4YTs8L2c+JiN4YTs8L3N2Zz4=;" parent="DR9EEMrPSlY4ckPwdUAX-1" vertex="1">
                    <mxGeometry x="1321" y="355" width="132.55" height="81" as="geometry"/>
                </mxCell>
                <mxCell id="rqf0iKj-WmwOmlQ5HG-t-17" value="" style="shape=image;html=1;verticalAlign=top;verticalLabelPosition=bottom;labelBackgroundColor=#ffffff;imageAspect=0;aspect=fixed;image=https://cdn0.iconfinder.com/data/icons/logos-brands-in-colors/128/react-128.png" parent="DR9EEMrPSlY4ckPwdUAX-1" vertex="1">
                    <mxGeometry x="1530" y="374" width="80" height="80" as="geometry"/>
                </mxCell>
                <mxCell id="rqf0iKj-WmwOmlQ5HG-t-18" value="" style="shape=image;html=1;verticalAlign=top;verticalLabelPosition=bottom;labelBackgroundColor=#ffffff;imageAspect=0;aspect=fixed;image=https://cdn4.iconfinder.com/data/icons/macaron-1/48/terminator-128.png" parent="DR9EEMrPSlY4ckPwdUAX-1" vertex="1">
                    <mxGeometry x="1580" y="495.65" width="90" height="90" as="geometry"/>
                </mxCell>
                <mxCell id="rqf0iKj-WmwOmlQ5HG-t-22" value="&lt;font style=&quot;font-size: 25px&quot;&gt;Static Content&lt;/font&gt;" style="shape=doubleArrow;whiteSpace=wrap;html=1;fillColor=#d5e8d4;strokeColor=#82b366;" parent="DR9EEMrPSlY4ckPwdUAX-1" vertex="1">
                    <mxGeometry y="85" width="380" height="135" as="geometry"/>
                </mxCell>
                <mxCell id="rqf0iKj-WmwOmlQ5HG-t-24" value="&lt;span style=&quot;font-size: 25px&quot;&gt;Web socket&lt;/span&gt;" style="shape=doubleArrow;whiteSpace=wrap;html=1;fillColor=#d5e8d4;strokeColor=#82b366;" parent="DR9EEMrPSlY4ckPwdUAX-1" vertex="1">
                    <mxGeometry y="242.5" width="380" height="135" as="geometry"/>
                </mxCell>
                <mxCell id="rqf0iKj-WmwOmlQ5HG-t-25" value="&lt;font style=&quot;font-size: 25px&quot;&gt;REST&lt;/font&gt;" style="shape=doubleArrow;whiteSpace=wrap;html=1;fillColor=#d5e8d4;strokeColor=#82b366;" parent="DR9EEMrPSlY4ckPwdUAX-1" vertex="1">
                    <mxGeometry y="410" width="380" height="135" as="geometry"/>
                </mxCell>
                <mxCell id="rqf0iKj-WmwOmlQ5HG-t-27" value="Browser" style="text;html=1;align=center;verticalAlign=middle;resizable=0;points=[];autosize=1;fontSize=30;fontStyle=1" parent="DR9EEMrPSlY4ckPwdUAX-1" vertex="1">
                    <mxGeometry x="-235" y="70" width="140" height="40" as="geometry"/>
                </mxCell>
                <mxCell id="74FEsa0_jDzKAlU7mRNj-1" value="&lt;font color=&quot;#000000&quot;&gt;PM2 Dashboard&lt;/font&gt;" style="whiteSpace=wrap;html=1;rounded=1;strokeColor=#000000;strokeWidth=4;fillColor=#FFE599;fontSize=21;fontColor=#FFFFFF;" parent="DR9EEMrPSlY4ckPwdUAX-1" vertex="1">
                    <mxGeometry x="420" y="135" width="120" height="65" as="geometry"/>
                </mxCell>
            </root>
        </mxGraphModel>
    </diagram>
</mxfile>